<svg xmlns="http://www.w3.org/2000/svg" xmlns:xlink="http://www.w3.org/1999/xlink" width="500" zoomAndPan="magnify" viewBox="0 0 375 374.999991" height="500" preserveAspectRatio="xMidYMid meet" version="1.0"><defs><clipPath id="797b37a333"><path d="M 37.5 93.75 L 337.5 93.75 L 337.5 281.25 L 37.5 281.25 Z M 37.5 93.75 " clip-rule="nonzero"/></clipPath></defs><g clip-path="url(#797b37a333)"><path fill="#000000" d="M 333.324219 150.558594 L 189.746094 94.347656 C 188.308594 93.75 186.691406 93.75 185.191406 94.347656 L 41.617188 150.558594 C 39.21875 151.457031 37.660156 153.792969 37.660156 156.371094 C 37.660156 158.945312 39.21875 161.222656 41.617188 162.183594 L 87.578125 180.160156 L 87.578125 237.027344 C 87.578125 252.007812 141.507812 281.191406 187.46875 281.191406 C 233.429688 281.191406 287.363281 252.007812 287.363281 237.027344 L 287.363281 180.160156 L 306.179688 172.789062 L 306.179688 232.710938 C 298.808594 236.066406 293.59375 245.117188 293.59375 256.261719 C 293.59375 270.285156 301.804688 281.25 312.351562 281.25 C 322.835938 281.25 331.105469 270.285156 331.105469 256.261719 C 331.105469 245.234375 326.011719 236.246094 318.703125 232.832031 L 318.703125 167.875 L 333.382812 162.121094 C 335.78125 161.164062 337.339844 158.886719 337.339844 156.308594 C 337.339844 153.734375 335.71875 151.457031 333.324219 150.558594 Z M 274.839844 236.308594 C 270.824219 243.140625 230.496094 268.726562 187.46875 268.726562 C 144.445312 268.726562 104.117188 243.140625 100.101562 236.308594 L 100.101562 185.011719 L 185.191406 218.332031 C 185.910156 218.628906 186.691406 218.75 187.46875 218.75 C 188.25 218.75 189.027344 218.628906 189.746094 218.332031 L 274.839844 185.011719 Z M 186.871094 156.308594 L 288.140625 166.4375 L 187.46875 205.804688 L 61.03125 156.371094 L 187.46875 106.875 L 313.90625 156.371094 L 313.488281 156.550781 C 313.308594 156.550781 313.1875 156.429688 313.007812 156.429688 L 188.070312 143.90625 C 184.59375 143.546875 181.597656 146.0625 181.238281 149.480469 C 180.9375 152.894531 183.394531 155.949219 186.871094 156.308594 Z M 312.289062 268.726562 C 309.714844 268.726562 306.058594 263.871094 306.058594 256.261719 C 306.058594 248.652344 309.773438 243.796875 312.289062 243.796875 C 314.867188 243.796875 318.523438 248.652344 318.523438 256.261719 C 318.582031 263.8125 314.867188 268.726562 312.289062 268.726562 Z M 312.289062 268.726562 " fill-opacity="1" fill-rule="nonzero"/></g></svg>