<svg xmlns="http://www.w3.org/2000/svg" xmlns:xlink="http://www.w3.org/1999/xlink" width="500" zoomAndPan="magnify" viewBox="0 0 375 374.999991" height="500" preserveAspectRatio="xMidYMid meet" version="1.0"><defs><clipPath id="cb751d5d72"><path d="M 37.5 37.5 L 337.5 37.5 L 337.5 337.5 L 37.5 337.5 Z M 37.5 37.5 " clip-rule="nonzero"/></clipPath></defs><g clip-path="url(#cb751d5d72)"><path fill="#000000" d="M 333.25 328.996094 L 318.289062 328.996094 L 318.289062 130.769531 C 318.289062 128.421875 316.382812 126.519531 314.035156 126.519531 L 258.859375 126.519531 L 258.859375 41.75 C 258.859375 39.402344 256.957031 37.5 254.609375 37.5 L 120.390625 37.5 C 118.042969 37.5 116.140625 39.402344 116.140625 41.75 L 116.140625 126.519531 L 60.964844 126.519531 C 58.617188 126.519531 56.710938 128.421875 56.710938 130.769531 L 56.710938 328.996094 L 41.75 328.996094 C 39.402344 328.996094 37.5 330.902344 37.5 333.25 C 37.5 335.597656 39.402344 337.5 41.75 337.5 L 333.25 337.5 C 335.597656 337.5 337.5 335.597656 337.5 333.25 C 337.5 330.902344 335.597656 328.996094 333.25 328.996094 Z M 309.785156 135.023438 L 309.785156 328.996094 L 258.859375 328.996094 L 258.859375 135.023438 Z M 250.359375 46.003906 L 250.359375 328.996094 L 217.988281 328.996094 L 217.988281 255.117188 C 217.988281 252.769531 216.085938 250.863281 213.738281 250.863281 L 161.261719 250.863281 C 158.914062 250.863281 157.011719 252.769531 157.011719 255.117188 L 157.011719 328.996094 L 124.640625 328.996094 L 124.640625 46.003906 Z M 209.488281 328.996094 L 165.515625 328.996094 L 165.515625 259.367188 L 209.488281 259.367188 Z M 65.214844 135.023438 L 116.140625 135.023438 L 116.140625 328.996094 L 65.214844 328.996094 Z M 146.085938 104.945312 L 174.183594 104.945312 C 176.53125 104.945312 178.4375 103.042969 178.4375 100.695312 L 178.4375 66.226562 C 178.4375 63.875 176.53125 61.972656 174.183594 61.972656 L 146.085938 61.972656 C 143.738281 61.972656 141.835938 63.875 141.835938 66.226562 L 141.835938 100.695312 C 141.835938 103.042969 143.738281 104.945312 146.085938 104.945312 Z M 150.335938 70.476562 L 169.933594 70.476562 L 169.933594 96.445312 L 150.335938 96.445312 Z M 200.816406 104.945312 L 228.914062 104.945312 C 231.261719 104.945312 233.164062 103.042969 233.164062 100.695312 L 233.164062 66.226562 C 233.164062 63.875 231.261719 61.972656 228.914062 61.972656 L 200.816406 61.972656 C 198.46875 61.972656 196.5625 63.875 196.5625 66.226562 L 196.5625 100.695312 C 196.5625 103.042969 198.46875 104.945312 200.816406 104.945312 Z M 205.066406 70.476562 L 224.664062 70.476562 L 224.664062 96.445312 L 205.066406 96.445312 Z M 146.085938 169.378906 L 174.183594 169.378906 C 176.53125 169.378906 178.4375 167.476562 178.4375 165.128906 L 178.4375 130.660156 C 178.4375 128.3125 176.53125 126.40625 174.183594 126.40625 L 146.085938 126.40625 C 143.738281 126.40625 141.835938 128.3125 141.835938 130.660156 L 141.835938 165.128906 C 141.835938 167.476562 143.738281 169.378906 146.085938 169.378906 Z M 150.335938 134.910156 L 169.933594 134.910156 L 169.933594 160.878906 L 150.335938 160.878906 Z M 200.816406 169.378906 L 228.914062 169.378906 C 231.261719 169.378906 233.164062 167.476562 233.164062 165.128906 L 233.164062 130.660156 C 233.164062 128.3125 231.261719 126.40625 228.914062 126.40625 L 200.816406 126.40625 C 198.46875 126.40625 196.5625 128.3125 196.5625 130.660156 L 196.5625 165.128906 C 196.5625 167.476562 198.46875 169.378906 200.816406 169.378906 Z M 205.066406 134.910156 L 224.664062 134.910156 L 224.664062 160.878906 L 205.066406 160.878906 Z M 146.085938 233.8125 L 174.183594 233.8125 C 176.53125 233.8125 178.4375 231.910156 178.4375 229.5625 L 178.4375 195.089844 C 178.4375 192.742188 176.53125 190.839844 174.183594 190.839844 L 146.085938 190.839844 C 143.738281 190.839844 141.835938 192.742188 141.835938 195.089844 L 141.835938 229.5625 C 141.835938 231.910156 143.738281 233.8125 146.085938 233.8125 Z M 150.335938 199.34375 L 169.933594 199.34375 L 169.933594 225.3125 L 150.335938 225.3125 Z M 200.816406 233.8125 L 228.914062 233.8125 C 231.261719 233.8125 233.164062 231.910156 233.164062 229.5625 L 233.164062 195.089844 C 233.164062 192.742188 231.261719 190.839844 228.914062 190.839844 L 200.816406 190.839844 C 198.46875 190.839844 196.5625 192.742188 196.5625 195.089844 L 196.5625 229.5625 C 196.5625 231.910156 198.46875 233.8125 200.816406 233.8125 Z M 205.066406 199.34375 L 224.664062 199.34375 L 224.664062 225.3125 L 205.066406 225.3125 Z M 205.066406 199.34375 " fill-opacity="1" fill-rule="nonzero"/></g></svg>