<svg xmlns="http://www.w3.org/2000/svg" xmlns:xlink="http://www.w3.org/1999/xlink" width="500" zoomAndPan="magnify" viewBox="0 0 375 374.999991" height="500" preserveAspectRatio="xMidYMid meet" version="1.0"><defs><clipPath id="0a5df0cd65"><path d="M 114 39 L 261 39 L 261 336.5625 L 114 336.5625 Z M 114 39 " clip-rule="nonzero"/></clipPath></defs><path fill="#100f0d" d="M 334.546875 117.648438 C 331.878906 114.773438 327.386719 114.613281 324.519531 117.285156 C 318.511719 122.882812 311.476562 126.65625 304.085938 129.132812 L 266.089844 91.089844 C 263.324219 88.316406 258.828125 88.316406 256.0625 91.089844 C 253.289062 93.863281 253.289062 98.359375 256.0625 101.136719 L 287.542969 132.65625 C 279.003906 133.589844 270.628906 133.335938 263.363281 132.605469 C 259.457031 132.21875 255.988281 135.0625 255.597656 138.964844 C 255.207031 142.871094 258.050781 146.351562 261.949219 146.742188 C 266.34375 147.179688 271.09375 147.464844 276.0625 147.464844 C 295.199219 147.464844 317.460938 143.261719 334.183594 127.683594 C 337.050781 125.011719 337.214844 120.519531 334.546875 117.648438 " fill-opacity="1" fill-rule="nonzero"/><g clip-path="url(#0a5df0cd65)"><path fill="#100f0d" d="M 249.375 141.617188 C 249.175781 141.03125 229.609375 82.589844 258.8125 51.550781 C 261.5 48.695312 261.367188 44.199219 258.515625 41.507812 C 255.664062 38.820312 251.175781 38.953125 248.492188 41.808594 C 213.753906 78.730469 234.570312 142.148438 235.929688 146.136719 C 236.613281 148.335938 248.382812 187.613281 225.222656 216.210938 L 159.472656 150.367188 C 165.441406 145.65625 171.84375 142.410156 178.324219 140.246094 L 215.691406 177.679688 C 217.078125 179.066406 218.890625 179.757812 220.710938 179.757812 C 222.523438 179.757812 224.339844 179.066406 225.722656 177.679688 C 228.496094 174.910156 228.496094 170.410156 225.726562 167.636719 L 194.96875 136.828125 C 202.644531 136.128906 209.996094 136.535156 216.390625 137.402344 C 220.273438 137.929688 223.84375 135.199219 224.367188 131.3125 C 224.894531 127.425781 222.171875 123.847656 218.289062 123.324219 C 208.78125 122.039062 194.597656 121.378906 179.683594 125.152344 C 178.914062 125.222656 178.152344 125.425781 177.429688 125.75 C 166.0625 128.957031 154.386719 134.824219 144.136719 145.019531 C 144.132812 145.027344 144.132812 145.027344 144.125 145.03125 C 144.125 145.03125 144.125 145.035156 144.121094 145.035156 C 144.121094 145.039062 144.117188 145.042969 144.117188 145.042969 C 129.433594 159.667969 121.53125 179.59375 121.257812 202.667969 C 121.0625 219.28125 124.796875 231.957031 125.550781 234.339844 C 125.574219 234.402344 125.589844 234.464844 125.613281 234.527344 C 125.816406 235.113281 145.375 293.554688 116.183594 324.597656 C 113.5 327.453125 113.632812 331.945312 116.484375 334.636719 C 117.855469 335.929688 119.605469 336.566406 121.347656 336.566406 C 123.234375 336.566406 125.117188 335.816406 126.511719 334.332031 C 161.25 297.390625 140.394531 233.917969 139.058594 230.003906 C 138.355469 227.757812 126.691406 188.96875 149.414062 160.382812 L 215.070312 226.132812 C 209.160156 230.710938 202.832031 233.871094 196.433594 235.980469 L 158.910156 198.410156 C 156.136719 195.636719 151.648438 195.636719 148.875 198.410156 C 146.109375 201.183594 146.109375 205.679688 148.875 208.453125 L 179.730469 239.34375 C 172.160156 240.003906 164.921875 239.597656 158.609375 238.742188 C 154.730469 238.214844 151.15625 240.945312 150.632812 244.832031 C 150.105469 248.71875 152.828125 252.296875 156.710938 252.820312 C 160.894531 253.386719 165.980469 253.832031 171.636719 253.832031 C 189.046875 253.832031 211.84375 249.605469 230.222656 231.738281 C 230.304688 231.664062 230.390625 231.59375 230.472656 231.515625 C 230.507812 231.480469 230.539062 231.441406 230.574219 231.402344 C 230.671875 231.308594 230.765625 231.21875 230.863281 231.125 C 245.53125 216.527344 253.441406 196.632812 253.734375 173.589844 C 253.945312 157.003906 250.203125 144.226562 249.445312 141.820312 C 249.421875 141.753906 249.398438 141.683594 249.375 141.617188 " fill-opacity="1" fill-rule="nonzero"/></g><path fill="#100f0d" d="M 113.230469 276.011719 L 81.597656 244.332031 C 92.105469 242.46875 102.707031 242.648438 111.632812 243.539062 C 115.53125 243.933594 119.003906 241.078125 119.390625 237.171875 C 119.78125 233.269531 116.933594 229.792969 113.035156 229.402344 C 82.453125 226.351562 57.476562 232.941406 40.816406 248.460938 C 37.949219 251.132812 37.785156 255.625 40.453125 258.496094 C 41.851562 260 43.746094 260.761719 45.648438 260.761719 C 47.378906 260.761719 49.113281 260.132812 50.480469 258.859375 C 55.15625 254.503906 60.453125 251.257812 66.058594 248.863281 L 103.199219 286.050781 C 104.585938 287.441406 106.402344 288.132812 108.214844 288.132812 C 110.03125 288.132812 111.847656 287.441406 113.230469 286.050781 C 116 283.277344 116 278.78125 113.230469 276.011719 " fill-opacity="1" fill-rule="nonzero"/></svg>