<svg xmlns="http://www.w3.org/2000/svg" xmlns:xlink="http://www.w3.org/1999/xlink" width="500" zoomAndPan="magnify" viewBox="0 0 375 374.999991" height="500" preserveAspectRatio="xMidYMid meet" version="1.0"><defs><clipPath id="2a48466b90"><path d="M 37.5 37.5 L 337.5 37.5 L 337.5 337.5 L 37.5 337.5 Z M 37.5 37.5 " clip-rule="nonzero"/></clipPath></defs><g clip-path="url(#2a48466b90)"><path fill="#040606" d="M 187.351562 337.277344 C 104.675781 337.277344 37.425781 270.011719 37.425781 187.351562 C 37.425781 104.6875 104.675781 37.425781 187.351562 37.425781 C 270.023438 37.425781 337.277344 104.6875 337.277344 187.351562 C 337.277344 270.011719 270.023438 337.277344 187.351562 337.277344 Z M 187.351562 51.703125 C 112.550781 51.703125 51.703125 112.550781 51.703125 187.351562 C 51.703125 262.148438 112.550781 323 187.351562 323 C 262.148438 323 323 262.148438 323 187.351562 C 323 112.550781 262.148438 51.703125 187.351562 51.703125 " fill-opacity="1" fill-rule="nonzero"/></g><path fill="#040606" d="M 187.351562 280.152344 C 185.785156 280.152344 184.171875 279.59375 182.910156 278.660156 C 153.117188 256.203125 116.230469 225.648438 95.234375 188.425781 C 82.640625 166.003906 85.492188 141.386719 102.667969 124.152344 C 112.539062 114.269531 125.660156 108.824219 139.621094 108.824219 C 153.585938 108.824219 166.71875 114.269531 176.578125 124.152344 L 187.351562 134.949219 L 198.121094 124.152344 C 207.984375 114.269531 221.117188 108.824219 235.078125 108.824219 C 249.039062 108.824219 262.160156 114.269531 272.035156 124.152344 C 289.207031 141.386719 292.058594 166.003906 279.464844 188.425781 C 258.46875 225.648438 221.582031 256.203125 191.789062 278.660156 L 191.789062 278.648438 C 190.515625 279.605469 188.917969 280.152344 187.351562 280.152344 Z M 139.621094 123.101562 C 129.480469 123.101562 119.945312 127.050781 112.785156 134.238281 C 100.121094 146.9375 98.203125 164.578125 107.679688 181.425781 C 126.429688 214.679688 159.472656 242.8125 187.351562 264.101562 C 215.226562 242.8125 248.257812 214.679688 267.023438 181.425781 C 276.496094 164.578125 274.582031 146.9375 261.914062 134.238281 C 254.753906 127.050781 245.21875 123.101562 235.078125 123.101562 C 224.9375 123.101562 215.402344 127.050781 208.230469 134.238281 L 192.410156 150.101562 C 189.722656 152.789062 184.980469 152.789062 182.292969 150.101562 L 166.472656 134.238281 C 159.296875 127.050781 149.765625 123.101562 139.621094 123.101562 Z M 273.25 184.921875 L 273.320312 184.921875 L 273.25 184.921875 " fill-opacity="1" fill-rule="nonzero"/></svg>