<svg xmlns="http://www.w3.org/2000/svg" xmlns:xlink="http://www.w3.org/1999/xlink" width="500" zoomAndPan="magnify" viewBox="0 0 375 374.999991" height="500" preserveAspectRatio="xMidYMid meet" version="1.0"><defs><clipPath id="62ca5487e4"><path d="M 44.589844 182 L 330.339844 182 L 330.339844 337.5 L 44.589844 337.5 Z M 44.589844 182 " clip-rule="nonzero"/></clipPath><clipPath id="85b27bb689"><path d="M 108 37.5 L 267 37.5 L 267 195 L 108 195 Z M 108 37.5 " clip-rule="nonzero"/></clipPath></defs><g clip-path="url(#62ca5487e4)"><path fill="#231f20" d="M 284.085938 200.777344 L 259.808594 183.382812 L 251.511719 195 L 275.789062 212.460938 C 300.988281 230.472656 315.984375 259.734375 315.984375 290.71875 L 315.984375 316.167969 C 315.984375 320.101562 312.789062 323.300781 308.855469 323.300781 L 66.078125 323.300781 C 62.144531 323.300781 58.945312 320.101562 58.945312 316.167969 L 58.945312 289.304688 C 58.945312 259.179688 73.328125 230.410156 97.421875 212.273438 L 122.191406 193.648438 L 113.585938 182.214844 L 88.816406 200.839844 C 61.160156 221.558594 44.625 254.632812 44.625 289.242188 L 44.625 316.105469 C 44.625 327.910156 54.214844 337.5 66.078125 337.5 L 308.855469 337.5 C 320.65625 337.5 330.304688 327.910156 330.304688 316.046875 L 330.304688 290.59375 C 330.304688 255.0625 313.035156 221.496094 284.085938 200.777344 Z M 284.085938 200.777344 " fill-opacity="1" fill-rule="nonzero"/></g><g clip-path="url(#85b27bb689)"><path fill="#231f20" d="M 187.464844 194.632812 C 230.796875 194.632812 266.015625 159.40625 266.015625 116.066406 C 266.015625 72.726562 230.796875 37.5 187.464844 37.5 C 144.132812 37.5 108.917969 72.726562 108.917969 116.066406 C 108.917969 159.40625 144.132812 194.632812 187.464844 194.632812 Z M 187.464844 51.761719 C 222.867188 51.761719 251.757812 80.65625 251.757812 116.066406 C 251.757812 151.476562 222.867188 180.367188 187.464844 180.367188 C 152.0625 180.367188 123.175781 151.535156 123.175781 116.066406 C 123.175781 80.59375 152 51.761719 187.464844 51.761719 Z M 187.464844 51.761719 " fill-opacity="1" fill-rule="nonzero"/></g></svg>