<svg xmlns="http://www.w3.org/2000/svg" xmlns:xlink="http://www.w3.org/1999/xlink" width="500" zoomAndPan="magnify" viewBox="0 0 375 374.999991" height="500" preserveAspectRatio="xMidYMid meet" version="1.0"><defs><clipPath id="c9ddfc46ae"><path d="M 130 37.5 L 244 37.5 L 244 243 L 130 243 Z M 130 37.5 " clip-rule="nonzero"/></clipPath><clipPath id="e812a295a3"><path d="M 80.863281 152 L 293.863281 152 L 293.863281 337.5 L 80.863281 337.5 Z M 80.863281 152 " clip-rule="nonzero"/></clipPath></defs><g clip-path="url(#c9ddfc46ae)"><path fill="#000000" d="M 243.746094 185.617188 L 243.746094 94.21875 C 243.746094 92.367188 243.65625 90.523438 243.472656 88.683594 C 243.292969 86.84375 243.023438 85.015625 242.664062 83.203125 C 242.300781 81.390625 241.855469 79.597656 241.316406 77.828125 C 240.78125 76.058594 240.160156 74.320312 239.453125 72.613281 C 238.746094 70.90625 237.957031 69.234375 237.089844 67.605469 C 236.21875 65.972656 235.269531 64.390625 234.242188 62.851562 C 233.21875 61.316406 232.121094 59.832031 230.949219 58.402344 C 229.777344 56.972656 228.539062 55.605469 227.230469 54.296875 C 225.925781 52.992188 224.558594 51.75 223.132812 50.578125 C 221.703125 49.40625 220.222656 48.304688 218.6875 47.277344 C 217.152344 46.25 215.570312 45.300781 213.941406 44.429688 C 212.3125 43.558594 210.644531 42.769531 208.941406 42.0625 C 207.234375 41.351562 205.496094 40.730469 203.730469 40.195312 C 201.964844 39.65625 200.175781 39.207031 198.363281 38.847656 C 196.550781 38.488281 194.726562 38.214844 192.890625 38.035156 C 191.050781 37.855469 189.210938 37.761719 187.363281 37.761719 C 185.515625 37.761719 183.675781 37.855469 181.835938 38.035156 C 180 38.214844 178.175781 38.488281 176.363281 38.847656 C 174.554688 39.207031 172.765625 39.65625 170.996094 40.195312 C 169.230469 40.730469 167.492188 41.351562 165.785156 42.0625 C 164.082031 42.769531 162.414062 43.558594 160.785156 44.429688 C 159.15625 45.300781 157.574219 46.25 156.039062 47.277344 C 154.503906 48.304688 153.023438 49.40625 151.59375 50.578125 C 150.167969 51.75 148.800781 52.992188 147.496094 54.296875 C 146.191406 55.605469 144.949219 56.972656 143.78125 58.402344 C 142.609375 59.832031 141.507812 61.316406 140.484375 62.851562 C 139.457031 64.390625 138.507812 65.972656 137.640625 67.605469 C 136.769531 69.234375 135.980469 70.90625 135.273438 72.613281 C 134.566406 74.320312 133.945312 76.058594 133.410156 77.828125 C 132.875 79.597656 132.425781 81.390625 132.066406 83.203125 C 131.703125 85.015625 131.433594 86.84375 131.253906 88.683594 C 131.070312 90.523438 130.980469 92.367188 130.980469 94.21875 L 130.980469 185.617188 C 130.980469 187.46875 131.070312 189.3125 131.253906 191.152344 C 131.433594 192.992188 131.703125 194.820312 132.066406 196.632812 C 132.425781 198.445312 132.875 200.238281 133.410156 202.003906 C 133.945312 203.773438 134.566406 205.515625 135.273438 207.222656 C 135.980469 208.929688 136.769531 210.601562 137.640625 212.230469 C 138.507812 213.859375 139.457031 215.445312 140.484375 216.980469 C 141.507812 218.519531 142.609375 220.003906 143.78125 221.433594 C 144.949219 222.859375 146.191406 224.230469 147.496094 225.535156 C 148.800781 226.84375 150.167969 228.085938 151.59375 229.257812 C 153.023438 230.429688 154.503906 231.53125 156.039062 232.558594 C 157.574219 233.585938 159.15625 234.535156 160.785156 235.40625 C 162.414062 236.277344 164.082031 237.066406 165.785156 237.773438 C 167.492188 238.480469 169.230469 239.105469 170.996094 239.640625 C 172.765625 240.179688 174.554688 240.625 176.363281 240.988281 C 178.175781 241.347656 180 241.617188 181.835938 241.800781 C 183.675781 241.980469 185.515625 242.070312 187.363281 242.070312 C 189.210938 242.070312 191.050781 241.980469 192.890625 241.800781 C 194.726562 241.617188 196.550781 241.347656 198.363281 240.988281 C 200.175781 240.625 201.964844 240.179688 203.730469 239.640625 C 205.496094 239.105469 207.234375 238.480469 208.941406 237.773438 C 210.644531 237.066406 212.3125 236.277344 213.941406 235.40625 C 215.570312 234.535156 217.152344 233.585938 218.6875 232.558594 C 220.222656 231.53125 221.703125 230.429688 223.132812 229.257812 C 224.558594 228.085938 225.925781 226.84375 227.230469 225.535156 C 228.539062 224.230469 229.777344 222.859375 230.949219 221.433594 C 232.121094 220.003906 233.21875 218.519531 234.242188 216.980469 C 235.269531 215.445312 236.21875 213.859375 237.089844 212.230469 C 237.957031 210.601562 238.746094 208.929688 239.453125 207.222656 C 240.160156 205.515625 240.78125 203.773438 241.316406 202.003906 C 241.855469 200.238281 242.300781 198.445312 242.664062 196.632812 C 243.023438 194.820312 243.292969 192.992188 243.472656 191.152344 C 243.65625 189.3125 243.746094 187.46875 243.746094 185.617188 Z M 145.300781 185.617188 L 145.300781 180.546875 L 160.820312 180.546875 C 161.289062 180.546875 161.753906 180.5 162.214844 180.410156 C 162.675781 180.316406 163.125 180.179688 163.558594 180 C 163.992188 179.820312 164.40625 179.601562 164.796875 179.339844 C 165.1875 179.078125 165.550781 178.78125 165.882812 178.445312 C 166.214844 178.113281 166.511719 177.75 166.773438 177.359375 C 167.035156 176.96875 167.253906 176.554688 167.433594 176.121094 C 167.613281 175.6875 167.75 175.238281 167.839844 174.777344 C 167.933594 174.316406 167.980469 173.847656 167.980469 173.378906 C 167.980469 172.90625 167.933594 172.441406 167.839844 171.980469 C 167.75 171.515625 167.613281 171.070312 167.433594 170.632812 C 167.253906 170.199219 167.035156 169.785156 166.773438 169.394531 C 166.511719 169.003906 166.214844 168.640625 165.882812 168.308594 C 165.550781 167.976562 165.1875 167.679688 164.796875 167.417969 C 164.40625 167.15625 163.992188 166.933594 163.558594 166.753906 C 163.125 166.574219 162.675781 166.4375 162.214844 166.347656 C 161.753906 166.253906 161.289062 166.207031 160.820312 166.207031 L 145.300781 166.207031 L 145.300781 147.085938 L 160.820312 147.085938 C 161.289062 147.085938 161.753906 147.039062 162.214844 146.949219 C 162.675781 146.855469 163.125 146.722656 163.558594 146.539062 C 163.992188 146.359375 164.40625 146.140625 164.796875 145.878906 C 165.1875 145.617188 165.550781 145.320312 165.882812 144.988281 C 166.214844 144.652344 166.511719 144.292969 166.773438 143.898438 C 167.035156 143.507812 167.253906 143.097656 167.433594 142.660156 C 167.613281 142.226562 167.75 141.777344 167.839844 141.316406 C 167.933594 140.855469 167.980469 140.386719 167.980469 139.917969 C 167.980469 139.445312 167.933594 138.980469 167.839844 138.519531 C 167.75 138.058594 167.613281 137.609375 167.433594 137.175781 C 167.253906 136.738281 167.035156 136.328125 166.773438 135.933594 C 166.511719 135.542969 166.214844 135.179688 165.882812 134.847656 C 165.550781 134.515625 165.1875 134.21875 164.796875 133.957031 C 164.40625 133.695312 163.992188 133.476562 163.558594 133.292969 C 163.125 133.113281 162.675781 132.976562 162.214844 132.886719 C 161.753906 132.792969 161.289062 132.75 160.820312 132.75 L 145.300781 132.75 L 145.300781 113.625 L 160.820312 113.625 C 161.289062 113.625 161.753906 113.582031 162.214844 113.488281 C 162.675781 113.398438 163.125 113.261719 163.558594 113.082031 C 163.992188 112.902344 164.40625 112.679688 164.796875 112.417969 C 165.1875 112.15625 165.550781 111.859375 165.882812 111.527344 C 166.214844 111.195312 166.511719 110.832031 166.773438 110.441406 C 167.035156 110.050781 167.253906 109.636719 167.433594 109.199219 C 167.613281 108.765625 167.75 108.316406 167.839844 107.855469 C 167.933594 107.394531 167.980469 106.929688 167.980469 106.457031 C 167.980469 105.988281 167.933594 105.519531 167.839844 105.058594 C 167.75 104.597656 167.613281 104.148438 167.433594 103.714844 C 167.253906 103.28125 167.035156 102.867188 166.773438 102.476562 C 166.511719 102.082031 166.214844 101.722656 165.882812 101.386719 C 165.550781 101.054688 165.1875 100.757812 164.796875 100.496094 C 164.40625 100.234375 163.992188 100.015625 163.558594 99.835938 C 163.125 99.65625 162.675781 99.519531 162.214844 99.425781 C 161.753906 99.335938 161.289062 99.289062 160.820312 99.289062 L 145.300781 99.289062 L 145.300781 94.21875 C 145.300781 92.839844 145.367188 91.460938 145.503906 90.089844 C 145.640625 88.71875 145.84375 87.355469 146.109375 86.003906 C 146.378906 84.648438 146.714844 83.3125 147.117188 81.996094 C 147.515625 80.675781 147.980469 79.378906 148.507812 78.105469 C 149.035156 76.832031 149.621094 75.585938 150.273438 74.371094 C 150.921875 73.152344 151.628906 71.972656 152.394531 70.824219 C 153.160156 69.679688 153.980469 68.574219 154.855469 67.507812 C 155.726562 66.441406 156.652344 65.421875 157.625 64.445312 C 158.601562 63.472656 159.621094 62.546875 160.683594 61.671875 C 161.75 60.796875 162.855469 59.976562 164 59.210938 C 165.144531 58.445312 166.324219 57.734375 167.539062 57.085938 C 168.753906 56.4375 169.996094 55.847656 171.269531 55.320312 C 172.542969 54.792969 173.839844 54.328125 175.15625 53.929688 C 176.472656 53.527344 177.808594 53.191406 179.160156 52.925781 C 180.511719 52.65625 181.871094 52.453125 183.242188 52.316406 C 184.613281 52.183594 185.984375 52.117188 187.363281 52.117188 C 188.742188 52.117188 190.113281 52.183594 191.484375 52.316406 C 192.855469 52.453125 194.21875 52.65625 195.566406 52.925781 C 196.917969 53.191406 198.253906 53.527344 199.570312 53.929688 C 200.890625 54.328125 202.183594 54.792969 203.457031 55.320312 C 204.730469 55.847656 205.972656 56.4375 207.1875 57.085938 C 208.402344 57.734375 209.582031 58.445312 210.726562 59.210938 C 211.875 59.976562 212.976562 60.796875 214.042969 61.671875 C 215.109375 62.546875 216.128906 63.472656 217.101562 64.445312 C 218.074219 65.421875 219 66.441406 219.875 67.507812 C 220.746094 68.574219 221.566406 69.679688 222.332031 70.824219 C 223.097656 71.972656 223.804688 73.152344 224.457031 74.371094 C 225.105469 75.585938 225.691406 76.832031 226.21875 78.105469 C 226.746094 79.378906 227.210938 80.675781 227.613281 81.996094 C 228.011719 83.3125 228.347656 84.648438 228.617188 86.003906 C 228.886719 87.355469 229.085938 88.71875 229.222656 90.089844 C 229.359375 91.460938 229.425781 92.839844 229.425781 94.21875 L 229.425781 99.289062 L 213.90625 99.289062 C 213.4375 99.289062 212.972656 99.335938 212.511719 99.425781 C 212.050781 99.519531 211.601562 99.65625 211.167969 99.835938 C 210.734375 100.015625 210.320312 100.234375 209.929688 100.496094 C 209.539062 100.757812 209.179688 101.054688 208.84375 101.386719 C 208.511719 101.722656 208.214844 102.082031 207.953125 102.476562 C 207.695312 102.867188 207.472656 103.28125 207.292969 103.714844 C 207.113281 104.148438 206.976562 104.597656 206.886719 105.058594 C 206.792969 105.519531 206.75 105.988281 206.75 106.457031 C 206.75 106.929688 206.792969 107.394531 206.886719 107.855469 C 206.976562 108.316406 207.113281 108.765625 207.292969 109.199219 C 207.472656 109.636719 207.695312 110.050781 207.953125 110.441406 C 208.214844 110.832031 208.511719 111.195312 208.84375 111.527344 C 209.179688 111.859375 209.539062 112.15625 209.929688 112.417969 C 210.320312 112.679688 210.734375 112.902344 211.167969 113.082031 C 211.601562 113.261719 212.050781 113.398438 212.511719 113.488281 C 212.972656 113.582031 213.4375 113.625 213.90625 113.625 L 229.425781 113.625 L 229.425781 132.75 L 213.90625 132.75 C 213.4375 132.75 212.972656 132.792969 212.511719 132.886719 C 212.050781 132.976562 211.601562 133.113281 211.167969 133.292969 C 210.734375 133.476562 210.320312 133.695312 209.929688 133.957031 C 209.539062 134.21875 209.179688 134.515625 208.84375 134.847656 C 208.511719 135.179688 208.214844 135.542969 207.953125 135.933594 C 207.695312 136.328125 207.472656 136.738281 207.292969 137.175781 C 207.113281 137.609375 206.976562 138.058594 206.886719 138.519531 C 206.792969 138.980469 206.75 139.445312 206.75 139.917969 C 206.75 140.386719 206.792969 140.855469 206.886719 141.316406 C 206.976562 141.777344 207.113281 142.226562 207.292969 142.660156 C 207.472656 143.097656 207.695312 143.507812 207.953125 143.898438 C 208.214844 144.292969 208.511719 144.652344 208.84375 144.988281 C 209.179688 145.320312 209.539062 145.617188 209.929688 145.878906 C 210.320312 146.140625 210.734375 146.359375 211.167969 146.539062 C 211.601562 146.722656 212.050781 146.855469 212.511719 146.949219 C 212.972656 147.039062 213.4375 147.085938 213.90625 147.085938 L 229.425781 147.085938 L 229.425781 166.207031 L 213.90625 166.207031 C 213.4375 166.207031 212.972656 166.253906 212.511719 166.347656 C 212.050781 166.4375 211.601562 166.574219 211.167969 166.753906 C 210.734375 166.933594 210.320312 167.15625 209.929688 167.417969 C 209.539062 167.679688 209.179688 167.976562 208.84375 168.308594 C 208.511719 168.640625 208.214844 169.003906 207.953125 169.394531 C 207.695312 169.785156 207.472656 170.199219 207.292969 170.632812 C 207.113281 171.070312 206.976562 171.515625 206.886719 171.980469 C 206.792969 172.441406 206.75 172.90625 206.75 173.378906 C 206.75 173.847656 206.792969 174.316406 206.886719 174.777344 C 206.976562 175.238281 207.113281 175.6875 207.292969 176.121094 C 207.472656 176.554688 207.695312 176.96875 207.953125 177.359375 C 208.214844 177.75 208.511719 178.113281 208.84375 178.445312 C 209.179688 178.78125 209.539062 179.078125 209.929688 179.339844 C 210.320312 179.601562 210.734375 179.820312 211.167969 180 C 211.601562 180.179688 212.050781 180.316406 212.511719 180.410156 C 212.972656 180.5 213.4375 180.546875 213.90625 180.546875 L 229.425781 180.546875 L 229.425781 185.617188 C 229.425781 186.996094 229.359375 188.371094 229.222656 189.746094 C 229.085938 191.117188 228.886719 192.480469 228.617188 193.832031 C 228.347656 195.183594 228.011719 196.519531 227.613281 197.839844 C 227.210938 199.160156 226.746094 200.457031 226.21875 201.730469 C 225.691406 203.003906 225.105469 204.25 224.457031 205.464844 C 223.804688 206.683594 223.097656 207.863281 222.332031 209.007812 C 221.566406 210.15625 220.746094 211.261719 219.875 212.328125 C 219 213.394531 218.074219 214.414062 217.101562 215.390625 C 216.128906 216.363281 215.109375 217.289062 214.042969 218.164062 C 212.976562 219.039062 211.875 219.859375 210.726562 220.625 C 209.582031 221.390625 208.402344 222.097656 207.1875 222.75 C 205.972656 223.398438 204.730469 223.988281 203.457031 224.515625 C 202.183594 225.042969 200.890625 225.507812 199.570312 225.90625 C 198.253906 226.308594 196.917969 226.640625 195.566406 226.910156 C 194.21875 227.179688 192.855469 227.382812 191.484375 227.515625 C 190.113281 227.652344 188.742188 227.71875 187.363281 227.71875 C 185.984375 227.71875 184.613281 227.652344 183.242188 227.515625 C 181.871094 227.382812 180.511719 227.179688 179.160156 226.910156 C 177.808594 226.640625 176.472656 226.308594 175.15625 225.90625 C 173.839844 225.507812 172.542969 225.042969 171.269531 224.515625 C 169.996094 223.988281 168.753906 223.398438 167.539062 222.75 C 166.324219 222.097656 165.144531 221.390625 164 220.625 C 162.855469 219.859375 161.75 219.039062 160.683594 218.164062 C 159.621094 217.289062 158.601562 216.363281 157.625 215.390625 C 156.652344 214.414062 155.726562 213.394531 154.855469 212.328125 C 153.980469 211.261719 153.160156 210.15625 152.394531 209.007812 C 151.628906 207.863281 150.921875 206.683594 150.273438 205.464844 C 149.621094 204.25 149.035156 203.003906 148.507812 201.730469 C 147.980469 200.457031 147.515625 199.160156 147.117188 197.839844 C 146.714844 196.519531 146.378906 195.183594 146.109375 193.832031 C 145.84375 192.480469 145.640625 191.117188 145.503906 189.746094 C 145.367188 188.371094 145.300781 186.996094 145.300781 185.617188 Z M 145.300781 185.617188 " fill-opacity="1" fill-rule="nonzero"/></g><g clip-path="url(#e812a295a3)"><path fill="#000000" d="M 88.023438 152.460938 C 87.554688 152.460938 87.085938 152.507812 86.625 152.601562 C 86.164062 152.691406 85.71875 152.828125 85.285156 153.007812 C 84.847656 153.1875 84.4375 153.410156 84.046875 153.671875 C 83.65625 153.933594 83.292969 154.230469 82.960938 154.5625 C 82.628906 154.894531 82.332031 155.257812 82.070312 155.648438 C 81.808594 156.039062 81.589844 156.453125 81.410156 156.886719 C 81.230469 157.324219 81.09375 157.769531 81 158.234375 C 80.910156 158.695312 80.863281 159.160156 80.863281 159.632812 L 80.863281 173.074219 C 80.867188 174.742188 80.90625 176.410156 80.988281 178.078125 C 81.066406 179.746094 81.1875 181.410156 81.347656 183.074219 C 81.503906 184.734375 81.703125 186.394531 81.9375 188.046875 C 82.175781 189.699219 82.449219 191.34375 82.761719 192.984375 C 83.074219 194.625 83.425781 196.257812 83.816406 197.878906 C 84.207031 199.503906 84.632812 201.117188 85.097656 202.71875 C 85.5625 204.324219 86.066406 205.914062 86.605469 207.496094 C 87.148438 209.074219 87.722656 210.640625 88.335938 212.191406 C 88.949219 213.746094 89.597656 215.28125 90.285156 216.804688 C 90.96875 218.328125 91.691406 219.832031 92.445312 221.320312 C 93.203125 222.808594 93.992188 224.277344 94.816406 225.730469 C 95.640625 227.179688 96.5 228.609375 97.390625 230.023438 C 98.285156 231.433594 99.207031 232.820312 100.164062 234.1875 C 101.121094 235.558594 102.109375 236.902344 103.128906 238.222656 C 104.148438 239.542969 105.199219 240.839844 106.28125 242.109375 C 107.359375 243.382812 108.472656 244.628906 109.609375 245.847656 C 110.75 247.066406 111.914062 248.257812 113.109375 249.421875 C 114.304688 250.589844 115.527344 251.722656 116.773438 252.832031 C 118.023438 253.9375 119.296875 255.015625 120.59375 256.0625 C 121.894531 257.109375 123.214844 258.128906 124.5625 259.113281 C 125.90625 260.097656 127.277344 261.050781 128.667969 261.972656 C 130.058594 262.894531 131.46875 263.78125 132.902344 264.636719 C 134.332031 265.492188 135.785156 266.3125 137.257812 267.097656 C 138.726562 267.886719 140.214844 268.636719 141.722656 269.351562 C 143.226562 270.070312 144.75 270.75 146.289062 271.394531 C 147.824219 272.042969 149.378906 272.648438 150.945312 273.222656 C 152.511719 273.792969 154.089844 274.328125 155.683594 274.828125 C 157.273438 275.324219 158.875 275.785156 160.488281 276.207031 C 162.101562 276.632812 163.722656 277.015625 165.355469 277.363281 C 166.988281 277.710938 168.625 278.019531 170.269531 278.289062 C 171.917969 278.558594 173.566406 278.789062 175.222656 278.980469 C 176.878906 279.171875 178.539062 279.324219 180.203125 279.4375 L 180.203125 322.71875 L 127.402344 322.71875 C 126.929688 322.71875 126.464844 322.765625 126.003906 322.859375 C 125.542969 322.949219 125.097656 323.085938 124.660156 323.265625 C 124.226562 323.445312 123.816406 323.667969 123.421875 323.929688 C 123.03125 324.191406 122.671875 324.488281 122.339844 324.820312 C 122.007812 325.152344 121.710938 325.515625 121.449219 325.90625 C 121.1875 326.296875 120.964844 326.710938 120.785156 327.144531 C 120.605469 327.582031 120.472656 328.027344 120.378906 328.488281 C 120.289062 328.953125 120.242188 329.417969 120.242188 329.890625 C 120.242188 330.359375 120.289062 330.824219 120.378906 331.289062 C 120.472656 331.75 120.605469 332.195312 120.785156 332.632812 C 120.964844 333.066406 121.1875 333.480469 121.449219 333.871094 C 121.710938 334.261719 122.007812 334.625 122.339844 334.957031 C 122.671875 335.289062 123.03125 335.585938 123.421875 335.847656 C 123.816406 336.109375 124.226562 336.332031 124.660156 336.511719 C 125.097656 336.691406 125.542969 336.828125 126.003906 336.917969 C 126.464844 337.011719 126.929688 337.058594 127.402344 337.058594 L 249.761719 337.058594 C 250.230469 337.058594 250.695312 337.011719 251.15625 336.917969 C 251.617188 336.828125 252.066406 336.691406 252.5 336.511719 C 252.933594 336.332031 253.347656 336.109375 253.738281 335.847656 C 254.128906 335.585938 254.492188 335.289062 254.824219 334.957031 C 255.15625 334.625 255.453125 334.261719 255.714844 333.871094 C 255.972656 333.480469 256.195312 333.066406 256.375 332.632812 C 256.554688 332.195312 256.691406 331.75 256.78125 331.289062 C 256.875 330.824219 256.917969 330.359375 256.917969 329.890625 C 256.917969 329.417969 256.875 328.953125 256.78125 328.488281 C 256.691406 328.027344 256.554688 327.582031 256.375 327.144531 C 256.195312 326.710938 255.972656 326.296875 255.714844 325.90625 C 255.453125 325.515625 255.15625 325.152344 254.824219 324.820312 C 254.492188 324.488281 254.128906 324.191406 253.738281 323.929688 C 253.347656 323.667969 252.933594 323.445312 252.5 323.265625 C 252.066406 323.085938 251.617188 322.949219 251.15625 322.859375 C 250.695312 322.765625 250.230469 322.71875 249.761719 322.71875 L 194.523438 322.71875 L 194.523438 279.4375 C 196.1875 279.324219 197.847656 279.171875 199.503906 278.980469 C 201.160156 278.789062 202.8125 278.558594 204.457031 278.289062 C 206.101562 278.019531 207.742188 277.710938 209.371094 277.363281 C 211.003906 277.015625 212.625 276.632812 214.238281 276.207031 C 215.851562 275.785156 217.453125 275.324219 219.046875 274.828125 C 220.636719 274.328125 222.214844 273.792969 223.78125 273.222656 C 225.347656 272.648438 226.902344 272.042969 228.4375 271.394531 C 229.976562 270.75 231.5 270.070312 233.003906 269.351562 C 234.511719 268.636719 236 267.886719 237.472656 267.097656 C 238.941406 266.3125 240.394531 265.492188 241.824219 264.636719 C 243.257812 263.78125 244.667969 262.894531 246.058594 261.972656 C 247.453125 261.050781 248.820312 260.097656 250.164062 259.113281 C 251.511719 258.128906 252.835938 257.109375 254.132812 256.0625 C 255.429688 255.015625 256.703125 253.9375 257.953125 252.832031 C 259.199219 251.722656 260.421875 250.589844 261.617188 249.421875 C 262.8125 248.257812 263.980469 247.066406 265.117188 245.847656 C 266.257812 244.628906 267.367188 243.382812 268.445312 242.109375 C 269.527344 240.839844 270.578125 239.542969 271.597656 238.222656 C 272.617188 236.902344 273.605469 235.558594 274.5625 234.1875 C 275.519531 232.820312 276.445312 231.433594 277.335938 230.023438 C 278.226562 228.609375 279.085938 227.179688 279.910156 225.730469 C 280.734375 224.277344 281.523438 222.808594 282.28125 221.320312 C 283.035156 219.832031 283.757812 218.328125 284.441406 216.804688 C 285.128906 215.28125 285.777344 213.746094 286.390625 212.191406 C 287.003906 210.640625 287.582031 209.074219 288.121094 207.496094 C 288.660156 205.914062 289.164062 204.324219 289.628906 202.71875 C 290.09375 201.117188 290.519531 199.503906 290.910156 197.878906 C 291.300781 196.257812 291.652344 194.625 291.964844 192.984375 C 292.277344 191.34375 292.554688 189.699219 292.789062 188.046875 C 293.027344 186.394531 293.222656 184.734375 293.382812 183.074219 C 293.539062 181.410156 293.660156 179.746094 293.738281 178.078125 C 293.820312 176.410156 293.863281 174.742188 293.863281 173.074219 L 293.863281 159.632812 C 293.863281 159.160156 293.816406 158.695312 293.726562 158.234375 C 293.632812 157.769531 293.5 157.324219 293.320312 156.886719 C 293.140625 156.453125 292.917969 156.039062 292.65625 155.648438 C 292.394531 155.257812 292.097656 154.894531 291.765625 154.5625 C 291.433594 154.230469 291.074219 153.933594 290.679688 153.671875 C 290.289062 153.410156 289.878906 153.1875 289.445312 153.007812 C 289.007812 152.828125 288.5625 152.691406 288.101562 152.601562 C 287.640625 152.507812 287.175781 152.460938 286.703125 152.460938 C 286.234375 152.460938 285.769531 152.507812 285.308594 152.601562 C 284.847656 152.691406 284.398438 152.828125 283.964844 153.007812 C 283.53125 153.1875 283.117188 153.410156 282.726562 153.671875 C 282.335938 153.933594 281.972656 154.230469 281.640625 154.5625 C 281.308594 154.894531 281.011719 155.257812 280.75 155.648438 C 280.488281 156.039062 280.269531 156.453125 280.089844 156.886719 C 279.910156 157.324219 279.773438 157.769531 279.683594 158.234375 C 279.589844 158.695312 279.542969 159.160156 279.542969 159.632812 L 279.542969 173.074219 C 279.542969 174.582031 279.507812 176.09375 279.433594 177.601562 C 279.355469 179.109375 279.246094 180.613281 279.097656 182.117188 C 278.949219 183.621094 278.765625 185.117188 278.542969 186.613281 C 278.320312 188.105469 278.0625 189.59375 277.769531 191.074219 C 277.472656 192.554688 277.140625 194.027344 276.773438 195.492188 C 276.410156 196.957031 276.003906 198.414062 275.566406 199.859375 C 275.128906 201.304688 274.65625 202.738281 274.148438 204.160156 C 273.640625 205.582031 273.097656 206.988281 272.519531 208.382812 C 271.941406 209.777344 271.328125 211.160156 270.683594 212.523438 C 270.039062 213.890625 269.359375 215.238281 268.648438 216.570312 C 267.9375 217.902344 267.195312 219.214844 266.417969 220.507812 C 265.644531 221.804688 264.835938 223.078125 263.996094 224.335938 C 263.160156 225.589844 262.292969 226.824219 261.394531 228.039062 C 260.492188 229.25 259.566406 230.441406 258.609375 231.609375 C 257.652344 232.773438 256.667969 233.917969 255.652344 235.035156 C 254.640625 236.15625 253.601562 237.25 252.535156 238.316406 C 251.46875 239.382812 250.375 240.425781 249.257812 241.4375 C 248.140625 242.453125 246.996094 243.4375 245.832031 244.398438 C 244.664062 245.355469 243.476562 246.285156 242.265625 247.183594 C 241.054688 248.082031 239.820312 248.953125 238.566406 249.789062 C 237.3125 250.628906 236.039062 251.4375 234.746094 252.210938 C 233.449219 252.988281 232.140625 253.734375 230.808594 254.445312 C 229.476562 255.15625 228.132812 255.835938 226.769531 256.480469 C 225.40625 257.125 224.027344 257.738281 222.632812 258.316406 C 221.238281 258.894531 219.832031 259.4375 218.410156 259.945312 C 216.992188 260.453125 215.558594 260.925781 214.117188 261.367188 C 212.671875 261.804688 211.21875 262.207031 209.757812 262.574219 C 208.292969 262.941406 206.824219 263.269531 205.34375 263.566406 C 203.863281 263.859375 202.378906 264.117188 200.886719 264.339844 C 199.394531 264.5625 197.898438 264.746094 196.398438 264.894531 C 194.894531 265.042969 193.390625 265.152344 191.886719 265.226562 C 190.378906 265.300781 188.871094 265.339844 187.363281 265.339844 C 185.855469 265.339844 184.347656 265.300781 182.839844 265.226562 C 181.335938 265.152344 179.832031 265.042969 178.332031 264.894531 C 176.828125 264.746094 175.332031 264.5625 173.839844 264.339844 C 172.347656 264.117188 170.863281 263.859375 169.382812 263.566406 C 167.90625 263.269531 166.433594 262.941406 164.96875 262.574219 C 163.507812 262.207031 162.054688 261.804688 160.609375 261.367188 C 159.167969 260.925781 157.734375 260.453125 156.316406 259.945312 C 154.894531 259.4375 153.488281 258.894531 152.09375 258.316406 C 150.703125 257.738281 149.324219 257.125 147.960938 256.480469 C 146.597656 255.835938 145.25 255.15625 143.917969 254.445312 C 142.589844 253.734375 141.277344 252.988281 139.984375 252.210938 C 138.6875 251.4375 137.414062 250.628906 136.160156 249.789062 C 134.90625 248.953125 133.671875 248.082031 132.460938 247.183594 C 131.25 246.285156 130.0625 245.355469 128.894531 244.398438 C 127.730469 243.4375 126.585938 242.453125 125.46875 241.4375 C 124.351562 240.425781 123.261719 239.382812 122.191406 238.316406 C 121.125 237.25 120.085938 236.15625 119.074219 235.035156 C 118.058594 233.917969 117.074219 232.773438 116.117188 231.609375 C 115.160156 230.441406 114.234375 229.25 113.335938 228.039062 C 112.4375 226.824219 111.566406 225.589844 110.730469 224.335938 C 109.890625 223.078125 109.085938 221.804688 108.308594 220.507812 C 107.53125 219.214844 106.789062 217.902344 106.078125 216.570312 C 105.367188 215.238281 104.6875 213.890625 104.042969 212.523438 C 103.398438 211.160156 102.785156 209.777344 102.207031 208.382812 C 101.632812 206.988281 101.089844 205.582031 100.578125 204.160156 C 100.070312 202.738281 99.597656 201.304688 99.160156 199.859375 C 98.722656 198.414062 98.320312 196.957031 97.953125 195.492188 C 97.585938 194.027344 97.253906 192.554688 96.960938 191.074219 C 96.664062 189.59375 96.40625 188.105469 96.183594 186.613281 C 95.964844 185.117188 95.777344 183.621094 95.628906 182.117188 C 95.480469 180.613281 95.371094 179.109375 95.296875 177.601562 C 95.222656 176.09375 95.183594 174.582031 95.183594 173.074219 L 95.183594 159.632812 C 95.183594 159.160156 95.136719 158.695312 95.046875 158.234375 C 94.953125 157.769531 94.816406 157.324219 94.636719 156.886719 C 94.457031 156.453125 94.238281 156.039062 93.976562 155.648438 C 93.714844 155.257812 93.417969 154.894531 93.085938 154.5625 C 92.753906 154.230469 92.390625 153.933594 92 153.671875 C 91.609375 153.410156 91.199219 153.1875 90.761719 153.007812 C 90.328125 152.828125 89.882812 152.691406 89.421875 152.601562 C 88.960938 152.507812 88.492188 152.460938 88.023438 152.460938 Z M 88.023438 152.460938 " fill-opacity="1" fill-rule="nonzero"/></g></svg>