<svg xmlns="http://www.w3.org/2000/svg" xmlns:xlink="http://www.w3.org/1999/xlink" width="500" zoomAndPan="magnify" viewBox="0 0 375 374.999991" height="500" preserveAspectRatio="xMidYMid meet" version="1.0"><defs><clipPath id="2afa04fdc6"><path d="M 118 41.25 L 337.5 41.25 L 337.5 268 L 118 268 Z M 118 41.25 " clip-rule="nonzero"/></clipPath><clipPath id="bc01d71c9a"><path d="M 37.5 237 L 149 237 L 149 333.75 L 37.5 333.75 Z M 37.5 237 " clip-rule="nonzero"/></clipPath></defs><g clip-path="url(#2afa04fdc6)"><path fill="#212121" d="M 140.765625 267.96875 C 139 267.96875 137.304688 266.964844 136.511719 265.257812 C 135.421875 262.910156 136.4375 260.121094 138.785156 259.027344 C 162.300781 248.085938 204.800781 214.03125 244.546875 174.289062 C 281.84375 136.992188 314.363281 87.078125 327.074219 61.113281 L 316.371094 51.527344 C 291.449219 63.945312 245.203125 108.703125 212.082031 141.824219 C 172.089844 181.8125 137.976562 224.226562 127.195312 247.363281 C 126.101562 249.710938 123.3125 250.726562 120.964844 249.632812 C 118.621094 248.539062 117.605469 245.75 118.695312 243.402344 C 124.253906 231.484375 135.484375 214.851562 151.175781 195.3125 C 166.742188 175.921875 185.511719 155.132812 205.453125 135.195312 C 261.667969 78.980469 295.5625 50.136719 315.359375 41.667969 C 317.03125 40.953125 318.972656 41.269531 320.328125 42.488281 L 335.941406 56.472656 C 337.472656 57.847656 337.929688 60.058594 337.070312 61.929688 C 330.742188 75.628906 318.878906 95.496094 305.324219 115.074219 C 293.335938 132.402344 274.207031 157.886719 251.175781 180.917969 C 210.730469 221.363281 167.152344 256.167969 142.738281 267.527344 C 142.101562 267.828125 141.425781 267.96875 140.765625 267.96875 Z M 140.765625 267.96875 " fill-opacity="1" fill-rule="nonzero"/></g><g clip-path="url(#bc01d71c9a)"><path fill="#212121" d="M 73.417969 333.71875 C 69.324219 333.71875 65.394531 333.367188 61.648438 332.664062 C 52.359375 330.921875 44.695312 327.085938 38.871094 321.261719 C 37.992188 320.382812 37.5 319.191406 37.5 317.949219 C 37.5 316.707031 37.992188 315.511719 38.871094 314.632812 L 48.890625 304.621094 C 57.308594 296.199219 63.066406 284.835938 67.015625 268.859375 C 69.679688 258.0625 76.539062 248.863281 86.328125 242.953125 C 92.789062 239.054688 100.332031 237.078125 108.144531 237.242188 C 115.925781 237.402344 123.382812 239.671875 129.714844 243.800781 C 140.457031 250.8125 147.363281 262.011719 148.667969 274.535156 C 149.96875 287.058594 145.617188 299.339844 136.722656 308.230469 C 131.074219 313.878906 123.621094 319.089844 115.171875 323.296875 C 106.792969 327.464844 97.625 330.554688 88.660156 332.234375 C 83.375 333.222656 78.28125 333.71875 73.417969 333.71875 Z M 49.105469 317.660156 C 58.027344 323.949219 71.496094 325.910156 86.9375 323.019531 C 103.433594 319.929688 119.972656 311.726562 130.09375 301.601562 C 136.980469 294.714844 140.351562 285.203125 139.34375 275.503906 C 138.332031 265.804688 132.957031 257.113281 124.59375 251.652344 C 114.664062 245.175781 101.234375 244.90625 91.171875 250.980469 C 83.527344 255.59375 78.183594 262.742188 76.117188 271.105469 C 74.105469 279.25 71.664062 286.230469 68.652344 292.441406 C 65.117188 299.742188 60.699219 306.066406 55.519531 311.25 Z M 49.105469 317.660156 " fill-opacity="1" fill-rule="nonzero"/></g><path fill="#212121" d="M 117.636719 302.40625 C 116.4375 302.40625 115.234375 301.949219 114.320312 301.03125 C 112.488281 299.203125 112.488281 296.234375 114.320312 294.402344 C 118.632812 290.089844 120.746094 284.128906 120.113281 278.054688 C 119.472656 271.886719 116.1875 266.578125 110.859375 263.101562 C 108.691406 261.6875 108.078125 258.78125 109.496094 256.613281 C 110.910156 254.445312 113.8125 253.835938 115.980469 255.25 C 123.609375 260.226562 128.515625 268.183594 129.441406 277.082031 C 130.363281 285.984375 127.269531 294.710938 120.949219 301.03125 C 120.035156 301.949219 118.835938 302.40625 117.636719 302.40625 Z M 117.636719 302.40625 " fill-opacity="1" fill-rule="nonzero"/><path fill="#212121" d="M 205.582031 221.574219 C 204.382812 221.574219 203.183594 221.117188 202.269531 220.203125 L 166.121094 184.054688 C 164.289062 182.222656 164.289062 179.257812 166.121094 177.425781 C 167.953125 175.59375 170.917969 175.59375 172.75 177.425781 L 208.898438 213.574219 C 210.726562 215.402344 210.726562 218.371094 208.898438 220.203125 C 207.980469 221.117188 206.78125 221.574219 205.582031 221.574219 Z M 205.582031 221.574219 " fill-opacity="1" fill-rule="nonzero"/><path fill="#212121" d="M 179.769531 242.613281 C 178.570312 242.613281 177.371094 242.15625 176.453125 241.242188 L 145.023438 209.8125 C 143.195312 207.980469 143.195312 205.011719 145.023438 203.183594 C 146.855469 201.351562 149.824219 201.351562 151.652344 203.183594 L 183.082031 234.613281 C 184.914062 236.441406 184.914062 239.410156 183.085938 241.238281 C 182.167969 242.15625 180.96875 242.613281 179.769531 242.613281 Z M 179.769531 242.613281 " fill-opacity="1" fill-rule="nonzero"/></svg>