<svg xmlns="http://www.w3.org/2000/svg" xmlns:xlink="http://www.w3.org/1999/xlink" width="500" zoomAndPan="magnify" viewBox="0 0 375 374.999991" height="500" preserveAspectRatio="xMidYMid meet" version="1.0"><defs><clipPath id="0f2a5061b3"><path d="M 235 184 L 334.5 184 L 334.5 197 L 235 197 Z M 235 184 " clip-rule="nonzero"/></clipPath><clipPath id="86540ecf20"><path d="M 37.5 184 L 137 184 L 137 197 L 37.5 197 Z M 37.5 184 " clip-rule="nonzero"/></clipPath></defs><path fill="#000000" d="M 186 314.273438 C 117.765625 314.273438 62.25 258.769531 62.25 190.546875 C 62.25 122.324219 117.765625 66.820312 186 66.820312 C 254.234375 66.820312 309.75 122.324219 309.75 190.546875 C 309.75 258.769531 254.234375 314.273438 186 314.273438 Z M 186 79.191406 C 124.59375 79.191406 74.625 129.140625 74.625 190.546875 C 74.625 251.953125 124.59375 301.898438 186 301.898438 C 247.40625 301.898438 297.375 251.953125 297.375 190.546875 C 297.375 129.140625 247.40625 79.191406 186 79.191406 Z M 186 79.191406 " fill-opacity="1" fill-rule="nonzero"/><g clip-path="url(#0f2a5061b3)"><path fill="#000000" d="M 328.3125 196.734375 L 241.6875 196.734375 C 238.285156 196.734375 235.5 193.949219 235.5 190.546875 C 235.5 187.144531 238.285156 184.359375 241.6875 184.359375 L 328.3125 184.359375 C 331.714844 184.359375 334.5 187.144531 334.5 190.546875 C 334.5 193.949219 331.714844 196.734375 328.3125 196.734375 Z M 328.3125 196.734375 " fill-opacity="1" fill-rule="nonzero"/></g><g clip-path="url(#86540ecf20)"><path fill="#000000" d="M 130.3125 196.734375 L 43.6875 196.734375 C 40.273438 196.734375 37.5 193.949219 37.5 190.546875 C 37.5 187.144531 40.273438 184.359375 43.6875 184.359375 L 130.3125 184.359375 C 133.726562 184.359375 136.5 187.144531 136.5 190.546875 C 136.5 193.949219 133.726562 196.734375 130.3125 196.734375 Z M 130.3125 196.734375 " fill-opacity="1" fill-rule="nonzero"/></g><path fill="#000000" d="M 186 141.054688 C 182.585938 141.054688 179.8125 138.273438 179.8125 134.871094 L 179.8125 48.261719 C 179.8125 44.859375 182.585938 42.074219 186 42.074219 C 189.414062 42.074219 192.1875 44.859375 192.1875 48.261719 L 192.1875 134.871094 C 192.1875 138.273438 189.414062 141.054688 186 141.054688 Z M 186 141.054688 " fill-opacity="1" fill-rule="nonzero"/><path fill="#000000" d="M 186 339.019531 C 182.585938 339.019531 179.8125 336.234375 179.8125 332.832031 L 179.8125 246.222656 C 179.8125 242.820312 182.585938 240.035156 186 240.035156 C 189.414062 240.035156 192.1875 242.820312 192.1875 246.222656 L 192.1875 332.832031 C 192.1875 336.234375 189.414062 339.019531 186 339.019531 Z M 186 339.019531 " fill-opacity="1" fill-rule="nonzero"/><path fill="#000000" d="M 186 277.15625 C 138.234375 277.15625 99.375 238.292969 99.375 190.546875 C 99.375 142.800781 138.234375 103.9375 186 103.9375 C 233.753906 103.9375 272.625 142.800781 272.625 190.546875 C 272.625 238.292969 233.753906 277.15625 186 277.15625 Z M 186 116.3125 C 145.050781 116.3125 111.75 149.605469 111.75 190.546875 C 111.75 231.488281 145.050781 264.78125 186 264.78125 C 226.949219 264.78125 260.25 231.488281 260.25 190.546875 C 260.25 149.605469 226.949219 116.3125 186 116.3125 Z M 186 116.3125 " fill-opacity="1" fill-rule="nonzero"/><path fill="#000000" d="M 186 209.105469 C 175.765625 209.105469 167.4375 200.777344 167.4375 190.546875 C 167.4375 180.3125 175.765625 171.988281 186 171.988281 C 196.234375 171.988281 204.5625 180.3125 204.5625 190.546875 C 204.5625 200.777344 196.234375 209.105469 186 209.105469 Z M 186 184.359375 C 182.585938 184.359375 179.8125 187.144531 179.8125 190.546875 C 179.8125 193.949219 182.585938 196.734375 186 196.734375 C 189.414062 196.734375 192.1875 193.949219 192.1875 190.546875 C 192.1875 187.144531 189.414062 184.359375 186 184.359375 Z M 186 184.359375 " fill-opacity="1" fill-rule="nonzero"/></svg>