<svg xmlns="http://www.w3.org/2000/svg" xmlns:xlink="http://www.w3.org/1999/xlink" width="500" zoomAndPan="magnify" viewBox="0 0 375 374.999991" height="500" preserveAspectRatio="xMidYMid meet" version="1.0"><defs><clipPath id="a0eece8c1a"><path d="M 40 43 L 336 43 L 336 333.5625 L 40 333.5625 Z M 40 43 " clip-rule="nonzero"/></clipPath></defs><g clip-path="url(#a0eece8c1a)"><path fill="#000000" d="M 322.78125 129.804688 C 312.136719 115.269531 296.449219 106.039062 278.570312 103.742188 L 252.796875 100.480469 C 238.738281 98.695312 224.835938 102.519531 213.628906 111.1875 C 212.96875 111.699219 212.304688 112.257812 211.695312 112.820312 C 210.777344 105.78125 209.65625 98.796875 208.128906 91.859375 C 204.460938 75.488281 194.578125 61.71875 180.316406 52.945312 C 166.109375 44.226562 149.453125 41.675781 133.304688 45.808594 L 119.148438 49.429688 C 113.085938 50.957031 107.023438 52.488281 101.21875 53.96875 C 88.28125 57.28125 77.382812 65.390625 70.554688 76.917969 C 64.597656 86.964844 62.355469 98.488281 64.085938 109.863281 L 55.175781 115.320312 C 43.304688 122.5625 37.601562 136.585938 41.015625 150.203125 L 42.03125 154.078125 C 48.960938 181.464844 64.085938 205.433594 85.734375 223.488281 L 101.472656 236.597656 L 110.539062 272.398438 C 112.320312 279.28125 118.585938 283.921875 125.410156 283.921875 C 126.632812 283.921875 127.855469 283.769531 129.128906 283.464844 L 183.019531 269.746094 L 183.273438 270.203125 L 178.636719 306.769531 C 177.566406 315.136719 183.527344 322.785156 191.878906 323.855469 C 191.878906 323.855469 268.179688 333.445312 268.839844 333.445312 C 272.203125 333.445312 275.460938 332.320312 278.160156 330.230469 C 281.371094 327.730469 283.460938 324.109375 283.96875 320.082031 L 288.808594 281.882812 C 304.394531 261.839844 316.515625 239.808594 324.867188 216.246094 C 328.992188 204.566406 332.203125 192.480469 334.445312 180.34375 C 337.703125 162.339844 333.578125 144.339844 322.832031 129.648438 Z M 51.914062 151.632812 L 50.894531 147.753906 C 48.550781 138.523438 52.421875 128.988281 60.472656 124.089844 L 66.429688 120.417969 L 66.53125 120.777344 C 68.875 130.007812 75.597656 137.300781 84.054688 140.5625 C 86.191406 143.828125 96.277344 159.332031 101.421875 171.570312 C 102.238281 173.507812 104.121094 174.683594 106.109375 174.683594 C 106.769531 174.683594 107.433594 174.53125 108.09375 174.273438 C 110.691406 173.203125 111.914062 170.195312 110.792969 167.59375 C 107.175781 158.976562 101.472656 149.183594 97.347656 142.449219 C 97.550781 142.449219 97.804688 142.449219 98.007812 142.449219 C 109.214844 142.449219 120.371094 140.972656 131.320312 138.066406 C 142.578125 135.054688 153.476562 130.515625 163.664062 124.601562 C 174.867188 118.023438 180.265625 105.171875 177.109375 92.625 L 175.632812 86.761719 C 174.96875 84.003906 172.167969 82.375 169.46875 83.035156 C 166.71875 83.75 165.089844 86.503906 165.75 89.207031 L 167.226562 95.074219 C 169.265625 103.179688 165.75 111.496094 158.519531 115.726562 C 149.148438 121.234375 139.113281 125.417969 128.722656 128.171875 C 117.109375 131.28125 105.191406 132.609375 93.324219 132.148438 C 85.378906 131.894531 78.398438 126.132812 76.414062 118.277344 L 74.9375 112.363281 C 72.339844 102.058594 73.867188 91.351562 79.316406 82.222656 C 84.765625 73.09375 93.425781 66.5625 103.714844 63.964844 C 109.519531 62.484375 115.53125 60.953125 121.644531 59.425781 L 135.800781 55.804688 C 149.25 52.386719 163.152344 54.476562 174.96875 61.769531 C 186.835938 69.0625 195.089844 80.589844 198.144531 94.207031 C 200.234375 103.640625 201.710938 113.332031 202.578125 122.917969 C 199.265625 127.660156 196.769531 132.914062 195.140625 138.523438 L 184.496094 140.410156 C 170.742188 142.859375 160.351562 153.824219 158.570312 167.695312 L 158.058594 171.726562 C 156.175781 186.464844 156.835938 201.203125 159.792969 215.429688 L 107.636719 228.691406 L 92.203125 215.839844 C 72.1875 199.164062 58.230469 177.027344 51.863281 151.734375 Z M 126.632812 273.671875 C 123.933594 274.335938 121.132812 272.703125 120.421875 269.949219 L 112.320312 237.972656 L 162.289062 225.273438 C 164.988281 234.554688 168.65625 243.582031 173.390625 252.253906 L 177.976562 260.617188 Z M 271.898438 322.324219 C 270.828125 323.140625 269.503906 323.550781 268.128906 323.347656 L 193.152344 313.859375 C 190.351562 313.503906 188.367188 310.953125 188.722656 308.148438 L 192.847656 275.40625 L 277.957031 286.167969 L 273.832031 318.960938 C 273.679688 320.285156 272.96875 321.507812 271.898438 322.324219 Z M 324.359375 178.660156 C 322.269531 190.289062 319.214844 201.8125 315.242188 212.984375 C 307.195312 235.625 295.480469 256.894531 280.453125 276.171875 L 191.980469 265.003906 L 182.304688 247.355469 C 169.824219 224.507812 164.9375 198.804688 168.195312 172.949219 L 168.707031 168.917969 C 169.875 159.484375 176.957031 152.089844 186.277344 150.40625 L 193.152344 149.183594 L 188.824219 183.660156 C 188.46875 186.464844 190.453125 189.011719 193.253906 189.371094 C 196.007812 189.726562 198.601562 187.738281 198.960938 184.933594 L 203.644531 147.960938 C 203.644531 147.960938 203.644531 147.90625 203.644531 147.855469 C 205.070312 136.484375 210.878906 126.335938 219.894531 119.296875 C 228.960938 112.257812 240.164062 109.199219 251.574219 110.628906 L 277.347656 113.890625 C 292.421875 115.777344 305.667969 123.582031 314.628906 135.820312 C 323.695312 148.214844 327.210938 163.410156 324.460938 178.660156 Z M 324.359375 178.660156 " fill-opacity="1" fill-rule="nonzero"/></g></svg>