<svg xmlns="http://www.w3.org/2000/svg" xmlns:xlink="http://www.w3.org/1999/xlink" width="500" zoomAndPan="magnify" viewBox="0 0 375 374.999991" height="500" preserveAspectRatio="xMidYMid meet" version="1.0"><defs><clipPath id="0db749900d"><path d="M 182 37.5 L 193 37.5 L 193 337.5 L 182 337.5 Z M 182 37.5 " clip-rule="nonzero"/></clipPath><clipPath id="55a61aa42a"><path d="M 37.5 182 L 337.5 182 L 337.5 193 L 37.5 193 Z M 37.5 182 " clip-rule="nonzero"/></clipPath></defs><path stroke-linecap="round" transform="matrix(0.0669643, 0, 0, -0.0669643, 37.500002, 337.499978)" fill="none" stroke-linejoin="round" d="M 1460.024998 3800.008077 L 1427.824998 3832.149744 C 1371.591663 3888.383079 1295.291662 3919.999746 1215.724993 3919.999746 L 1160.016659 3919.999746 C 994.291656 3919.999746 860.00832 3785.658077 860.00832 3619.991407 C 860.00832 3454.324737 994.291656 3319.983067 1160.016659 3319.983067 C 1325.683329 3319.983067 1460.024998 3185.699731 1460.024998 3019.974728 C 1460.024998 2854.308058 1325.683329 2720.024722 1160.016659 2720.024722 L 1104.249991 2720.024722 C 1024.683323 2720.024722 948.383321 2751.583056 892.149987 2807.874724 L 860.00832 2840.016391 " stroke="#000000" stroke-width="160" stroke-opacity="1" stroke-miterlimit="10"/><path stroke-linecap="round" transform="matrix(0.0669643, 0, 0, -0.0669643, 37.500002, 337.499978)" fill="none" stroke-linejoin="round" d="M 2720.025023 3919.999746 L 2960.008361 2720.024722 L 3319.983368 3919.999746 L 3680.016708 2720.024722 L 3920.000046 3919.999746 " stroke="#000000" stroke-width="160" stroke-opacity="1" stroke-miterlimit="10"/><path stroke-linecap="round" transform="matrix(0.0669643, 0, 0, -0.0669643, 37.500002, 337.499978)" fill="none" stroke-linejoin="round" d="M 1580.016667 1160.016358 C 1580.016667 828.624685 1391.949997 559.99968 1160.016659 559.99968 C 928.024988 559.99968 740.016651 828.624685 740.016651 1160.016358 C 740.016651 1491.349698 928.024988 1759.974704 1160.016659 1759.974704 C 1391.949997 1759.974704 1580.016667 1491.349698 1580.016667 1160.016358 Z M 1580.016667 1160.016358 " stroke="#000000" stroke-width="160" stroke-opacity="1" stroke-miterlimit="10"/><path stroke-linecap="round" transform="matrix(0.0669643, 0, 0, -0.0669643, 37.500002, 337.499978)" fill="none" stroke-linejoin="round" d="M 2960.008361 1759.974704 L 3680.016708 1759.974704 " stroke="#000000" stroke-width="160" stroke-opacity="1" stroke-miterlimit="10"/><path stroke-linecap="round" transform="matrix(0.0669643, 0, 0, -0.0669643, 37.500002, 337.499978)" fill="none" stroke-linejoin="round" d="M 3319.983368 559.99968 L 3319.983368 1759.974704 " stroke="#000000" stroke-width="160" stroke-opacity="1" stroke-miterlimit="10"/><g clip-path="url(#0db749900d)"><path stroke-linecap="round" transform="matrix(0.0669643, 0, 0, -0.0669643, 37.500002, 337.499978)" fill="none" stroke-linejoin="round" d="M 2240.000013 4400.024755 L 2240.000013 79.974671 " stroke="#000000" stroke-width="160" stroke-opacity="1" stroke-miterlimit="10"/></g><g clip-path="url(#55a61aa42a)"><path stroke-linecap="round" transform="matrix(0.0669643, 0, 0, -0.0669643, 37.500002, 337.499978)" fill="none" stroke-linejoin="round" d="M 4400.025056 2239.999713 L 79.974971 2239.999713 " stroke="#000000" stroke-width="160" stroke-opacity="1" stroke-miterlimit="10"/></g></svg>