<svg xmlns="http://www.w3.org/2000/svg" xmlns:xlink="http://www.w3.org/1999/xlink" width="500" zoomAndPan="magnify" viewBox="0 0 375 374.999991" height="500" preserveAspectRatio="xMidYMid meet" version="1.0"><defs><clipPath id="acea838175"><path d="M 59 59 L 308 59 L 308 302 L 59 302 Z M 59 59 " clip-rule="nonzero"/></clipPath><clipPath id="de8c881bdb"><path d="M 24.644531 138.222656 L 138.132812 24.730469 L 350.265625 236.863281 L 236.773438 350.351562 Z M 24.644531 138.222656 " clip-rule="nonzero"/></clipPath><clipPath id="649f4624b1"><path d="M 24.644531 138.222656 L 138.132812 24.730469 L 350.265625 236.863281 L 236.773438 350.351562 Z M 24.644531 138.222656 " clip-rule="nonzero"/></clipPath><clipPath id="ff1276a3ae"><path d="M 24.644531 138.222656 L 138.132812 24.730469 L 350.265625 236.863281 L 236.773438 350.351562 Z M 24.644531 138.222656 " clip-rule="nonzero"/></clipPath><clipPath id="a2f773f606"><path d="M 81 82 L 185 82 L 185 185 L 81 185 Z M 81 82 " clip-rule="nonzero"/></clipPath><clipPath id="430c09ae23"><path d="M 24.644531 138.222656 L 138.132812 24.730469 L 350.265625 236.863281 L 236.773438 350.351562 Z M 24.644531 138.222656 " clip-rule="nonzero"/></clipPath><clipPath id="e036e57fb6"><path d="M 24.644531 138.222656 L 138.132812 24.730469 L 350.265625 236.863281 L 236.773438 350.351562 Z M 24.644531 138.222656 " clip-rule="nonzero"/></clipPath><clipPath id="2a62a0e61e"><path d="M 24.644531 138.222656 L 138.132812 24.730469 L 350.265625 236.863281 L 236.773438 350.351562 Z M 24.644531 138.222656 " clip-rule="nonzero"/></clipPath></defs><g clip-path="url(#acea838175)"><g clip-path="url(#de8c881bdb)"><g clip-path="url(#649f4624b1)"><g clip-path="url(#ff1276a3ae)"><path fill="#000000" d="M 294.25 292.84375 C 291.507812 295.585938 288.339844 298.332031 284.699219 301.128906 C 280.617188 304.257812 272.140625 297.523438 270.75 296.152344 C 249.890625 275.589844 228.835938 254.535156 208.464844 234.183594 L 204.242188 229.957031 C 203.027344 228.742188 203.027344 226.773438 204.238281 225.558594 C 205.453125 224.34375 207.425781 224.347656 208.640625 225.5625 L 212.863281 229.785156 C 233.214844 250.136719 254.277344 271.183594 275.121094 291.726562 C 276.828125 293.417969 280.128906 295.222656 281.609375 295.660156 C 288.320312 290.429688 293.226562 285.414062 296.570312 280.382812 C 296.050781 279.179688 294.367188 276.808594 293.320312 275.324219 C 292.183594 273.710938 291.003906 272.039062 290.140625 270.527344 C 290.019531 270.316406 289.085938 268.589844 289.683594 266.953125 C 290.464844 262.597656 293.851562 259.671875 296.851562 257.058594 C 299.207031 255.015625 301.441406 253.082031 301.503906 251.226562 C 301.554688 249.78125 300.382812 247.820312 298.113281 245.53125 C 296.925781 244.34375 295.71875 242.996094 294.539062 241.695312 C 291.222656 238.023438 287.101562 233.445312 284.199219 233.375 C 281.3125 233.304688 277.40625 236.574219 273.632812 239.734375 C 271.574219 241.457031 269.4375 243.242188 267.167969 244.789062 C 265.9375 245.632812 264.273438 245.484375 263.207031 244.417969 L 208.351562 189.5625 C 207.964844 189.175781 207.550781 188.796875 207.148438 188.429688 C 205.957031 187.347656 204.621094 186.132812 203.660156 184.519531 C 202.824219 183.121094 200.261719 178.324219 202.574219 175.605469 C 205.195312 172.511719 204.492188 171.402344 201.386719 167.644531 C 200.832031 166.984375 200.277344 166.304688 199.746094 165.601562 C 197.292969 162.355469 197.351562 156.679688 198.449219 152.761719 C 206.910156 122.523438 194.097656 90.464844 167.273438 74.8125 C 141.414062 59.71875 107.945312 64.230469 85.894531 85.769531 C 64.132812 107.003906 59.464844 140.402344 74.582031 166.867188 C 89.875 193.648438 120.808594 206.953125 149.800781 199.195312 C 150.371094 199.046875 150.933594 198.886719 151.496094 198.730469 C 158.167969 196.882812 165.714844 194.792969 171.964844 203.152344 C 172.175781 203.242188 172.484375 203.320312 172.75 203.355469 C 180.992188 197.015625 186.464844 203 189.777344 206.609375 C 190.332031 207.21875 190.886719 207.824219 191.457031 208.394531 C 192.671875 209.609375 192.671875 211.582031 191.457031 212.796875 C 190.246094 214.007812 188.273438 214.007812 187.058594 212.792969 C 186.425781 212.160156 185.800781 211.484375 185.175781 210.804688 C 181.335938 206.617188 179.945312 205.4375 176.101562 208.628906 C 175.109375 209.445312 173.738281 209.746094 172.011719 209.53125 C 171.203125 209.425781 168.472656 208.949219 167.144531 207.113281 C 163.542969 202.121094 160.070312 202.816406 153.152344 204.730469 C 152.574219 204.890625 151.992188 205.046875 151.402344 205.214844 C 119.6875 213.695312 85.867188 199.207031 69.171875 169.953125 C 52.796875 141.28125 57.65625 105.207031 80.929688 81.933594 C 81.132812 81.730469 81.335938 81.527344 81.539062 81.324219 C 105.585938 57.824219 142.136719 52.945312 170.402344 69.445312 C 199.675781 86.523438 213.667969 121.472656 204.441406 154.445312 C 203.617188 157.402344 203.898438 160.78125 204.707031 161.855469 C 205.183594 162.488281 205.6875 163.097656 206.1875 163.683594 C 208.96875 167.046875 213.117188 172.074219 207.953125 178.875 C 208.128906 179.507812 208.535156 180.511719 209.019531 181.328125 C 209.503906 182.148438 210.402344 182.957031 211.351562 183.820312 C 211.835938 184.269531 212.320312 184.699219 212.777344 185.15625 L 265.75 238.128906 C 267.066406 237.109375 268.378906 236.007812 269.652344 234.945312 C 274.527344 230.863281 279.136719 227.011719 284.371094 227.144531 C 289.941406 227.28125 294.640625 232.492188 299.175781 237.515625 C 300.355469 238.820312 301.464844 240.050781 302.546875 241.132812 C 306.164062 244.769531 307.855469 248.148438 307.742188 251.449219 C 307.566406 256.007812 304.058594 259.058594 300.945312 261.75 C 298.570312 263.808594 296.316406 265.761719 295.84375 267.925781 C 296.539062 269.078125 297.488281 270.414062 298.414062 271.726562 C 301.664062 276.328125 304.222656 279.964844 302.289062 283.007812 C 300.1875 286.308594 297.53125 289.5625 294.257812 292.832031 Z M 289.605469 268.738281 Z M 289.605469 268.738281 " fill-opacity="1" fill-rule="nonzero"/></g></g></g></g><g clip-path="url(#a2f773f606)"><g clip-path="url(#430c09ae23)"><g clip-path="url(#e036e57fb6)"><g clip-path="url(#2a62a0e61e)"><path fill="#000000" d="M 170.167969 170.148438 C 170.0625 170.253906 169.964844 170.351562 169.859375 170.457031 C 160.351562 179.804688 146.882812 185.070312 132.917969 184.898438 C 118.917969 184.726562 105.535156 179.117188 96.203125 169.503906 C 76.601562 149.304688 77.160156 117.867188 97.375 97.652344 C 97.53125 97.496094 97.679688 97.347656 97.839844 97.1875 C 107.867188 87.390625 120.746094 82.042969 134.101562 82.15625 C 147.460938 82.265625 160.183594 87.8125 169.921875 97.777344 C 189.769531 118.101562 189.84375 150.472656 170.175781 170.140625 Z M 101.785156 102.046875 C 84 119.832031 83.480469 147.441406 100.679688 165.167969 C 108.867188 173.601562 120.648438 178.523438 132.996094 178.679688 C 145.3125 178.824219 157.164062 174.207031 165.492188 166.019531 C 165.582031 165.933594 165.660156 165.851562 165.75 165.765625 C 182.742188 148.773438 182.644531 119.71875 165.460938 102.128906 C 156.898438 93.355469 145.738281 88.476562 134.054688 88.382812 C 122.351562 88.292969 111.035156 93.003906 102.1875 101.640625 C 102.054688 101.773438 101.914062 101.914062 101.773438 102.054688 Z M 101.785156 102.046875 " fill-opacity="1" fill-rule="nonzero"/></g></g></g></g></svg>