<svg xmlns="http://www.w3.org/2000/svg" xmlns:xlink="http://www.w3.org/1999/xlink" width="500" zoomAndPan="magnify" viewBox="0 0 375 374.999991" height="500" preserveAspectRatio="xMidYMid meet" version="1.0"><defs><clipPath id="5f39908e58"><path d="M 38 63 L 337 63 L 337 312.9375 L 38 312.9375 Z M 38 63 " clip-rule="nonzero"/></clipPath></defs><g clip-path="url(#5f39908e58)"><path fill="#000000" d="M 336.886719 235.648438 C 335.375 222.515625 333.277344 210.65625 330.652344 200.441406 C 328.898438 193.347656 324.589844 187.042969 318.53125 182.695312 C 304.578125 172.628906 290.0625 165.96875 280.441406 162.175781 C 290.644531 151.140625 297.210938 135.28125 297.210938 117.929688 C 297.210938 87.199219 275.355469 63.121094 247.457031 63.121094 C 220.75 63.121094 199.632812 85.199219 197.875 114.039062 C 194.613281 113.328125 191.226562 112.949219 187.75 112.949219 C 184.269531 112.949219 180.886719 113.324219 177.625 114.039062 C 175.859375 85.199219 154.75 63.121094 128.042969 63.121094 C 100.140625 63.121094 78.285156 87.199219 78.285156 117.929688 C 78.285156 135.28125 84.851562 151.140625 95.058594 162.175781 C 85.433594 165.96875 70.921875 172.628906 56.976562 182.691406 C 50.90625 187.039062 46.597656 193.347656 44.851562 200.398438 C 42.222656 210.664062 40.121094 222.515625 38.609375 235.65625 C 37.652344 244.089844 42.757812 252.195312 50.785156 254.941406 C 61.722656 258.597656 78.960938 260.917969 101.9375 261.894531 C 100.6875 268.191406 99.390625 276.007812 98.304688 285.480469 C 97.347656 293.929688 102.46875 302.039062 110.496094 304.761719 C 125.195312 309.730469 151.1875 312.253906 187.738281 312.253906 C 224.292969 312.253906 250.28125 309.730469 264.992188 304.761719 C 273.007812 302.039062 278.136719 293.929688 277.171875 285.476562 C 276.085938 276.003906 274.789062 268.179688 273.542969 261.894531 C 296.519531 260.917969 313.757812 258.597656 324.734375 254.933594 C 332.722656 252.195312 337.832031 244.089844 336.875 235.648438 Z M 247.457031 73.089844 C 270.152344 73.089844 287.261719 92.367188 287.261719 117.929688 C 287.261719 144.472656 268.660156 167.757812 247.457031 167.757812 C 244.09375 167.757812 240.734375 167.175781 237.425781 166.039062 C 236.828125 143.925781 224.929688 125.488281 207.675781 117.386719 C 207.917969 92.097656 224.929688 73.089844 247.457031 73.089844 Z M 227.550781 167.757812 C 227.550781 194.300781 208.953125 217.582031 187.75 217.582031 C 166.542969 217.582031 147.949219 194.300781 147.949219 167.757812 C 147.949219 142.191406 165.058594 122.914062 187.75 122.914062 C 210.441406 122.914062 227.550781 142.191406 227.550781 167.757812 Z M 128.042969 73.089844 C 150.574219 73.089844 167.585938 92.097656 167.824219 117.386719 C 150.570312 125.488281 138.667969 143.925781 138.070312 166.039062 C 134.765625 167.175781 131.402344 167.757812 128.042969 167.757812 C 106.839844 167.757812 88.234375 144.472656 88.234375 117.929688 C 88.234375 92.367188 105.347656 73.089844 128.042969 73.089844 Z M 53.96875 245.503906 C 50.359375 244.273438 48.058594 240.609375 48.488281 236.789062 C 49.953125 224.109375 51.96875 212.703125 54.5 202.839844 C 55.683594 198.046875 58.621094 193.769531 62.773438 190.785156 C 78.59375 179.375 95.148438 172.628906 103.535156 169.640625 C 110.824219 174.742188 119.191406 177.726562 128.039062 177.726562 C 131.578125 177.726562 135.101562 177.199219 138.578125 176.257812 C 140.320312 190.242188 146.25 202.804688 154.765625 212.007812 C 145.140625 215.804688 130.621094 222.472656 116.683594 232.519531 C 110.628906 236.871094 106.332031 243.179688 104.59375 250.199219 C 104.445312 250.757812 104.292969 251.398438 104.132812 252.023438 C 75.652344 250.917969 61.121094 247.898438 53.960938 245.503906 Z M 261.8125 295.328125 C 252.410156 298.503906 231.929688 302.285156 187.742188 302.285156 C 143.558594 302.285156 123.078125 298.5 113.683594 295.328125 C 110.066406 294.101562 107.757812 290.433594 108.191406 286.617188 C 110.039062 270.542969 112.484375 259.316406 114.234375 252.664062 C 115.421875 247.867188 118.351562 243.59375 122.488281 240.613281 C 138.296875 229.21875 154.847656 222.464844 163.246094 219.464844 C 170.535156 224.5625 178.902344 227.554688 187.742188 227.554688 C 196.585938 227.554688 204.957031 224.570312 212.242188 219.464844 C 220.640625 222.464844 237.195312 229.21875 253.003906 240.617188 C 257.136719 243.59375 260.066406 247.867188 261.269531 252.738281 C 263.003906 259.320312 265.449219 270.546875 267.296875 286.617188 C 267.730469 290.4375 265.414062 294.105469 261.808594 295.332031 Z M 321.558594 245.496094 C 314.367188 247.898438 299.839844 250.917969 271.355469 252.023438 C 271.207031 251.425781 271.050781 250.808594 270.914062 250.269531 C 269.15625 243.171875 264.859375 236.871094 258.808594 232.519531 C 244.867188 222.472656 230.347656 215.800781 220.722656 212.007812 C 229.230469 202.804688 235.160156 190.242188 236.90625 176.257812 C 240.386719 177.195312 243.90625 177.726562 247.449219 177.726562 C 256.296875 177.726562 264.664062 174.742188 271.953125 169.640625 C 280.339844 172.636719 296.898438 179.382812 312.722656 190.792969 C 316.867188 193.769531 319.804688 198.046875 320.996094 202.882812 C 323.519531 212.710938 325.535156 224.113281 326.996094 236.789062 C 327.429688 240.613281 325.125 244.28125 321.554688 245.5 Z M 321.558594 245.496094 " fill-opacity="1" fill-rule="nonzero"/></g></svg>