<svg xmlns="http://www.w3.org/2000/svg" xmlns:xlink="http://www.w3.org/1999/xlink" width="500" zoomAndPan="magnify" viewBox="0 0 375 374.999991" height="500" preserveAspectRatio="xMidYMid meet" version="1.0"><path fill="#010101" d="M 312.746094 219.566406 C 319.875 181.246094 328.144531 143.136719 335.351562 104.839844 C 337.507812 93.292969 330.992188 78.523438 318.386719 76.6875 C 312.824219 75.144531 306.308594 81.074219 308.597656 86.746094 C 309.3125 91.507812 314.738281 92.042969 318.386719 93.265625 C 319.503906 96.355469 321.550781 99.546875 320.246094 102.980469 C 319.441406 107.089844 318.609375 111.195312 317.796875 115.304688 L 132.175781 115.304688 C 128.507812 115.304688 125.527344 118.28125 125.527344 121.960938 C 125.527344 125.636719 128.507812 128.613281 132.175781 128.613281 L 315.152344 128.613281 C 310.1875 153.539062 305.167969 178.460938 300.273438 203.414062 C 299.183594 208.601562 298.414062 213.949219 296.230469 218.851562 C 292.320312 220.367188 287.957031 219.597656 283.890625 219.808594 C 235.621094 219.675781 187.347656 219.78125 139.109375 219.753906 C 126.847656 167.433594 114.746094 115.085938 102.460938 62.765625 C 100.890625 52.894531 92.460938 43.792969 81.984375 44.164062 C 69.457031 44.21875 56.902344 43.632812 44.402344 44.511719 C 37.515625 46.878906 37.515625 57.070312 44.269531 59.652344 C 57.460938 60.90625 70.785156 59.308594 83.976562 60.425781 C 87.140625 61.964844 86.558594 66.359375 87.78125 69.234375 C 102.195312 131.425781 116.738281 193.59375 131.421875 255.757812 C 133.308594 265.898438 142.960938 273.988281 153.441406 272.980469 C 204.984375 272.898438 256.523438 273.164062 308.039062 272.847656 C 317.875 273.164062 317.929688 256.902344 308.089844 257.144531 C 261.871094 256.824219 215.621094 257.066406 169.398438 257.011719 C 162.457031 256.851562 155.410156 257.648438 148.550781 256.265625 C 145.492188 249.796875 144.667969 242.5625 142.832031 235.722656 C 192.515625 235.722656 242.191406 235.746094 291.871094 235.722656 C 301.523438 236.546875 311.308594 229.226562 312.746094 219.566406 Z M 312.746094 219.566406 " fill-opacity="1" fill-rule="nonzero"/><path fill="#010101" d="M 159.132812 278.859375 C 150.039062 280.644531 142.484375 288.230469 140.730469 297.328125 C 137.75 309.863281 146.6875 323.542969 159.398438 325.699219 C 172.566406 328.730469 186.6875 318.5625 187.804688 305.070312 C 190.304688 289.453125 174.453125 274.949219 159.132812 278.859375 Z M 170.675781 306.617188 C 168.125 310.820312 161.632812 311.644531 158.414062 307.734375 C 154 303.824219 156.417969 296 161.921875 294.617188 C 168.46875 292.113281 175.304688 301.109375 170.675781 306.617188 Z M 170.675781 306.617188 " fill-opacity="1" fill-rule="nonzero"/><path fill="#010101" d="M 276.390625 278.808594 C 258.972656 281.46875 251.019531 305.074219 262.988281 317.875 C 273.785156 331.554688 298.226562 327.320312 303.546875 310.609375 C 310.566406 293.972656 293.914062 274.386719 276.390625 278.808594 Z M 285.460938 308.851562 C 277.296875 315.210938 267.777344 300.707031 276.765625 295.652344 C 284.929688 289.265625 294.503906 303.792969 285.460938 308.851562 Z M 285.460938 308.851562 " fill-opacity="1" fill-rule="nonzero"/></svg>