<svg xmlns="http://www.w3.org/2000/svg" xmlns:xlink="http://www.w3.org/1999/xlink" width="500" zoomAndPan="magnify" viewBox="0 0 375 374.999991" height="500" preserveAspectRatio="xMidYMid meet" version="1.0"><defs><clipPath id="017258d80c"><path d="M 88.5 37.5 L 286.5 37.5 L 286.5 337.5 L 88.5 337.5 Z M 88.5 37.5 " clip-rule="nonzero"/></clipPath></defs><g clip-path="url(#017258d80c)"><path fill="#000000" d="M 126.945312 337.441406 L 248.054688 337.441406 C 249.3125 337.441406 250.570312 337.378906 251.820312 337.257812 C 253.074219 337.132812 254.320312 336.949219 255.554688 336.703125 C 256.789062 336.457031 258.007812 336.152344 259.214844 335.785156 C 260.417969 335.421875 261.601562 334.996094 262.765625 334.515625 C 263.929688 334.035156 265.066406 333.496094 266.175781 332.902344 C 267.289062 332.308594 268.367188 331.660156 269.414062 330.960938 C 270.460938 330.261719 271.46875 329.511719 272.445312 328.714844 C 273.417969 327.914062 274.347656 327.070312 275.238281 326.179688 C 276.128906 325.289062 276.972656 324.359375 277.773438 323.386719 C 278.570312 322.410156 279.320312 321.402344 280.019531 320.355469 C 280.71875 319.308594 281.367188 318.230469 281.960938 317.117188 C 282.554688 316.007812 283.089844 314.871094 283.574219 313.707031 C 284.054688 312.542969 284.480469 311.359375 284.84375 310.15625 C 285.210938 308.949219 285.515625 307.730469 285.761719 306.496094 C 286.007812 305.261719 286.191406 304.015625 286.316406 302.761719 C 286.4375 301.511719 286.5 300.253906 286.5 298.996094 L 286.5 76.003906 C 286.5 74.746094 286.4375 73.488281 286.316406 72.238281 C 286.191406 70.984375 286.007812 69.738281 285.761719 68.503906 C 285.515625 67.269531 285.210938 66.050781 284.84375 64.84375 C 284.480469 63.640625 284.054688 62.457031 283.574219 61.292969 C 283.089844 60.128906 282.554688 58.992188 281.960938 57.882812 C 281.367188 56.769531 280.71875 55.691406 280.019531 54.644531 C 279.320312 53.597656 278.570312 52.589844 277.773438 51.613281 C 276.972656 50.640625 276.128906 49.710938 275.238281 48.820312 C 274.347656 47.929688 273.417969 47.085938 272.445312 46.285156 C 271.46875 45.488281 270.460938 44.738281 269.414062 44.039062 C 268.367188 43.339844 267.289062 42.691406 266.175781 42.097656 C 265.066406 41.503906 263.929688 40.964844 262.765625 40.484375 C 261.601562 40.003906 260.417969 39.578125 259.214844 39.214844 C 258.007812 38.847656 256.789062 38.542969 255.554688 38.296875 C 254.320312 38.050781 253.074219 37.867188 251.820312 37.742188 C 250.570312 37.621094 249.3125 37.558594 248.054688 37.558594 L 126.945312 37.558594 C 125.6875 37.558594 124.429688 37.621094 123.179688 37.742188 C 121.925781 37.867188 120.679688 38.050781 119.445312 38.296875 C 118.210938 38.542969 116.992188 38.847656 115.785156 39.214844 C 114.582031 39.578125 113.398438 40.003906 112.234375 40.484375 C 111.070312 40.964844 109.933594 41.503906 108.824219 42.097656 C 107.710938 42.691406 106.632812 43.339844 105.585938 44.039062 C 104.539062 44.738281 103.53125 45.488281 102.554688 46.285156 C 101.582031 47.085938 100.652344 47.929688 99.761719 48.820312 C 98.871094 49.710938 98.027344 50.640625 97.226562 51.613281 C 96.429688 52.589844 95.679688 53.597656 94.980469 54.644531 C 94.28125 55.691406 93.632812 56.769531 93.039062 57.882812 C 92.445312 58.992188 91.910156 60.128906 91.425781 61.292969 C 90.945312 62.457031 90.519531 63.640625 90.15625 64.84375 C 89.789062 66.050781 89.484375 67.269531 89.238281 68.503906 C 88.992188 69.738281 88.808594 70.984375 88.683594 72.238281 C 88.5625 73.488281 88.5 74.746094 88.5 76.003906 L 88.5 298.996094 C 88.5 300.253906 88.5625 301.511719 88.683594 302.761719 C 88.808594 304.015625 88.992188 305.261719 89.238281 306.496094 C 89.484375 307.730469 89.789062 308.949219 90.15625 310.15625 C 90.519531 311.359375 90.945312 312.542969 91.425781 313.707031 C 91.910156 314.871094 92.445312 316.007812 93.039062 317.117188 C 93.632812 318.230469 94.28125 319.308594 94.980469 320.355469 C 95.679688 321.402344 96.429688 322.410156 97.226562 323.386719 C 98.027344 324.359375 98.871094 325.289062 99.761719 326.179688 C 100.652344 327.070312 101.582031 327.914062 102.554688 328.714844 C 103.53125 329.511719 104.539062 330.261719 105.585938 330.960938 C 106.632812 331.660156 107.710938 332.308594 108.824219 332.902344 C 109.933594 333.496094 111.070312 334.035156 112.234375 334.515625 C 113.398438 334.996094 114.582031 335.421875 115.785156 335.785156 C 116.992188 336.152344 118.210938 336.457031 119.445312 336.703125 C 120.679688 336.949219 121.925781 337.132812 123.179688 337.257812 C 124.429688 337.378906 125.6875 337.441406 126.945312 337.441406 Z M 103.878906 76.003906 C 103.878906 75.25 103.914062 74.496094 103.988281 73.742188 C 104.0625 72.992188 104.175781 72.246094 104.320312 71.503906 C 104.46875 70.761719 104.652344 70.03125 104.871094 69.308594 C 105.089844 68.585938 105.34375 67.875 105.632812 67.175781 C 105.921875 66.480469 106.246094 65.796875 106.601562 65.128906 C 106.957031 64.464844 107.347656 63.816406 107.765625 63.1875 C 108.1875 62.5625 108.636719 61.953125 109.113281 61.371094 C 109.59375 60.785156 110.101562 60.226562 110.636719 59.691406 C 111.167969 59.160156 111.726562 58.652344 112.3125 58.171875 C 112.894531 57.695312 113.503906 57.246094 114.128906 56.824219 C 114.757812 56.40625 115.40625 56.015625 116.074219 55.660156 C 116.738281 55.304688 117.421875 54.980469 118.117188 54.691406 C 118.816406 54.402344 119.527344 54.148438 120.25 53.929688 C 120.972656 53.710938 121.707031 53.527344 122.445312 53.378906 C 123.1875 53.234375 123.933594 53.121094 124.683594 53.046875 C 125.4375 52.972656 126.191406 52.9375 126.945312 52.9375 L 248.054688 52.9375 C 248.808594 52.9375 249.5625 52.972656 250.3125 53.046875 C 251.066406 53.121094 251.8125 53.234375 252.554688 53.378906 C 253.292969 53.527344 254.027344 53.710938 254.75 53.929688 C 255.472656 54.148438 256.183594 54.402344 256.882812 54.691406 C 257.578125 54.980469 258.261719 55.304688 258.925781 55.660156 C 259.59375 56.015625 260.242188 56.40625 260.871094 56.824219 C 261.496094 57.246094 262.105469 57.695312 262.6875 58.171875 C 263.273438 58.652344 263.832031 59.160156 264.363281 59.691406 C 264.898438 60.226562 265.40625 60.785156 265.886719 61.371094 C 266.363281 61.953125 266.8125 62.5625 267.234375 63.1875 C 267.652344 63.816406 268.042969 64.464844 268.398438 65.128906 C 268.753906 65.796875 269.078125 66.480469 269.367188 67.175781 C 269.65625 67.875 269.910156 68.585938 270.128906 69.308594 C 270.347656 70.03125 270.53125 70.761719 270.679688 71.503906 C 270.824219 72.246094 270.9375 72.992188 271.011719 73.742188 C 271.085938 74.496094 271.121094 75.25 271.121094 76.003906 L 271.121094 298.996094 C 271.121094 299.75 271.085938 300.503906 271.011719 301.257812 C 270.9375 302.007812 270.824219 302.753906 270.679688 303.496094 C 270.53125 304.238281 270.347656 304.96875 270.128906 305.691406 C 269.910156 306.414062 269.65625 307.125 269.367188 307.824219 C 269.078125 308.519531 268.753906 309.203125 268.398438 309.871094 C 268.042969 310.535156 267.652344 311.183594 267.234375 311.8125 C 266.8125 312.4375 266.363281 313.046875 265.886719 313.628906 C 265.40625 314.214844 264.898438 314.773438 264.363281 315.304688 C 263.832031 315.839844 263.273438 316.347656 262.6875 316.828125 C 262.101562 317.304688 261.496094 317.753906 260.871094 318.175781 C 260.242188 318.59375 259.59375 318.984375 258.925781 319.339844 C 258.261719 319.695312 257.578125 320.019531 256.882812 320.308594 C 256.183594 320.597656 255.472656 320.851562 254.75 321.070312 C 254.027344 321.289062 253.292969 321.472656 252.554688 321.621094 C 251.8125 321.765625 251.066406 321.878906 250.3125 321.953125 C 249.5625 322.027344 248.808594 322.0625 248.054688 322.0625 L 126.945312 322.0625 C 126.191406 322.0625 125.4375 322.027344 124.683594 321.953125 C 123.933594 321.878906 123.1875 321.765625 122.445312 321.621094 C 121.707031 321.472656 120.972656 321.289062 120.25 321.070312 C 119.527344 320.851562 118.816406 320.597656 118.117188 320.308594 C 117.421875 320.019531 116.738281 319.695312 116.074219 319.339844 C 115.40625 318.984375 114.757812 318.59375 114.128906 318.175781 C 113.503906 317.753906 112.894531 317.304688 112.3125 316.828125 C 111.726562 316.347656 111.167969 315.839844 110.636719 315.304688 C 110.101562 314.773438 109.59375 314.214844 109.113281 313.628906 C 108.636719 313.046875 108.1875 312.4375 107.765625 311.8125 C 107.347656 311.183594 106.957031 310.535156 106.601562 309.871094 C 106.246094 309.203125 105.921875 308.519531 105.632812 307.824219 C 105.34375 307.125 105.089844 306.414062 104.871094 305.691406 C 104.652344 304.96875 104.46875 304.238281 104.320312 303.496094 C 104.175781 302.753906 104.0625 302.007812 103.988281 301.257812 C 103.914062 300.503906 103.878906 299.75 103.878906 298.996094 Z M 103.878906 76.003906 " fill-opacity="1" fill-rule="nonzero"/></g><path fill="#000000" d="M 187.5 313.585938 C 188.238281 313.585938 188.976562 313.550781 189.714844 313.476562 C 190.449219 313.40625 191.179688 313.296875 191.90625 313.152344 C 192.632812 313.007812 193.347656 312.828125 194.058594 312.613281 C 194.765625 312.398438 195.460938 312.148438 196.144531 311.867188 C 196.828125 311.582031 197.496094 311.265625 198.148438 310.917969 C 198.800781 310.570312 199.433594 310.191406 200.050781 309.777344 C 200.664062 309.367188 201.257812 308.929688 201.828125 308.457031 C 202.402344 307.988281 202.949219 307.492188 203.472656 306.96875 C 203.996094 306.445312 204.492188 305.898438 204.960938 305.328125 C 205.429688 304.753906 205.871094 304.164062 206.28125 303.546875 C 206.691406 302.933594 207.070312 302.296875 207.421875 301.644531 C 207.769531 300.992188 208.085938 300.324219 208.367188 299.640625 C 208.652344 298.957031 208.898438 298.261719 209.113281 297.554688 C 209.328125 296.847656 209.507812 296.128906 209.652344 295.40625 C 209.796875 294.679688 209.90625 293.949219 209.980469 293.210938 C 210.050781 292.476562 210.085938 291.738281 210.085938 291 C 210.085938 290.257812 210.050781 289.519531 209.980469 288.785156 C 209.90625 288.046875 209.796875 287.316406 209.652344 286.589844 C 209.507812 285.867188 209.328125 285.148438 209.113281 284.441406 C 208.898438 283.734375 208.652344 283.039062 208.367188 282.355469 C 208.085938 281.671875 207.769531 281.003906 207.421875 280.351562 C 207.070312 279.699219 206.691406 279.0625 206.28125 278.449219 C 205.871094 277.835938 205.429688 277.242188 204.960938 276.667969 C 204.492188 276.097656 203.996094 275.550781 203.472656 275.027344 C 202.949219 274.503906 202.402344 274.007812 201.828125 273.539062 C 201.257812 273.070312 200.664062 272.628906 200.050781 272.21875 C 199.433594 271.804688 198.800781 271.425781 198.148438 271.078125 C 197.496094 270.730469 196.828125 270.414062 196.144531 270.128906 C 195.460938 269.847656 194.765625 269.597656 194.058594 269.382812 C 193.347656 269.167969 192.632812 268.988281 191.90625 268.84375 C 191.179688 268.699219 190.449219 268.59375 189.714844 268.519531 C 188.976562 268.445312 188.238281 268.410156 187.5 268.410156 C 186.761719 268.410156 186.023438 268.445312 185.285156 268.519531 C 184.550781 268.59375 183.820312 268.699219 183.09375 268.84375 C 182.367188 268.988281 181.652344 269.167969 180.941406 269.382812 C 180.234375 269.597656 179.539062 269.847656 178.855469 270.128906 C 178.171875 270.414062 177.503906 270.730469 176.851562 271.078125 C 176.199219 271.425781 175.566406 271.804688 174.949219 272.21875 C 174.335938 272.628906 173.742188 273.070312 173.171875 273.539062 C 172.597656 274.007812 172.050781 274.503906 171.527344 275.027344 C 171.003906 275.550781 170.507812 276.097656 170.039062 276.667969 C 169.570312 277.242188 169.128906 277.835938 168.71875 278.449219 C 168.308594 279.0625 167.929688 279.699219 167.578125 280.351562 C 167.230469 281.003906 166.914062 281.671875 166.632812 282.355469 C 166.347656 283.039062 166.101562 283.734375 165.886719 284.441406 C 165.671875 285.148438 165.492188 285.867188 165.347656 286.589844 C 165.203125 287.316406 165.09375 288.046875 165.019531 288.785156 C 164.949219 289.519531 164.914062 290.257812 164.914062 291 C 164.914062 291.738281 164.949219 292.476562 165.023438 293.210938 C 165.097656 293.949219 165.203125 294.679688 165.351562 295.402344 C 165.496094 296.128906 165.675781 296.84375 165.890625 297.554688 C 166.105469 298.261719 166.355469 298.957031 166.636719 299.640625 C 166.921875 300.320312 167.238281 300.988281 167.585938 301.640625 C 167.933594 302.292969 168.3125 302.925781 168.726562 303.542969 C 169.136719 304.15625 169.578125 304.75 170.046875 305.324219 C 170.515625 305.894531 171.011719 306.441406 171.535156 306.964844 C 172.058594 307.488281 172.605469 307.984375 173.175781 308.453125 C 173.746094 308.921875 174.339844 309.363281 174.957031 309.773438 C 175.570312 310.183594 176.203125 310.5625 176.855469 310.914062 C 177.507812 311.261719 178.175781 311.578125 178.859375 311.859375 C 179.542969 312.144531 180.238281 312.394531 180.945312 312.609375 C 181.652344 312.824219 182.371094 313.003906 183.09375 313.148438 C 183.820312 313.292969 184.550781 313.402344 185.285156 313.476562 C 186.023438 313.546875 186.761719 313.585938 187.5 313.585938 Z M 187.5 283.789062 C 187.972656 283.789062 188.441406 283.835938 188.90625 283.929688 C 189.371094 284.019531 189.820312 284.15625 190.257812 284.339844 C 190.695312 284.519531 191.113281 284.742188 191.503906 285.003906 C 191.898438 285.265625 192.261719 285.566406 192.597656 285.902344 C 192.933594 286.234375 193.230469 286.601562 193.492188 286.992188 C 193.757812 287.386719 193.980469 287.800781 194.160156 288.238281 C 194.339844 288.675781 194.476562 289.128906 194.570312 289.59375 C 194.664062 290.054688 194.707031 290.523438 194.707031 291 C 194.707031 291.472656 194.664062 291.941406 194.570312 292.40625 C 194.476562 292.867188 194.339844 293.320312 194.160156 293.757812 C 193.980469 294.195312 193.757812 294.609375 193.492188 295.003906 C 193.230469 295.398438 192.933594 295.761719 192.597656 296.09375 C 192.261719 296.429688 191.898438 296.730469 191.503906 296.992188 C 191.113281 297.253906 190.695312 297.476562 190.257812 297.65625 C 189.820312 297.839844 189.371094 297.976562 188.90625 298.070312 C 188.441406 298.160156 187.972656 298.207031 187.5 298.207031 C 187.027344 298.207031 186.558594 298.160156 186.09375 298.070312 C 185.628906 297.976562 185.179688 297.839844 184.742188 297.65625 C 184.304688 297.476562 183.886719 297.253906 183.496094 296.992188 C 183.101562 296.730469 182.738281 296.429688 182.402344 296.09375 C 182.066406 295.761719 181.769531 295.398438 181.507812 295.003906 C 181.242188 294.609375 181.019531 294.195312 180.839844 293.757812 C 180.660156 293.320312 180.523438 292.867188 180.429688 292.40625 C 180.335938 291.941406 180.292969 291.472656 180.292969 291 C 180.292969 290.523438 180.335938 290.054688 180.429688 289.59375 C 180.523438 289.128906 180.660156 288.675781 180.839844 288.238281 C 181.019531 287.800781 181.242188 287.386719 181.507812 286.992188 C 181.769531 286.601562 182.066406 286.234375 182.402344 285.902344 C 182.738281 285.566406 183.101562 285.265625 183.496094 285.003906 C 183.886719 284.742188 184.304688 284.519531 184.742188 284.339844 C 185.179688 284.15625 185.628906 284.019531 186.09375 283.929688 C 186.558594 283.835938 187.027344 283.789062 187.5 283.789062 Z M 187.5 283.789062 " fill-opacity="1" fill-rule="nonzero"/><path fill="#000000" d="M 180.0625 73.601562 L 194.957031 73.601562 C 195.464844 73.601562 195.964844 73.550781 196.457031 73.453125 C 196.953125 73.355469 197.433594 73.210938 197.902344 73.015625 C 198.367188 72.824219 198.8125 72.585938 199.230469 72.304688 C 199.648438 72.027344 200.039062 71.707031 200.394531 71.351562 C 200.753906 70.992188 201.070312 70.605469 201.351562 70.183594 C 201.632812 69.765625 201.871094 69.320312 202.0625 68.855469 C 202.253906 68.390625 202.402344 67.90625 202.5 67.414062 C 202.597656 66.917969 202.648438 66.417969 202.648438 65.914062 C 202.648438 65.40625 202.597656 64.90625 202.5 64.414062 C 202.402344 63.917969 202.253906 63.4375 202.0625 62.96875 C 201.871094 62.503906 201.632812 62.058594 201.351562 61.640625 C 201.070312 61.222656 200.753906 60.832031 200.394531 60.476562 C 200.039062 60.117188 199.648438 59.800781 199.230469 59.519531 C 198.8125 59.238281 198.367188 59 197.902344 58.808594 C 197.433594 58.617188 196.953125 58.46875 196.457031 58.371094 C 195.964844 58.273438 195.464844 58.222656 194.957031 58.222656 L 180.0625 58.222656 C 179.554688 58.222656 179.054688 58.273438 178.558594 58.371094 C 178.066406 58.46875 177.585938 58.617188 177.117188 58.808594 C 176.652344 59 176.207031 59.238281 175.789062 59.519531 C 175.367188 59.800781 174.980469 60.117188 174.625 60.476562 C 174.265625 60.832031 173.949219 61.222656 173.667969 61.640625 C 173.386719 62.058594 173.148438 62.503906 172.957031 62.96875 C 172.761719 63.4375 172.617188 63.917969 172.519531 64.414062 C 172.421875 64.90625 172.371094 65.40625 172.371094 65.914062 C 172.371094 66.417969 172.421875 66.917969 172.519531 67.414062 C 172.617188 67.90625 172.761719 68.390625 172.957031 68.855469 C 173.148438 69.320312 173.386719 69.765625 173.667969 70.183594 C 173.949219 70.605469 174.265625 70.992188 174.625 71.351562 C 174.980469 71.707031 175.367188 72.027344 175.789062 72.304688 C 176.207031 72.585938 176.652344 72.824219 177.117188 73.015625 C 177.585938 73.210938 178.066406 73.355469 178.558594 73.453125 C 179.054688 73.550781 179.554688 73.601562 180.0625 73.601562 Z M 180.0625 73.601562 " fill-opacity="1" fill-rule="nonzero"/></svg>