<svg xmlns="http://www.w3.org/2000/svg" xmlns:xlink="http://www.w3.org/1999/xlink" width="500" zoomAndPan="magnify" viewBox="0 0 375 374.999991" height="500" preserveAspectRatio="xMidYMid meet" version="1.0"><defs><clipPath id="cd97c6783d"><path d="M 48.375 37.5 L 326.625 37.5 L 326.625 337.5 L 48.375 337.5 Z M 48.375 37.5 " clip-rule="nonzero"/></clipPath></defs><g clip-path="url(#cd97c6783d)"><path fill="#000000" d="M 55.75 37.488281 C 55.09375 37.488281 54.453125 37.574219 53.820312 37.746094 C 53.1875 37.921875 52.589844 38.175781 52.023438 38.507812 C 51.460938 38.84375 50.949219 39.246094 50.492188 39.714844 C 50.039062 40.1875 49.652344 40.710938 49.335938 41.285156 C 49.019531 41.859375 48.785156 42.464844 48.632812 43.101562 C 48.480469 43.742188 48.414062 44.386719 48.4375 45.042969 C 48.457031 45.699219 48.566406 46.339844 48.757812 46.964844 C 48.953125 47.59375 49.226562 48.183594 49.578125 48.734375 L 150.871094 207.902344 L 150.871094 293.574219 C 150.871094 294.195312 150.949219 294.808594 151.105469 295.40625 C 151.257812 296.007812 151.488281 296.578125 151.789062 297.121094 C 152.089844 297.664062 152.453125 298.160156 152.882812 298.609375 C 153.308594 299.058594 153.785156 299.449219 154.3125 299.777344 L 212.847656 336.363281 C 213.402344 336.707031 213.992188 336.972656 214.617188 337.160156 C 215.242188 337.347656 215.878906 337.449219 216.53125 337.46875 C 217.183594 337.484375 217.828125 337.414062 218.460938 337.261719 C 219.09375 337.105469 219.695312 336.871094 220.265625 336.554688 C 220.835938 336.238281 221.355469 335.851562 221.824219 335.394531 C 222.292969 334.941406 222.691406 334.433594 223.023438 333.871094 C 223.355469 333.308594 223.605469 332.710938 223.777344 332.082031 C 223.949219 331.453125 224.035156 330.8125 224.035156 330.160156 L 224.035156 256.992188 C 224.035156 256.511719 223.988281 256.035156 223.894531 255.566406 C 223.800781 255.09375 223.664062 254.636719 223.480469 254.191406 C 223.296875 253.75 223.070312 253.328125 222.804688 252.925781 C 222.535156 252.527344 222.234375 252.15625 221.894531 251.820312 C 221.554688 251.480469 221.183594 251.175781 220.785156 250.910156 C 220.386719 250.640625 219.964844 250.417969 219.519531 250.230469 C 219.078125 250.046875 218.617188 249.910156 218.148438 249.816406 C 217.675781 249.722656 217.199219 249.675781 216.71875 249.675781 L 187.453125 249.675781 C 186.96875 249.667969 186.488281 249.710938 186.011719 249.796875 C 185.535156 249.886719 185.070312 250.019531 184.621094 250.203125 C 184.171875 250.382812 183.742188 250.605469 183.339844 250.871094 C 182.933594 251.136719 182.558594 251.441406 182.210938 251.78125 C 181.867188 252.121094 181.558594 252.492188 181.285156 252.894531 C 181.015625 253.296875 180.785156 253.71875 180.597656 254.167969 C 180.410156 254.613281 180.269531 255.078125 180.175781 255.550781 C 180.078125 256.027344 180.03125 256.507812 180.03125 256.992188 C 180.03125 257.476562 180.078125 257.957031 180.175781 258.433594 C 180.269531 258.90625 180.410156 259.367188 180.597656 259.816406 C 180.785156 260.261719 181.015625 260.6875 181.285156 261.089844 C 181.558594 261.492188 181.867188 261.863281 182.210938 262.203125 C 182.558594 262.542969 182.933594 262.847656 183.339844 263.113281 C 183.742188 263.378906 184.171875 263.601562 184.621094 263.78125 C 185.070312 263.960938 185.535156 264.097656 186.011719 264.1875 C 186.488281 264.273438 186.96875 264.316406 187.453125 264.308594 L 209.402344 264.308594 L 209.402344 316.957031 L 165.503906 289.515625 L 165.503906 205.773438 C 165.503906 204.351562 165.121094 203.042969 164.359375 201.84375 L 69.085938 52.121094 L 319.15625 52.121094 C 319.640625 52.128906 320.121094 52.085938 320.597656 52 C 321.074219 51.910156 321.539062 51.777344 321.988281 51.59375 C 322.4375 51.414062 322.863281 51.191406 323.269531 50.925781 C 323.675781 50.660156 324.050781 50.355469 324.394531 50.015625 C 324.742188 49.675781 325.050781 49.304688 325.320312 48.902344 C 325.59375 48.5 325.820312 48.078125 326.007812 47.628906 C 326.195312 47.183594 326.335938 46.71875 326.433594 46.246094 C 326.527344 45.769531 326.578125 45.289062 326.578125 44.804688 C 326.578125 44.320312 326.527344 43.839844 326.433594 43.363281 C 326.335938 42.890625 326.195312 42.429688 326.007812 41.980469 C 325.820312 41.535156 325.59375 41.109375 325.320312 40.707031 C 325.050781 40.304688 324.742188 39.933594 324.394531 39.59375 C 324.050781 39.253906 323.675781 38.949219 323.269531 38.683594 C 322.863281 38.417969 322.4375 38.195312 321.988281 38.015625 C 321.539062 37.835938 321.074219 37.699219 320.597656 37.609375 C 320.121094 37.523438 319.640625 37.480469 319.15625 37.488281 Z M 300.234375 66.667969 C 299.027344 66.730469 297.90625 67.066406 296.867188 67.679688 C 295.828125 68.292969 294.992188 69.113281 294.359375 70.140625 L 210.546875 201.84375 C 209.785156 203.042969 209.402344 204.351562 209.402344 205.773438 L 209.402344 227.726562 C 209.398438 228.210938 209.4375 228.691406 209.527344 229.167969 C 209.613281 229.644531 209.75 230.105469 209.929688 230.558594 C 210.109375 231.007812 210.335938 231.433594 210.601562 231.839844 C 210.867188 232.246094 211.167969 232.621094 211.507812 232.964844 C 211.851562 233.3125 212.222656 233.621094 212.621094 233.890625 C 213.023438 234.164062 213.449219 234.390625 213.894531 234.578125 C 214.34375 234.765625 214.804688 234.90625 215.28125 235.003906 C 215.753906 235.097656 216.234375 235.144531 216.71875 235.144531 C 217.207031 235.144531 217.683594 235.097656 218.160156 235.003906 C 218.636719 234.90625 219.097656 234.765625 219.542969 234.578125 C 219.992188 234.390625 220.417969 234.164062 220.816406 233.890625 C 221.21875 233.621094 221.589844 233.3125 221.929688 232.964844 C 222.269531 232.621094 222.574219 232.246094 222.839844 231.839844 C 223.105469 231.433594 223.328125 231.007812 223.511719 230.558594 C 223.691406 230.105469 223.824219 229.644531 223.914062 229.167969 C 224.003906 228.691406 224.042969 228.210938 224.035156 227.726562 L 224.035156 207.902344 L 306.707031 78.003906 C 307.078125 77.4375 307.367188 76.832031 307.570312 76.1875 C 307.777344 75.542969 307.890625 74.886719 307.910156 74.210938 C 307.929688 73.535156 307.859375 72.867188 307.699219 72.210938 C 307.535156 71.558594 307.285156 70.933594 306.949219 70.347656 C 306.613281 69.761719 306.207031 69.230469 305.722656 68.757812 C 305.242188 68.285156 304.703125 67.886719 304.113281 67.5625 C 303.519531 67.234375 302.894531 66.996094 302.234375 66.847656 C 301.578125 66.695312 300.910156 66.636719 300.234375 66.667969 Z M 300.234375 66.667969 " fill-opacity="1" fill-rule="nonzero"/></g></svg>