<svg xmlns="http://www.w3.org/2000/svg" xmlns:xlink="http://www.w3.org/1999/xlink" width="500" zoomAndPan="magnify" viewBox="0 0 375 374.999991" height="500" preserveAspectRatio="xMidYMid meet" version="1.0"><defs><clipPath id="5adab39b22"><path d="M 107 263 L 337.5 263 L 337.5 298 L 107 298 Z M 107 263 " clip-rule="nonzero"/></clipPath><clipPath id="be041affd6"><path d="M 37.5 256.53125 L 84.898438 256.53125 L 84.898438 302.773438 L 37.5 302.773438 Z M 37.5 256.53125 " clip-rule="nonzero"/></clipPath><clipPath id="47c5fe1671"><path d="M 107 170 L 337.5 170 L 337.5 206 L 107 206 Z M 107 170 " clip-rule="nonzero"/></clipPath><clipPath id="13eb611d72"><path d="M 37.5 164 L 85 164 L 85 211 L 37.5 211 Z M 37.5 164 " clip-rule="nonzero"/></clipPath><clipPath id="aed3eeae07"><path d="M 107 78 L 337.5 78 L 337.5 113 L 107 113 Z M 107 78 " clip-rule="nonzero"/></clipPath><clipPath id="15a4aaf850"><path d="M 37.5 72.5625 L 85 72.5625 L 85 119 L 37.5 119 Z M 37.5 72.5625 " clip-rule="nonzero"/></clipPath></defs><g clip-path="url(#5adab39b22)"><path fill="#000000" d="M 337.5 280.21875 C 337.5 270.71875 329.808594 263.015625 320.324219 263.015625 L 124.523438 263.015625 C 115.039062 263.015625 107.347656 270.71875 107.347656 280.21875 C 107.347656 289.722656 115.039062 297.425781 124.523438 297.425781 L 320.324219 297.425781 C 329.808594 297.425781 337.5 289.722656 337.5 280.21875 " fill-opacity="1" fill-rule="nonzero"/></g><g clip-path="url(#be041affd6)"><path fill="#000000" d="M 60.402344 302.773438 L 61.546875 302.773438 C 74.195312 302.773438 84.445312 292.503906 84.445312 279.835938 C 84.445312 267.167969 74.195312 256.898438 61.546875 256.898438 L 60.402344 256.898438 C 47.753906 256.898438 37.5 267.167969 37.5 279.835938 C 37.5 292.503906 47.753906 302.773438 60.402344 302.773438 " fill-opacity="1" fill-rule="nonzero"/></g><g clip-path="url(#47c5fe1671)"><path fill="#000000" d="M 320.324219 170.691406 L 124.523438 170.691406 C 115.039062 170.691406 107.347656 178.390625 107.347656 187.894531 C 107.347656 197.398438 115.039062 205.097656 124.523438 205.097656 L 320.324219 205.097656 C 329.808594 205.097656 337.5 197.398438 337.5 187.894531 C 337.5 178.390625 329.808594 170.691406 320.324219 170.691406 " fill-opacity="1" fill-rule="nonzero"/></g><g clip-path="url(#13eb611d72)"><path fill="#000000" d="M 61.546875 164.957031 L 60.402344 164.957031 C 47.753906 164.957031 37.5 175.226562 37.5 187.894531 C 37.5 200.5625 47.753906 210.832031 60.402344 210.832031 L 61.546875 210.832031 C 74.195312 210.832031 84.445312 200.5625 84.445312 187.894531 C 84.445312 175.226562 74.195312 164.957031 61.546875 164.957031 " fill-opacity="1" fill-rule="nonzero"/></g><g clip-path="url(#aed3eeae07)"><path fill="#000000" d="M 107.347656 95.566406 C 107.347656 105.070312 115.039062 112.769531 124.523438 112.769531 L 320.324219 112.769531 C 329.808594 112.769531 337.5 105.070312 337.5 95.566406 C 337.5 86.066406 329.808594 78.363281 320.324219 78.363281 L 124.523438 78.363281 C 115.039062 78.363281 107.347656 86.066406 107.347656 95.566406 " fill-opacity="1" fill-rule="nonzero"/></g><g clip-path="url(#15a4aaf850)"><path fill="#000000" d="M 61.546875 72.628906 L 60.402344 72.628906 C 47.753906 72.628906 37.5 82.902344 37.5 95.566406 C 37.5 108.234375 47.753906 118.507812 60.402344 118.507812 L 61.546875 118.507812 C 74.195312 118.507812 84.445312 108.234375 84.445312 95.566406 C 84.445312 82.902344 74.195312 72.628906 61.546875 72.628906 " fill-opacity="1" fill-rule="nonzero"/></g></svg>