<svg xmlns="http://www.w3.org/2000/svg" xmlns:xlink="http://www.w3.org/1999/xlink" width="500" zoomAndPan="magnify" viewBox="0 0 375 374.999991" height="500" preserveAspectRatio="xMidYMid meet" version="1.0"><defs><clipPath id="9148c08d7d"><path d="M 37.5 37.5 L 337.5 37.5 L 337.5 337.5 L 37.5 337.5 Z M 37.5 37.5 " clip-rule="nonzero"/></clipPath></defs><g clip-path="url(#9148c08d7d)"><path fill="#070707" d="M 113.273438 59.195312 C 83.453125 59.195312 59.195312 83.453125 59.195312 113.273438 L 59.195312 261.722656 C 59.195312 291.539062 83.453125 315.800781 113.273438 315.800781 L 261.722656 315.800781 C 291.539062 315.800781 315.800781 291.539062 315.800781 261.722656 L 315.800781 113.273438 C 315.800781 83.453125 291.539062 59.195312 261.722656 59.195312 Z M 261.722656 337.496094 L 113.273438 337.496094 C 71.492188 337.496094 37.5 303.503906 37.5 261.722656 L 37.5 113.273438 C 37.5 71.492188 71.492188 37.5 113.273438 37.5 L 261.722656 37.5 C 303.503906 37.5 337.496094 71.492188 337.496094 113.273438 L 337.496094 261.722656 C 337.496094 303.503906 303.503906 337.496094 261.722656 337.496094 " fill-opacity="1" fill-rule="nonzero"/></g><path fill="#070707" d="M 187.5 138.222656 C 160.328125 138.222656 138.222656 160.328125 138.222656 187.5 C 138.222656 214.667969 160.328125 236.773438 187.5 236.773438 C 214.667969 236.773438 236.773438 214.667969 236.773438 187.5 C 236.773438 160.328125 214.667969 138.222656 187.5 138.222656 Z M 187.5 258.46875 C 148.363281 258.46875 116.527344 226.632812 116.527344 187.5 C 116.527344 148.363281 148.363281 116.527344 187.5 116.527344 C 226.632812 116.527344 258.46875 148.363281 258.46875 187.5 C 258.46875 226.632812 226.632812 258.46875 187.5 258.46875 " fill-opacity="1" fill-rule="nonzero"/><path fill="#070707" d="M 293.261719 103.539062 C 293.261719 115.582031 283.5 125.34375 271.457031 125.34375 C 259.414062 125.34375 249.652344 115.582031 249.652344 103.539062 C 249.652344 91.496094 259.414062 81.734375 271.457031 81.734375 C 283.5 81.734375 293.261719 91.496094 293.261719 103.539062 " fill-opacity="1" fill-rule="nonzero"/></svg>