<svg xmlns="http://www.w3.org/2000/svg" xmlns:xlink="http://www.w3.org/1999/xlink" width="500" zoomAndPan="magnify" viewBox="0 0 375 374.999991" height="500" preserveAspectRatio="xMidYMid meet" version="1.0"><defs><clipPath id="71c09ba378"><path d="M 78 37.5 L 304.296875 37.5 L 304.296875 331 L 78 331 Z M 78 37.5 " clip-rule="nonzero"/></clipPath></defs><g clip-path="url(#71c09ba378)"><path fill="#000000" d="M 274.636719 65.546875 C 265.941406 59.878906 256.589844 55.671875 246.578125 52.929688 L 216.949219 37.527344 L 207.785156 37.527344 L 207.785156 169.65625 C 206.425781 168.882812 205.046875 168.144531 203.648438 167.445312 C 202.25 166.746094 200.832031 166.085938 199.398438 165.460938 C 197.964844 164.839844 196.511719 164.257812 195.046875 163.714844 C 193.578125 163.171875 192.097656 162.667969 190.605469 162.203125 C 189.113281 161.742188 187.605469 161.320312 186.089844 160.9375 C 184.570312 160.558594 183.046875 160.21875 181.507812 159.921875 C 179.972656 159.621094 178.429688 159.367188 176.882812 159.152344 C 175.332031 158.9375 173.777344 158.769531 172.21875 158.636719 C 170.660156 158.507812 169.097656 158.421875 167.535156 158.378906 C 165.972656 158.332031 164.40625 158.332031 162.84375 158.371094 C 161.28125 158.414062 159.71875 158.496094 158.160156 158.621094 C 156.601562 158.75 155.046875 158.917969 153.496094 159.128906 C 151.945312 159.335938 150.402344 159.589844 148.867188 159.882812 C 147.328125 160.179688 145.800781 160.515625 144.285156 160.890625 C 142.765625 161.269531 141.257812 161.6875 139.765625 162.148438 C 138.269531 162.605469 136.789062 163.105469 135.320312 163.648438 C 133.851562 164.1875 132.398438 164.765625 130.964844 165.386719 C 129.527344 166.003906 128.109375 166.664062 126.710938 167.359375 C 125.308594 168.054688 123.929688 168.789062 122.570312 169.5625 C 121.207031 170.332031 119.871094 171.140625 118.554688 171.984375 C 117.238281 172.828125 115.945312 173.707031 114.675781 174.621094 C 113.410156 175.539062 112.167969 176.484375 110.949219 177.46875 C 109.734375 178.449219 108.546875 179.464844 107.386719 180.511719 C 106.222656 181.558594 105.09375 182.636719 103.988281 183.746094 C 102.886719 184.851562 101.816406 185.992188 100.777344 187.15625 C 99.738281 188.324219 98.730469 189.519531 97.753906 190.738281 C 96.78125 191.960938 95.839844 193.207031 94.933594 194.480469 C 94.027344 195.753906 93.152344 197.050781 92.316406 198.371094 C 91.480469 199.691406 90.683594 201.03125 89.917969 202.398438 C 89.15625 203.761719 88.433594 205.144531 87.746094 206.546875 C 87.058594 207.949219 86.410156 209.371094 85.800781 210.808594 C 85.191406 212.25 84.621094 213.703125 84.089844 215.171875 C 83.558594 216.640625 83.070312 218.125 82.621094 219.621094 C 82.171875 221.117188 81.761719 222.625 81.394531 224.140625 C 81.027344 225.660156 80.703125 227.1875 80.417969 228.722656 C 80.136719 230.257812 79.894531 231.800781 79.695312 233.351562 C 79.496094 234.902344 79.339844 236.453125 79.222656 238.011719 C 79.109375 239.570312 79.035156 241.128906 79.007812 242.691406 C 78.976562 244.253906 78.992188 245.8125 79.046875 247.375 C 79.101562 248.9375 79.199219 250.496094 79.339844 252.050781 C 79.480469 253.605469 79.664062 255.15625 79.890625 256.703125 C 80.113281 258.246094 80.382812 259.785156 80.691406 261.316406 C 81 262.847656 81.351562 264.371094 81.746094 265.882812 C 82.136719 267.394531 82.570312 268.894531 83.042969 270.382812 C 83.519531 271.871094 84.035156 273.34375 84.589844 274.804688 C 85.144531 276.265625 85.738281 277.710938 86.371094 279.140625 C 87.003906 280.566406 87.675781 281.976562 88.386719 283.367188 C 89.097656 284.761719 89.847656 286.132812 90.632812 287.480469 C 91.417969 288.832031 92.238281 290.160156 93.097656 291.46875 C 93.953125 292.773438 94.847656 294.054688 95.777344 295.3125 C 96.703125 296.570312 97.664062 297.800781 98.660156 299.007812 C 99.65625 300.210938 100.683594 301.390625 101.742188 302.539062 C 102.800781 303.6875 103.890625 304.808594 105.011719 305.898438 C 106.132812 306.988281 107.28125 308.046875 108.460938 309.074219 C 109.636719 310.101562 110.84375 311.09375 112.078125 312.054688 C 113.308594 313.019531 114.566406 313.945312 115.851562 314.839844 C 117.132812 315.734375 118.441406 316.589844 119.769531 317.414062 C 121.101562 318.234375 122.453125 319.019531 123.824219 319.769531 C 125.199219 320.515625 126.589844 321.226562 128 321.902344 C 129.414062 322.574219 130.84375 323.207031 132.289062 323.804688 C 133.734375 324.398438 135.195312 324.953125 136.671875 325.46875 C 138.148438 325.984375 139.640625 326.460938 141.140625 326.894531 C 142.644531 327.328125 144.160156 327.722656 145.683594 328.074219 C 147.207031 328.425781 148.738281 328.738281 150.28125 329.003906 C 151.820312 329.273438 153.367188 329.5 154.921875 329.683594 C 156.476562 329.871094 158.03125 330.011719 159.59375 330.113281 C 161.15625 330.210938 162.71875 330.269531 164.28125 330.285156 C 165.84375 330.296875 167.410156 330.269531 168.972656 330.199219 C 170.535156 330.128906 172.09375 330.015625 173.652344 329.863281 C 175.207031 329.707031 176.757812 329.507812 178.304688 329.269531 C 179.851562 329.03125 181.386719 328.746094 182.917969 328.425781 C 184.449219 328.101562 185.96875 327.738281 187.480469 327.332031 C 188.992188 326.925781 190.488281 326.476562 191.976562 325.988281 C 193.460938 325.503906 194.933594 324.972656 196.390625 324.40625 C 197.847656 323.839844 199.289062 323.230469 200.710938 322.585938 C 202.136719 321.9375 203.542969 321.253906 204.929688 320.53125 C 206.316406 319.808594 207.683594 319.050781 209.027344 318.253906 C 210.371094 317.457031 211.695312 316.621094 212.996094 315.753906 C 214.296875 314.882812 215.570312 313.980469 216.820312 313.042969 C 218.070312 312.105469 219.296875 311.132812 220.492188 310.128906 C 221.691406 309.121094 222.859375 308.085938 224 307.015625 C 225.140625 305.949219 226.253906 304.847656 227.332031 303.71875 C 228.414062 302.589844 229.464844 301.433594 230.480469 300.246094 C 231.5 299.0625 232.484375 297.847656 233.433594 296.609375 C 234.386719 295.367188 235.304688 294.105469 236.1875 292.8125 C 237.070312 291.523438 237.914062 290.210938 238.726562 288.875 C 239.539062 287.539062 240.3125 286.183594 241.046875 284.804688 C 241.785156 283.425781 242.484375 282.03125 243.144531 280.613281 C 243.804688 279.199219 244.425781 277.765625 245.007812 276.316406 C 245.589844 274.867188 246.132812 273.402344 246.632812 271.921875 C 247.136719 270.445312 247.597656 268.953125 248.019531 267.445312 C 248.441406 265.941406 248.820312 264.429688 249.160156 262.902344 C 249.496094 261.378906 249.792969 259.84375 250.046875 258.304688 C 250.300781 256.761719 250.515625 255.214844 250.683594 253.664062 C 250.855469 252.109375 250.980469 250.554688 251.066406 248.996094 C 251.152344 247.433594 251.195312 245.875 251.195312 244.3125 L 251.195312 100.753906 C 281.851562 113.925781 289.839844 120.601562 291.1875 121.875 L 303.738281 145.222656 L 304.105469 117.585938 C 304.382812 96.417969 294.195312 78.429688 274.636719 65.546875 Z M 246.78125 83.316406 L 236.871094 79.277344 L 236.871094 244.3125 C 236.871094 245.65625 236.835938 246.996094 236.757812 248.335938 C 236.683594 249.679688 236.570312 251.015625 236.417969 252.351562 C 236.269531 253.683594 236.082031 255.011719 235.855469 256.335938 C 235.628906 257.660156 235.367188 258.976562 235.066406 260.285156 C 234.769531 261.597656 234.433594 262.894531 234.058594 264.1875 C 233.6875 265.476562 233.277344 266.753906 232.832031 268.023438 C 232.386719 269.289062 231.90625 270.542969 231.390625 271.785156 C 230.875 273.023438 230.328125 274.25 229.742188 275.457031 C 229.15625 276.667969 228.539062 277.859375 227.886719 279.035156 C 227.238281 280.210938 226.550781 281.363281 225.835938 282.5 C 225.117188 283.636719 224.371094 284.753906 223.589844 285.847656 C 222.8125 286.941406 222.003906 288.011719 221.164062 289.0625 C 220.324219 290.109375 219.453125 291.136719 218.554688 292.136719 C 217.660156 293.136719 216.734375 294.109375 215.78125 295.058594 C 214.828125 296.003906 213.851562 296.925781 212.847656 297.820312 C 211.84375 298.710938 210.8125 299.578125 209.761719 300.414062 C 208.707031 301.246094 207.632812 302.054688 206.535156 302.828125 C 205.4375 303.601562 204.316406 304.347656 203.175781 305.058594 C 202.035156 305.769531 200.878906 306.449219 199.699219 307.097656 C 198.519531 307.746094 197.324219 308.359375 196.113281 308.9375 C 194.898438 309.519531 193.671875 310.0625 192.425781 310.574219 C 191.183594 311.085938 189.925781 311.5625 188.65625 312.003906 C 187.382812 312.441406 186.101562 312.847656 184.808594 313.214844 C 183.515625 313.585938 182.214844 313.917969 180.902344 314.210938 C 179.589844 314.507812 178.269531 314.765625 176.945312 314.988281 C 175.617188 315.207031 174.285156 315.390625 172.949219 315.539062 C 171.613281 315.683594 170.273438 315.792969 168.929688 315.863281 C 167.585938 315.9375 166.242188 315.96875 164.898438 315.964844 C 163.550781 315.960938 162.207031 315.917969 160.867188 315.839844 C 159.523438 315.761719 158.183594 315.644531 156.847656 315.488281 C 155.511719 315.332031 154.183594 315.140625 152.855469 314.910156 C 151.53125 314.679688 150.214844 314.414062 148.90625 314.113281 C 147.59375 313.808594 146.292969 313.46875 145.003906 313.089844 C 143.710938 312.714844 142.433594 312.300781 141.164062 311.855469 C 139.898438 311.40625 138.644531 310.921875 137.402344 310.402344 C 136.164062 309.882812 134.9375 309.332031 133.726562 308.742188 C 132.519531 308.15625 131.328125 307.535156 130.152344 306.878906 C 128.976562 306.226562 127.824219 305.539062 126.6875 304.820312 C 125.550781 304.101562 124.4375 303.347656 123.34375 302.566406 C 122.25 301.785156 121.179688 300.972656 120.132812 300.132812 C 119.085938 299.289062 118.0625 298.417969 117.0625 297.519531 C 116.066406 296.621094 115.09375 295.691406 114.144531 294.738281 C 113.199219 293.785156 112.28125 292.804688 111.390625 291.800781 C 110.496094 290.792969 109.636719 289.765625 108.800781 288.710938 C 107.96875 287.65625 107.167969 286.578125 106.394531 285.480469 C 105.621094 284.378906 104.878906 283.261719 104.171875 282.121094 C 103.460938 280.980469 102.785156 279.820312 102.140625 278.640625 C 101.496094 277.460938 100.886719 276.265625 100.308594 275.054688 C 99.730469 273.839844 99.1875 272.613281 98.683594 271.367188 C 98.175781 270.125 97.703125 268.867188 97.265625 267.597656 C 96.828125 266.328125 96.425781 265.046875 96.0625 263.753906 C 95.699219 262.460938 95.371094 261.160156 95.078125 259.847656 C 94.785156 258.539062 94.53125 257.21875 94.316406 255.894531 C 94.097656 254.570312 93.917969 253.238281 93.777344 251.902344 C 93.632812 250.566406 93.527344 249.230469 93.460938 247.886719 C 93.394531 246.546875 93.367188 245.207031 93.375 243.863281 C 93.382812 242.519531 93.429688 241.179688 93.515625 239.839844 C 93.597656 238.496094 93.71875 237.160156 93.878906 235.828125 C 94.039062 234.492188 94.238281 233.167969 94.472656 231.84375 C 94.703125 230.523438 94.976562 229.207031 95.285156 227.898438 C 95.59375 226.59375 95.9375 225.296875 96.320312 224.007812 C 96.699219 222.71875 97.117188 221.445312 97.570312 220.179688 C 98.023438 218.914062 98.511719 217.664062 99.035156 216.429688 C 99.5625 215.191406 100.117188 213.96875 100.710938 212.765625 C 101.304688 211.558594 101.929688 210.371094 102.589844 209.199219 C 103.25 208.03125 103.941406 206.878906 104.664062 205.746094 C 105.386719 204.617188 106.144531 203.503906 106.929688 202.417969 C 107.71875 201.328125 108.535156 200.261719 109.382812 199.21875 C 110.226562 198.175781 111.101562 197.15625 112.007812 196.160156 C 112.910156 195.167969 113.84375 194.199219 114.800781 193.257812 C 115.761719 192.316406 116.746094 191.402344 117.753906 190.515625 C 118.765625 189.628906 119.800781 188.769531 120.859375 187.941406 C 121.917969 187.113281 122.996094 186.316406 124.101562 185.546875 C 125.203125 184.78125 126.328125 184.042969 127.472656 183.339844 C 128.617188 182.636719 129.78125 181.964844 130.964844 181.324219 C 132.148438 180.683594 133.347656 180.078125 134.5625 179.507812 C 135.78125 178.933594 137.011719 178.398438 138.257812 177.894531 C 139.507812 177.390625 140.765625 176.925781 142.039062 176.492188 C 143.3125 176.0625 144.597656 175.664062 145.894531 175.304688 C 147.1875 174.945312 148.492188 174.621094 149.808594 174.335938 C 151.121094 174.046875 152.441406 173.800781 153.769531 173.585938 C 155.097656 173.375 156.429688 173.199219 157.769531 173.0625 C 159.105469 172.921875 160.449219 172.824219 161.792969 172.761719 C 163.132812 172.699219 164.480469 172.675781 165.824219 172.6875 C 167.167969 172.699219 168.511719 172.75 169.855469 172.839844 C 171.195312 172.929688 172.535156 173.054688 173.867188 173.21875 C 175.203125 173.382812 176.53125 173.582031 177.855469 173.820312 C 179.179688 174.058594 180.496094 174.335938 181.804688 174.648438 C 183.113281 174.960938 184.410156 175.308594 185.699219 175.691406 C 186.988281 176.078125 188.261719 176.5 189.527344 176.957031 C 190.792969 177.414062 192.042969 177.90625 193.28125 178.433594 C 194.519531 178.957031 195.738281 179.519531 196.945312 180.117188 C 198.148438 180.710938 199.335938 181.339844 200.507812 182.003906 C 201.675781 182.664062 202.828125 183.359375 203.957031 184.085938 C 205.089844 184.8125 206.199219 185.570312 207.285156 186.359375 C 208.375 187.148438 209.441406 187.96875 210.480469 188.816406 L 222.210938 198.390625 L 222.210938 56.398438 L 240.726562 66.015625 L 241.535156 66.441406 L 242.414062 66.644531 C 251.234375 69.015625 259.464844 72.703125 267.101562 77.710938 C 277.261719 84.488281 284.035156 92.671875 287.363281 102.15625 C 274.195312 95.066406 260.648438 88.785156 246.722656 83.316406 Z M 246.78125 83.316406 " fill-opacity="1" fill-rule="nonzero"/></g><path fill="#000000" d="M 165.078125 187.308594 C 163.207031 187.308594 161.34375 187.402344 159.484375 187.585938 C 157.621094 187.765625 155.773438 188.039062 153.941406 188.40625 C 152.105469 188.769531 150.296875 189.222656 148.507812 189.765625 C 146.71875 190.304688 144.960938 190.933594 143.230469 191.648438 C 141.503906 192.363281 139.816406 193.160156 138.167969 194.039062 C 136.519531 194.921875 134.917969 195.878906 133.363281 196.917969 C 131.808594 197.953125 130.308594 199.0625 128.863281 200.25 C 127.417969 201.433594 126.03125 202.683594 124.710938 204.003906 C 123.390625 205.324219 122.132812 206.707031 120.949219 208.148438 C 119.761719 209.59375 118.648438 211.089844 117.609375 212.644531 C 116.574219 214.195312 115.613281 215.792969 114.730469 217.441406 C 113.851562 219.085938 113.050781 220.773438 112.335938 222.5 C 111.621094 224.222656 110.992188 225.980469 110.449219 227.765625 C 109.90625 229.550781 109.453125 231.359375 109.085938 233.191406 C 108.722656 235.023438 108.449219 236.867188 108.265625 238.726562 C 108.082031 240.582031 107.988281 242.445312 107.988281 244.3125 C 107.988281 246.179688 108.082031 248.042969 108.265625 249.898438 C 108.449219 251.757812 108.722656 253.601562 109.085938 255.433594 C 109.453125 257.261719 109.90625 259.074219 110.449219 260.859375 C 110.992188 262.644531 111.621094 264.402344 112.335938 266.125 C 113.050781 267.851562 113.851562 269.535156 114.730469 271.183594 C 115.613281 272.828125 116.574219 274.429688 117.609375 275.980469 C 118.648438 277.53125 119.761719 279.03125 120.949219 280.472656 C 122.132812 281.917969 123.390625 283.296875 124.710938 284.617188 C 126.03125 285.9375 127.417969 287.191406 128.863281 288.375 C 130.308594 289.558594 131.808594 290.671875 133.363281 291.707031 C 134.917969 292.746094 136.519531 293.703125 138.167969 294.582031 C 139.816406 295.464844 141.503906 296.261719 143.230469 296.976562 C 144.960938 297.691406 146.71875 298.316406 148.507812 298.859375 C 150.296875 299.402344 152.105469 299.855469 153.941406 300.21875 C 155.773438 300.582031 157.621094 300.855469 159.484375 301.039062 C 161.34375 301.222656 163.207031 301.3125 165.078125 301.3125 C 166.949219 301.3125 168.8125 301.222656 170.675781 301.039062 C 172.535156 300.855469 174.382812 300.582031 176.214844 300.21875 C 178.050781 299.855469 179.859375 299.402344 181.648438 298.859375 C 183.441406 298.316406 185.199219 297.691406 186.925781 296.976562 C 188.652344 296.261719 190.339844 295.464844 191.988281 294.582031 C 193.636719 293.703125 195.242188 292.746094 196.796875 291.707031 C 198.351562 290.671875 199.851562 289.558594 201.292969 288.375 C 202.738281 287.191406 204.125 285.9375 205.445312 284.617188 C 206.769531 283.296875 208.023438 281.917969 209.207031 280.472656 C 210.394531 279.03125 211.507812 277.53125 212.546875 275.980469 C 213.585938 274.429688 214.542969 272.828125 215.425781 271.183594 C 216.308594 269.535156 217.105469 267.851562 217.820312 266.125 C 218.535156 264.402344 219.164062 262.644531 219.707031 260.859375 C 220.25 259.074219 220.707031 257.261719 221.070312 255.433594 C 221.433594 253.601562 221.707031 251.757812 221.890625 249.898438 C 222.074219 248.042969 222.167969 246.179688 222.167969 244.3125 C 222.164062 242.445312 222.070312 240.585938 221.882812 238.726562 C 221.699219 236.871094 221.421875 235.027344 221.054688 233.199219 C 220.6875 231.367188 220.234375 229.558594 219.6875 227.773438 C 219.144531 225.988281 218.515625 224.234375 217.796875 222.511719 C 217.082031 220.789062 216.28125 219.105469 215.398438 217.457031 C 214.519531 215.8125 213.558594 214.214844 212.519531 212.664062 C 211.480469 211.113281 210.367188 209.617188 209.179688 208.171875 C 207.996094 206.730469 206.742188 205.351562 205.421875 204.03125 C 204.097656 202.710938 202.714844 201.460938 201.269531 200.277344 C 199.828125 199.089844 198.328125 197.980469 196.773438 196.941406 C 195.222656 195.90625 193.621094 194.945312 191.972656 194.066406 C 190.324219 193.1875 188.636719 192.386719 186.910156 191.671875 C 185.183594 190.957031 183.429688 190.328125 181.640625 189.785156 C 179.851562 189.242188 178.042969 188.785156 176.210938 188.417969 C 174.378906 188.054688 172.53125 187.777344 170.671875 187.59375 C 168.8125 187.40625 166.949219 187.3125 165.078125 187.308594 Z M 165.078125 286.953125 C 163.679688 286.953125 162.285156 286.886719 160.890625 286.75 C 159.5 286.613281 158.117188 286.40625 156.746094 286.132812 C 155.375 285.863281 154.019531 285.523438 152.679688 285.117188 C 151.34375 284.710938 150.027344 284.242188 148.734375 283.707031 C 147.441406 283.171875 146.179688 282.578125 144.945312 281.917969 C 143.714844 281.261719 142.515625 280.542969 141.351562 279.765625 C 140.1875 278.992188 139.066406 278.160156 137.984375 277.273438 C 136.90625 276.386719 135.871094 275.453125 134.878906 274.464844 C 133.890625 273.476562 132.953125 272.441406 132.066406 271.363281 C 131.179688 270.285156 130.347656 269.164062 129.570312 268.003906 C 128.792969 266.839844 128.074219 265.644531 127.414062 264.414062 C 126.753906 263.179688 126.160156 261.921875 125.621094 260.628906 C 125.085938 259.339844 124.617188 258.027344 124.210938 256.691406 C 123.804688 255.355469 123.464844 254 123.191406 252.632812 C 122.917969 251.261719 122.714844 249.882812 122.578125 248.492188 C 122.441406 247.101562 122.371094 245.707031 122.371094 244.3125 C 122.371094 242.914062 122.441406 241.523438 122.578125 240.132812 C 122.714844 238.742188 122.917969 237.363281 123.191406 235.992188 C 123.464844 234.625 123.804688 233.269531 124.210938 231.933594 C 124.617188 230.597656 125.085938 229.285156 125.621094 227.992188 C 126.160156 226.703125 126.753906 225.441406 127.414062 224.210938 C 128.074219 222.980469 128.792969 221.78125 129.570312 220.621094 C 130.347656 219.460938 131.179688 218.339844 132.066406 217.261719 C 132.953125 216.179688 133.890625 215.148438 134.878906 214.160156 C 135.871094 213.171875 136.90625 212.234375 137.984375 211.347656 C 139.066406 210.464844 140.1875 209.632812 141.351562 208.855469 C 142.515625 208.082031 143.714844 207.363281 144.945312 206.707031 C 146.179688 206.046875 147.441406 205.449219 148.734375 204.914062 C 150.027344 204.382812 151.34375 203.910156 152.679688 203.507812 C 154.019531 203.101562 155.375 202.761719 156.746094 202.488281 C 158.117188 202.21875 159.5 202.011719 160.890625 201.875 C 162.285156 201.738281 163.679688 201.671875 165.078125 201.671875 C 166.476562 201.671875 167.871094 201.738281 169.265625 201.875 C 170.65625 202.011719 172.039062 202.21875 173.410156 202.488281 C 174.78125 202.761719 176.136719 203.101562 177.476562 203.507812 C 178.8125 203.910156 180.128906 204.382812 181.421875 204.914062 C 182.714844 205.449219 183.976562 206.046875 185.210938 206.707031 C 186.445312 207.363281 187.640625 208.082031 188.804688 208.855469 C 189.96875 209.632812 191.089844 210.464844 192.171875 211.347656 C 193.253906 212.234375 194.289062 213.171875 195.277344 214.160156 C 196.265625 215.148438 197.203125 216.179688 198.089844 217.261719 C 198.976562 218.339844 199.808594 219.460938 200.585938 220.621094 C 201.363281 221.78125 202.082031 222.980469 202.742188 224.210938 C 203.402344 225.441406 204 226.703125 204.535156 227.992188 C 205.070312 229.285156 205.539062 230.597656 205.945312 231.933594 C 206.351562 233.269531 206.691406 234.625 206.964844 235.992188 C 207.238281 237.363281 207.441406 238.742188 207.578125 240.132812 C 207.714844 241.523438 207.785156 242.914062 207.785156 244.3125 C 207.78125 245.707031 207.710938 247.101562 207.574219 248.488281 C 207.433594 249.878906 207.230469 251.257812 206.953125 252.628906 C 206.679688 253.996094 206.339844 255.347656 205.933594 256.683594 C 205.527344 258.019531 205.054688 259.332031 204.519531 260.621094 C 203.980469 261.910156 203.382812 263.171875 202.726562 264.402344 C 202.066406 265.632812 201.347656 266.828125 200.570312 267.988281 C 199.792969 269.148438 198.960938 270.269531 198.074219 271.347656 C 197.1875 272.425781 196.246094 273.460938 195.257812 274.449219 C 194.269531 275.433594 193.234375 276.371094 192.15625 277.257812 C 191.074219 278.144531 189.953125 278.972656 188.789062 279.75 C 187.628906 280.527344 186.429688 281.242188 185.199219 281.902344 C 183.964844 282.558594 182.703125 283.15625 181.414062 283.691406 C 180.121094 284.226562 178.804688 284.699219 177.46875 285.105469 C 176.132812 285.511719 174.777344 285.851562 173.40625 286.125 C 172.035156 286.398438 170.652344 286.605469 169.261719 286.742188 C 167.871094 286.882812 166.476562 286.953125 165.078125 286.953125 Z M 165.078125 286.953125 " fill-opacity="1" fill-rule="nonzero"/></svg>