<svg xmlns="http://www.w3.org/2000/svg" xmlns:xlink="http://www.w3.org/1999/xlink" width="500" zoomAndPan="magnify" viewBox="0 0 375 374.999991" height="500" preserveAspectRatio="xMidYMid meet" version="1.0"><defs><clipPath id="575c300bf1"><path d="M 37.5 86.625 L 337.5 86.625 L 337.5 288.375 L 37.5 288.375 Z M 37.5 86.625 " clip-rule="nonzero"/></clipPath></defs><g clip-path="url(#575c300bf1)"><path fill="#000000" d="M 141.898438 144.964844 C 141.898438 143.007812 142.152344 139.316406 146.84375 136.585938 C 151.023438 134.15625 159.40625 132.242188 164.539062 135.09375 L 239.820312 176.050781 C 243.683594 178.253906 247.835938 182.929688 247.785156 187.988281 C 247.75 191.289062 245.972656 194.21875 243.007812 195.828125 L 242.816406 195.941406 L 164.386719 234.777344 C 162.625 235.6875 160.578125 236.058594 158.328125 236.058594 C 153.917969 236.058594 149.386719 234.628906 146.675781 233.007812 C 142.132812 230.292969 141.898438 226.667969 141.898438 224.746094 Z M 99.117188 288.300781 L 274.3125 288.300781 C 308.402344 288.300781 337.5 258.691406 337.5 224.601562 L 337.5 143.082031 C 337.5 108.988281 308.402344 86.699219 274.3125 86.699219 L 99.117188 86.699219 C 65.027344 86.699219 37.5 108.988281 37.5 143.082031 L 37.5 224.601562 C 37.5 258.691406 65.027344 288.300781 99.117188 288.300781 " fill-opacity="1" fill-rule="nonzero"/></g></svg>