<svg xmlns="http://www.w3.org/2000/svg" xmlns:xlink="http://www.w3.org/1999/xlink" width="500" zoomAndPan="magnify" viewBox="0 0 375 374.999991" height="500" preserveAspectRatio="xMidYMid meet" version="1.0"><defs><clipPath id="51afd4c0e6"><path d="M 36.953125 37.5 L 337.703125 37.5 L 337.703125 337.5 L 36.953125 337.5 Z M 36.953125 37.5 " clip-rule="nonzero"/></clipPath></defs><g clip-path="url(#51afd4c0e6)"><path fill="#000000" d="M 338.078125 188.066406 C 338.078125 104.90625 270.671875 37.5 187.523438 37.5 C 104.375 37.5 36.957031 104.90625 36.957031 188.066406 C 36.957031 258.675781 85.566406 317.933594 151.144531 334.203125 L 151.144531 234.082031 L 120.09375 234.082031 L 120.09375 188.066406 L 151.144531 188.066406 L 151.144531 168.242188 C 151.144531 117 174.335938 93.242188 224.644531 93.242188 C 234.1875 93.242188 250.644531 95.109375 257.375 96.988281 L 257.375 138.6875 C 253.820312 138.3125 247.644531 138.121094 239.984375 138.121094 C 215.292969 138.121094 205.753906 147.472656 205.753906 171.785156 L 205.753906 188.054688 L 254.929688 188.054688 L 246.484375 234.066406 L 205.753906 234.066406 L 205.753906 337.511719 C 280.308594 328.511719 338.078125 265.027344 338.078125 188.054688 Z M 338.078125 188.066406 " fill-opacity="1" fill-rule="nonzero"/></g></svg>