<svg xmlns="http://www.w3.org/2000/svg" xmlns:xlink="http://www.w3.org/1999/xlink" width="500" zoomAndPan="magnify" viewBox="0 0 375 374.999991" height="500" preserveAspectRatio="xMidYMid meet" version="1.0"><defs><clipPath id="56879fd016"><path d="M 37.5 59.589844 L 292 59.589844 L 292 314 L 37.5 314 Z M 37.5 59.589844 " clip-rule="nonzero"/></clipPath><clipPath id="944c0e4670"><path d="M 302 280 L 337.5 280 L 337.5 315.339844 L 302 315.339844 Z M 302 280 " clip-rule="nonzero"/></clipPath></defs><path fill="#000000" d="M 322.679688 298.964844 C 325.273438 298.988281 327.398438 296.910156 327.425781 294.316406 C 327.425781 294.210938 327.425781 294.101562 327.425781 293.996094 C 327.425781 290.46875 325.296875 288.785156 320.933594 288.785156 L 313.894531 288.785156 L 313.894531 307.222656 L 316.546875 307.222656 L 316.546875 299.179688 L 319.796875 299.179688 L 319.871094 299.277344 L 324.925781 307.210938 L 327.757812 307.210938 L 322.320312 298.988281 L 322.679688 298.941406 Z M 319.621094 297.113281 L 316.546875 297.113281 L 316.546875 290.875 L 320.445312 290.875 C 322.453125 290.875 324.746094 291.210938 324.746094 293.839844 C 324.746094 296.863281 322.429688 297.113281 319.609375 297.113281 " fill-opacity="1" fill-rule="nonzero"/><g clip-path="url(#56879fd016)"><path fill="#000000" d="M 253.558594 275.855469 L 215.980469 275.855469 L 215.980469 217.027344 C 215.980469 203 215.730469 184.945312 196.441406 184.945312 C 177.148438 184.945312 173.875 200.226562 173.875 216.011719 L 173.875 275.855469 L 136.296875 275.855469 L 136.296875 154.878906 L 172.367188 154.878906 L 172.367188 171.417969 L 172.871094 171.417969 C 180.222656 158.847656 193.90625 151.332031 208.464844 151.878906 C 246.542969 151.878906 253.570312 176.925781 253.570312 209.5 L 253.570312 275.867188 Z M 93.914062 138.339844 C 81.867188 138.339844 72.113281 128.589844 72.101562 116.546875 C 72.089844 104.5 81.855469 94.75 93.902344 94.738281 C 105.949219 94.738281 115.703125 104.488281 115.714844 116.535156 C 115.726562 128.578125 105.960938 138.328125 93.914062 138.339844 M 112.703125 275.855469 L 75.089844 275.855469 L 75.089844 154.878906 L 112.703125 154.878906 Z M 272.289062 59.859375 L 56.21875 59.859375 C 45.996094 59.75 37.621094 67.921875 37.5 78.140625 L 37.5 295.070312 C 37.621094 305.289062 45.996094 313.472656 56.21875 313.367188 L 272.300781 313.367188 C 282.542969 313.496094 290.945312 305.3125 291.089844 295.070312 L 291.089844 78.117188 C 290.933594 67.886719 282.53125 59.714844 272.289062 59.847656 " fill-opacity="1" fill-rule="nonzero"/></g><g clip-path="url(#944c0e4670)"><path fill="#000000" d="M 319.941406 280.574219 C 310.390625 280.671875 302.730469 288.488281 302.816406 298.035156 C 302.910156 307.582031 310.726562 315.242188 320.277344 315.15625 C 329.828125 315.0625 337.488281 307.246094 337.40625 297.699219 C 337.308594 288.285156 329.695312 280.671875 320.277344 280.574219 L 319.941406 280.574219 M 319.941406 313.175781 C 311.5625 313.316406 304.667969 306.636719 304.523438 298.273438 C 304.378906 289.910156 311.0625 283 319.429688 282.859375 C 327.808594 282.714844 334.703125 289.394531 334.847656 297.757812 L 334.847656 298.011719 C 335.027344 306.195312 328.523438 312.984375 320.335938 313.164062 L 319.941406 313.164062 " fill-opacity="1" fill-rule="nonzero"/></g></svg>