<svg xmlns="http://www.w3.org/2000/svg" xmlns:xlink="http://www.w3.org/1999/xlink" width="500" zoomAndPan="magnify" viewBox="0 0 375 374.999991" height="500" preserveAspectRatio="xMidYMid meet" version="1.0"><defs><clipPath id="31384a0cc5"><path d="M 38.316406 37.089844 L 337.566406 37.089844 L 337.566406 337.839844 L 38.316406 337.839844 Z M 38.316406 37.089844 " clip-rule="nonzero"/></clipPath></defs><g clip-path="url(#31384a0cc5)"><path fill="#000000" d="M 293.9375 80.910156 C 265.8125 52.769531 228.40625 37.238281 188.550781 37.238281 C 106.433594 37.238281 39.597656 104.03125 39.566406 186.140625 C 39.566406 212.382812 46.421875 238.011719 59.457031 260.585938 L 38.316406 337.746094 L 117.300781 317.035156 C 139.0625 328.90625 163.5625 335.144531 188.492188 335.160156 L 188.550781 335.160156 C 270.65625 335.160156 337.507812 268.355469 337.523438 186.261719 C 337.523438 146.46875 322.0625 109.066406 293.921875 80.910156 Z M 188.550781 310.019531 L 188.507812 310.019531 C 166.296875 310.019531 144.492188 304.046875 125.476562 292.769531 L 120.957031 290.078125 L 74.085938 302.367188 L 86.585938 256.691406 L 83.644531 252.011719 C 71.246094 232.308594 64.707031 209.527344 64.71875 186.140625 C 64.75 117.910156 120.304688 62.382812 188.597656 62.382812 C 221.675781 62.382812 252.757812 75.277344 276.140625 98.683594 C 299.527344 122.070312 312.386719 153.167969 312.371094 186.246094 C 312.339844 254.492188 256.785156 310.019531 188.539062 310.019531 Z M 256.476562 217.328125 C 252.757812 215.472656 234.457031 206.46875 231.039062 205.234375 C 227.621094 203.988281 225.152344 203.378906 222.667969 207.09375 C 220.1875 210.820312 213.050781 219.203125 210.882812 221.683594 C 208.710938 224.164062 206.539062 224.476562 202.808594 222.605469 C 199.09375 220.746094 187.097656 216.808594 172.871094 204.136719 C 161.808594 194.269531 154.332031 182.085938 152.160156 178.355469 C 149.992188 174.625 151.9375 172.621094 153.796875 170.761719 C 155.460938 169.097656 157.511719 166.410156 159.386719 164.238281 C 161.242188 162.070312 161.867188 160.507812 163.101562 158.027344 C 164.351562 155.546875 163.726562 153.378906 162.789062 151.503906 C 161.855469 149.648438 154.421875 131.328125 151.3125 123.882812 C 148.296875 116.632812 145.21875 117.613281 142.945312 117.492188 C 140.773438 117.390625 138.292969 117.359375 135.808594 117.359375 C 133.324219 117.359375 129.296875 118.28125 125.878906 122.011719 C 122.460938 125.738281 112.855469 134.746094 112.855469 153.050781 C 112.855469 171.355469 126.191406 189.054688 128.0625 191.550781 C 129.921875 194.03125 154.316406 231.609375 191.660156 247.730469 C 200.535156 251.566406 207.476562 253.851562 212.886719 255.578125 C 221.808594 258.414062 229.925781 258.015625 236.332031 257.046875 C 243.480469 255.976562 258.347656 248.042969 261.453125 239.351562 C 264.5625 230.660156 264.5625 223.214844 263.625 221.652344 C 262.6875 220.09375 260.207031 219.171875 256.488281 217.300781 Z M 256.476562 217.328125 " fill-opacity="1" fill-rule="evenodd"/></g></svg>