<svg xmlns="http://www.w3.org/2000/svg" xmlns:xlink="http://www.w3.org/1999/xlink" width="500" zoomAndPan="magnify" viewBox="0 0 375 374.999991" height="500" preserveAspectRatio="xMidYMid meet" version="1.0"><defs><clipPath id="de41e21da4"><path d="M 37.5 66.816406 L 337.5 66.816406 L 337.5 324.066406 L 37.5 324.066406 Z M 37.5 66.816406 " clip-rule="nonzero"/></clipPath></defs><g clip-path="url(#de41e21da4)"><path fill="#000000" d="M 305.246094 66.816406 L 69.753906 66.816406 C 52.046875 66.816406 37.644531 81.238281 37.644531 98.972656 L 37.644531 291.910156 C 37.644531 309.640625 52.046875 324.066406 69.753906 324.066406 L 305.246094 324.066406 C 322.953125 324.066406 337.359375 309.640625 337.359375 291.910156 L 337.359375 98.972656 C 337.359375 81.238281 322.953125 66.816406 305.246094 66.816406 Z M 69.753906 88.253906 L 305.246094 88.253906 C 311.152344 88.253906 315.949219 93.058594 315.949219 98.972656 L 315.949219 109.019531 L 59.050781 109.019531 L 59.050781 98.972656 C 59.050781 93.058594 63.847656 88.253906 69.753906 88.253906 Z M 305.246094 302.628906 L 69.753906 302.628906 C 63.847656 302.628906 59.050781 297.824219 59.050781 291.910156 L 59.050781 130.457031 L 315.949219 130.457031 L 315.949219 291.910156 C 315.949219 297.824219 311.152344 302.628906 305.246094 302.628906 Z M 112.570312 238.316406 L 133.980469 238.316406 C 151.6875 238.316406 166.09375 223.890625 166.09375 206.160156 L 166.09375 184.722656 C 166.09375 166.988281 151.6875 152.566406 133.980469 152.566406 L 112.570312 152.566406 C 94.863281 152.566406 80.460938 166.988281 80.460938 184.722656 L 80.460938 206.160156 C 80.460938 223.890625 94.863281 238.316406 112.570312 238.316406 Z M 101.867188 184.722656 C 101.867188 178.808594 106.664062 174.003906 112.570312 174.003906 L 133.980469 174.003906 C 139.886719 174.003906 144.683594 178.808594 144.683594 184.722656 L 144.683594 206.160156 C 144.683594 212.074219 139.886719 216.878906 133.980469 216.878906 L 112.570312 216.878906 C 106.664062 216.878906 101.867188 212.074219 101.867188 206.160156 Z M 294.542969 174.003906 C 294.542969 179.925781 289.753906 184.722656 283.835938 184.722656 L 198.203125 184.722656 C 192.289062 184.722656 187.5 179.925781 187.5 174.003906 C 187.5 168.078125 192.289062 163.285156 198.203125 163.285156 L 283.835938 163.285156 C 289.753906 163.285156 294.542969 168.078125 294.542969 174.003906 Z M 294.542969 216.878906 C 294.542969 222.800781 289.753906 227.597656 283.835938 227.597656 L 198.203125 227.597656 C 192.289062 227.597656 187.5 222.800781 187.5 216.878906 C 187.5 210.953125 192.289062 206.160156 198.203125 206.160156 L 283.835938 206.160156 C 289.753906 206.160156 294.542969 210.953125 294.542969 216.878906 Z M 294.542969 270.472656 C 294.542969 276.394531 289.753906 281.191406 283.835938 281.191406 L 91.164062 281.191406 C 85.246094 281.191406 80.460938 276.394531 80.460938 270.472656 C 80.460938 264.546875 85.246094 259.753906 91.164062 259.753906 L 283.835938 259.753906 C 289.753906 259.753906 294.542969 264.546875 294.542969 270.472656 Z M 294.542969 270.472656 " fill-opacity="1" fill-rule="nonzero"/></g></svg>