<svg xmlns="http://www.w3.org/2000/svg" xmlns:xlink="http://www.w3.org/1999/xlink" width="500" zoomAndPan="magnify" viewBox="0 0 375 374.999991" height="500" preserveAspectRatio="xMidYMid meet" version="1.0"><defs><clipPath id="188d1e15f3"><path d="M 37.5 37.5 L 337.5 37.5 L 337.5 337.5 L 37.5 337.5 Z M 37.5 37.5 " clip-rule="nonzero"/></clipPath></defs><path fill="#000000" d="M 283.792969 187.5 C 283.792969 240.703125 240.703125 283.667969 187.625 283.667969 C 178.148438 283.667969 169.050781 282.277344 160.332031 279.75 C 162.480469 275.199219 169.050781 261.679688 170.441406 256.246094 C 171.957031 250.683594 176.378906 232.738281 176.378906 232.738281 C 182.699219 239.691406 190.28125 244.238281 199.632812 243.988281 C 234.886719 242.976562 249.167969 214.164062 251.316406 186.234375 C 253.210938 162.730469 238.804688 124.316406 189.144531 124.316406 C 143.523438 124.316406 126.96875 156.160156 123.683594 174.988281 C 120.144531 195.714844 129.875 219.597656 146.050781 220.230469 L 149.335938 207.339844 C 142.511719 199.253906 138.847656 189.394531 141.878906 174.863281 C 144.40625 162.605469 159.191406 138.972656 189.648438 139.859375 C 225.03125 140.871094 230.339844 170.441406 227.683594 187.878906 C 220.734375 233.625 194.703125 227.683594 193.820312 227.433594 C 183.835938 225.535156 181.6875 218.207031 182.066406 211.003906 C 182.445312 203.546875 188.636719 195.585938 190.660156 182.320312 C 191.921875 173.976562 190.785156 162.605469 179.664062 161.46875 C 167.785156 160.203125 162.101562 172.589844 161.214844 177.136719 C 159.066406 187.753906 160.203125 192.300781 163.109375 201.019531 C 163.109375 201.019531 154.011719 239.941406 150.472656 253.339844 C 149.335938 257.886719 148.957031 269.386719 148.832031 275.328125 C 114.964844 260.414062 91.332031 226.546875 91.332031 187.246094 C 91.332031 134.046875 134.425781 91.082031 187.5 91.082031 C 240.574219 91.332031 283.792969 134.425781 283.792969 187.5 Z M 283.792969 187.5 " fill-opacity="1" fill-rule="nonzero"/><g clip-path="url(#188d1e15f3)"><path fill="#000000" d="M 187.5 337.5 C 104.855469 337.5 37.5 270.273438 37.5 187.5 C 37.5 104.726562 104.855469 37.5 187.5 37.5 C 270.273438 37.5 337.5 104.855469 337.5 187.5 C 337.5 270.144531 270.273438 337.5 187.5 337.5 Z M 187.5 45.714844 C 109.277344 45.714844 45.714844 109.277344 45.714844 187.5 C 45.714844 265.722656 109.277344 329.285156 187.5 329.285156 C 265.722656 329.285156 329.285156 265.722656 329.285156 187.5 C 329.285156 109.277344 265.722656 45.714844 187.5 45.714844 Z M 187.5 45.714844 " fill-opacity="1" fill-rule="nonzero"/></g></svg>