<svg xmlns="http://www.w3.org/2000/svg" xmlns:xlink="http://www.w3.org/1999/xlink" width="500" zoomAndPan="magnify" viewBox="0 0 375 374.999991" height="500" preserveAspectRatio="xMidYMid meet" version="1.0"><defs><clipPath id="febc930505"><path d="M 51.375 37.5 L 323.625 37.5 L 323.625 337.5 L 51.375 337.5 Z M 51.375 37.5 " clip-rule="nonzero"/></clipPath></defs><g clip-path="url(#febc930505)"><path fill="#000000" d="M 119.285156 144.480469 L 120.308594 144.480469 C 120.308594 149.265625 120.265625 154.125 120.226562 158.808594 C 120.140625 170.320312 120.050781 182.234375 120.410156 193.945312 C 121.136719 217.355469 139.75 240.554688 161.910156 245.648438 C 170.023438 247.511719 179.015625 248.382812 190.207031 248.382812 C 192.425781 248.382812 194.710938 248.347656 197.230469 248.285156 C 201.527344 248.199219 205.761719 247.648438 209.9375 246.640625 C 214.113281 245.628906 218.132812 244.183594 221.992188 242.296875 C 229.105469 238.78125 235.226562 233.996094 240.347656 227.933594 C 242.78125 225.066406 244.9375 222.007812 246.820312 218.753906 C 248.703125 215.5 250.277344 212.101562 251.550781 208.566406 C 252.824219 205.027344 253.773438 201.40625 254.394531 197.695312 C 255.015625 193.988281 255.304688 190.257812 255.257812 186.496094 C 254.714844 159.554688 254.863281 132.136719 255.007812 105.625 L 255.050781 97.734375 C 255.085938 94.542969 254.867188 91.367188 254.394531 88.210938 C 253.921875 85.054688 253.195312 81.953125 252.226562 78.914062 C 251.253906 75.871094 250.042969 72.929688 248.597656 70.082031 C 247.152344 67.234375 245.492188 64.523438 243.609375 61.941406 C 241.726562 59.371094 239.644531 56.972656 237.371094 54.742188 C 235.09375 52.507812 232.652344 50.476562 230.042969 48.644531 C 227.4375 46.8125 224.699219 45.203125 221.828125 43.820312 C 218.957031 42.433594 215.992188 41.292969 212.9375 40.390625 C 206.691406 38.511719 200.054688 37.675781 191.417969 37.675781 C 187.359375 37.675781 183.242188 37.863281 179.261719 38.035156 L 174.269531 38.25 C 172.453125 38.332031 170.648438 38.5 168.847656 38.753906 C 167.046875 39.007812 165.265625 39.34375 163.496094 39.769531 C 161.730469 40.191406 159.988281 40.695312 158.265625 41.285156 C 156.546875 41.871094 154.859375 42.539062 153.203125 43.285156 C 151.546875 44.035156 149.929688 44.859375 148.351562 45.757812 C 146.773438 46.660156 145.238281 47.632812 143.753906 48.675781 C 142.265625 49.722656 140.832031 50.835938 139.453125 52.015625 C 138.070312 53.199219 136.75 54.441406 135.484375 55.75 C 134.222656 57.054688 133.023438 58.417969 131.890625 59.835938 C 130.753906 61.257812 129.691406 62.726562 128.695312 64.25 C 127.699219 65.769531 126.777344 67.332031 125.929688 68.941406 C 125.085938 70.546875 124.316406 72.191406 123.625 73.871094 C 122.929688 75.554688 122.320312 77.261719 121.792969 79 C 121.261719 80.738281 120.816406 82.5 120.453125 84.28125 C 120.089844 86.058594 119.808594 87.855469 119.617188 89.660156 C 119.421875 91.46875 119.316406 93.28125 119.292969 95.097656 C 119.292969 106.136719 119.292969 117.179688 119.292969 128.226562 L 119.292969 144.480469 Z M 155.636719 177.363281 C 157.214844 177.378906 158.78125 177.292969 160.347656 177.101562 C 161.117188 176.976562 161.792969 176.65625 162.371094 176.136719 C 162.621094 175.925781 162.847656 175.691406 163.046875 175.433594 C 163.246094 175.175781 163.414062 174.898438 163.550781 174.601562 C 163.6875 174.304688 163.789062 173.996094 163.859375 173.675781 C 163.929688 173.359375 163.960938 173.035156 163.960938 172.710938 C 163.957031 172.382812 163.921875 172.0625 163.847656 171.742188 C 163.773438 171.425781 163.667969 171.117188 163.523438 170.824219 C 163.382812 170.53125 163.210938 170.253906 163.011719 170 C 162.808594 169.742188 162.578125 169.511719 162.328125 169.304688 C 161.707031 168.742188 160.980469 168.429688 160.144531 168.367188 C 154.722656 168.21875 149.359375 168.191406 144.820312 168.191406 L 131.570312 168.191406 C 130.925781 168.175781 130.28125 168.121094 129.640625 168.023438 L 129.550781 168.023438 L 129.550781 151.753906 L 143.824219 151.753906 C 148.59375 151.753906 152.472656 151.753906 156.042969 151.753906 L 156.101562 151.753906 C 156.519531 151.753906 156.960938 151.753906 157.433594 151.785156 C 157.902344 151.816406 158.46875 151.832031 158.996094 151.832031 C 160.429688 151.832031 164.785156 151.832031 164.9375 147.128906 C 165.007812 146.441406 164.9375 145.773438 164.726562 145.113281 C 164.515625 144.457031 164.183594 143.871094 163.730469 143.351562 C 162.488281 142.066406 160.628906 141.90625 159.144531 141.90625 C 158.589844 141.90625 158.042969 141.90625 157.507812 141.957031 C 156.976562 142.007812 156.550781 141.996094 156.125 141.996094 L 156.015625 141.996094 C 152.523438 141.964844 148.710938 141.953125 144.007812 141.953125 L 129.453125 141.953125 L 129.453125 125.871094 L 155.476562 125.871094 C 155.855469 125.871094 156.273438 125.917969 156.726562 125.960938 C 157.226562 126.023438 157.730469 126.058594 158.234375 126.066406 C 158.9375 126.089844 159.605469 125.949219 160.238281 125.648438 C 160.875 125.308594 161.464844 124.898438 162.003906 124.417969 C 162.566406 123.933594 162.980469 123.34375 163.253906 122.65625 C 163.527344 121.964844 163.625 121.253906 163.546875 120.515625 C 163.484375 119.816406 163.257812 119.171875 162.875 118.582031 C 162.488281 117.996094 161.988281 117.53125 161.375 117.191406 C 160.851562 116.875 160.28125 116.707031 159.671875 116.679688 C 156.003906 116.558594 152.066406 116.507812 146.910156 116.507812 L 140.652344 116.507812 C 138.566406 116.507812 136.484375 116.507812 134.402344 116.507812 L 129.199219 116.507812 L 129.199219 100.0625 L 154.382812 100.0625 C 154.761719 100.0625 155.175781 100.101562 155.613281 100.132812 C 156.050781 100.164062 156.570312 100.214844 157.058594 100.214844 C 157.75 100.238281 158.417969 100.121094 159.058594 99.871094 C 159.589844 99.652344 160.097656 99.402344 160.589844 99.109375 C 161.292969 98.714844 161.84375 98.164062 162.25 97.46875 C 162.65625 96.769531 162.855469 96.019531 162.855469 95.210938 C 162.867188 94.417969 162.675781 93.671875 162.285156 92.980469 C 161.890625 92.289062 161.347656 91.746094 160.65625 91.355469 C 159.996094 90.945312 159.277344 90.707031 158.507812 90.632812 C 156.171875 90.480469 153.667969 90.410156 150.613281 90.410156 C 148.683594 90.410156 146.671875 90.410156 144.75 90.464844 C 142.992188 90.464844 141.171875 90.519531 139.398438 90.523438 L 129.441406 90.523438 C 129.441406 90.355469 129.441406 90.191406 129.441406 90.023438 C 129.460938 88.867188 129.582031 87.726562 129.808594 86.59375 C 135.597656 62.335938 153.355469 48.035156 178.464844 47.363281 C 181.523438 47.324219 183.867188 47.324219 186.070312 47.324219 C 194.773438 47.324219 201.574219 47.964844 207.476562 49.304688 C 227.84375 53.960938 241.042969 68.597656 244.78125 90.464844 L 232.558594 90.464844 C 228.246094 90.464844 224.746094 90.464844 221.542969 90.464844 L 218.648438 90.464844 C 217.023438 90.421875 215.425781 90.597656 213.851562 90.992188 C 213.066406 91.246094 212.394531 91.671875 211.835938 92.28125 C 211.382812 92.730469 211.042969 93.257812 210.816406 93.859375 C 210.59375 94.460938 210.503906 95.082031 210.550781 95.722656 C 210.59375 96.367188 210.769531 96.972656 211.078125 97.542969 C 211.382812 98.113281 211.796875 98.59375 212.3125 98.980469 C 212.980469 99.546875 213.75 99.863281 214.621094 99.933594 C 218.480469 100.050781 222.628906 100.105469 228.070312 100.105469 C 230.226562 100.105469 232.378906 100.105469 234.535156 100.105469 L 244.824219 100.105469 L 244.824219 116.566406 L 218.699219 116.566406 C 218.328125 116.566406 217.914062 116.535156 217.484375 116.496094 C 217.054688 116.457031 216.539062 116.417969 216.054688 116.417969 C 215.34375 116.394531 214.660156 116.519531 214 116.785156 C 213.40625 117.054688 212.855469 117.390625 212.34375 117.792969 C 211.820312 118.199219 211.40625 118.699219 211.101562 119.289062 C 210.796875 119.878906 210.628906 120.507812 210.601562 121.171875 C 210.574219 121.828125 210.6875 122.457031 210.941406 123.0625 C 211.195312 123.667969 211.5625 124.191406 212.050781 124.632812 C 212.664062 125.261719 213.40625 125.625 214.28125 125.730469 C 216.488281 125.890625 218.917969 125.960938 221.929688 125.960938 C 223.402344 125.960938 224.898438 125.960938 226.347656 125.960938 C 227.792969 125.960938 229.273438 125.929688 230.734375 125.929688 L 244.914062 125.929688 L 244.914062 142.007812 L 219.953125 142.007812 C 219.574219 142.007812 219.15625 141.96875 218.710938 141.925781 C 218.269531 141.878906 217.730469 141.828125 217.234375 141.828125 C 216.53125 141.804688 215.859375 141.9375 215.21875 142.226562 C 214.480469 142.59375 213.78125 143.023438 213.117188 143.515625 C 212.742188 143.792969 212.417969 144.121094 212.144531 144.5 C 211.871094 144.875 211.664062 145.289062 211.515625 145.730469 C 211.367188 146.171875 211.292969 146.625 211.285156 147.09375 C 211.277344 147.558594 211.339844 148.015625 211.472656 148.464844 C 211.609375 148.910156 211.804688 149.328125 212.066406 149.710938 C 212.328125 150.097656 212.640625 150.4375 213.007812 150.726562 C 213.371094 151.015625 213.773438 151.246094 214.210938 151.410156 C 214.644531 151.578125 215.09375 151.675781 215.5625 151.703125 C 219.871094 151.835938 224.488281 151.894531 230.527344 151.894531 L 238.195312 151.894531 C 240.378906 151.894531 242.574219 151.894531 244.785156 151.894531 L 244.785156 168.238281 L 219.832031 168.238281 C 219.386719 168.238281 218.910156 168.199219 218.417969 168.160156 C 217.921875 168.121094 217.34375 168.070312 216.796875 168.070312 C 216.070312 168.050781 215.359375 168.160156 214.671875 168.398438 C 214.265625 168.542969 213.875 168.726562 213.496094 168.9375 C 213.125 169.144531 212.789062 169.402344 212.488281 169.703125 C 212.1875 170.003906 211.933594 170.339844 211.730469 170.714844 C 211.523438 171.085938 211.375 171.480469 211.28125 171.898438 C 211.1875 172.3125 211.152344 172.730469 211.175781 173.15625 C 211.1875 173.550781 211.253906 173.9375 211.375 174.3125 C 211.496094 174.6875 211.667969 175.039062 211.890625 175.367188 C 212.113281 175.695312 212.375 175.980469 212.679688 176.234375 C 212.984375 176.484375 213.320312 176.6875 213.683594 176.84375 C 214.058594 177.011719 214.453125 177.109375 214.867188 177.144531 C 217.035156 177.300781 219.414062 177.375 222.359375 177.375 C 223.859375 177.375 225.382812 177.375 226.863281 177.339844 C 228.339844 177.300781 229.839844 177.339844 231.324219 177.339844 L 244.503906 177.339844 C 245.148438 180.761719 245.457031 184.21875 245.433594 187.703125 C 245.414062 191.1875 245.058594 194.640625 244.371094 198.058594 C 243.683594 201.472656 242.675781 204.792969 241.347656 208.015625 C 240.019531 211.238281 238.394531 214.304688 236.476562 217.214844 C 234.664062 219.925781 232.605469 222.429688 230.292969 224.726562 C 227.980469 227.027344 225.464844 229.074219 222.742188 230.867188 C 220.019531 232.664062 217.148438 234.171875 214.125 235.390625 C 211.101562 236.609375 207.988281 237.519531 204.78125 238.117188 C 199.257812 239.160156 193.683594 239.683594 188.058594 239.6875 C 180.964844 239.675781 173.964844 238.855469 167.058594 237.222656 C 147.933594 232.71875 132.492188 215.273438 130.34375 195.71875 C 129.878906 191.507812 129.636719 187.234375 129.378906 182.722656 C 129.28125 180.984375 129.179688 179.195312 129.054688 177.363281 L 149.636719 177.363281 C 150.628906 177.363281 151.636719 177.363281 152.613281 177.410156 C 153.59375 177.453125 154.628906 177.363281 155.636719 177.363281 Z M 272.269531 195.488281 C 271.160156 195.488281 270.179688 195.84375 269.324219 196.550781 C 268.699219 197.042969 268.167969 197.625 267.726562 198.285156 C 267.09375 199.429688 266.734375 200.65625 266.652344 201.964844 C 266.585938 202.554688 266.484375 203.136719 266.34375 203.714844 C 257.933594 234.914062 239.441406 253.605469 211.386719 259.25 C 203.996094 260.742188 195.714844 261.46875 186.070312 261.46875 C 182.070312 261.46875 177.710938 261.339844 172.84375 261.089844 C 152.679688 260.046875 135.910156 251.039062 123.011719 234.316406 C 115.773438 224.933594 110.996094 213.851562 107.972656 199.4375 C 107.878906 199.011719 107.722656 198.613281 107.496094 198.242188 C 107.097656 197.570312 106.558594 197.042969 105.878906 196.660156 C 105.195312 196.277344 104.464844 196.089844 103.683594 196.097656 C 103.207031 196.097656 102.738281 196.164062 102.285156 196.304688 C 101.828125 196.445312 101.402344 196.648438 101.007812 196.917969 C 100.613281 197.183594 100.269531 197.507812 99.972656 197.878906 C 99.675781 198.253906 99.441406 198.664062 99.269531 199.109375 C 99.023438 199.757812 98.882812 200.429688 98.847656 201.121094 C 98.75 204.023438 99.585938 206.910156 100.402344 209.65625 L 100.402344 209.753906 C 105.148438 225.898438 112.625 239.089844 122.707031 248.984375 C 133.164062 259.277344 146.660156 266.214844 162.816406 269.671875 C 167.203125 270.609375 171.820312 270.828125 176.238281 271.039062 C 177.902344 271.117188 179.613281 271.199219 181.3125 271.324219 L 181.3125 306.902344 C 177.847656 306.902344 174.40625 306.902344 170.984375 306.902344 C 167.179688 306.902344 163.398438 306.902344 159.636719 306.902344 C 154.101562 306.902344 149.539062 306.902344 145.28125 306.980469 C 130.761719 307.152344 120.675781 316.582031 120.199219 330.449219 C 120.109375 332.925781 120.574219 334.597656 121.652344 335.714844 C 122.734375 336.835938 124.359375 337.351562 126.886719 337.351562 L 126.945312 337.351562 C 151.535156 337.28125 175.878906 337.246094 199.296875 337.246094 C 215.335938 337.246094 231.375 337.246094 246.964844 337.292969 L 247.023438 337.292969 C 249.148438 337.292969 251.527344 337.074219 252.921875 335.441406 C 254.0625 334.121094 254.394531 332.121094 253.964844 329.15625 C 253.511719 326.082031 252.535156 323.179688 251.03125 320.460938 C 249.527344 317.738281 247.59375 315.367188 245.230469 313.347656 C 242.867188 311.320312 240.230469 309.757812 237.316406 308.664062 C 234.402344 307.566406 231.390625 307.003906 228.277344 306.972656 C 224.261719 306.933594 219.875 306.914062 214.460938 306.914062 L 191.894531 306.914062 L 191.894531 271.21875 C 192.003906 271.1875 192.113281 271.160156 192.226562 271.144531 C 193.511719 271.085938 194.800781 271.046875 196.085938 271.015625 L 196.425781 271.015625 C 208.003906 270.691406 218.710938 268.550781 228.167969 264.640625 C 233.222656 262.53125 237.996094 259.910156 242.492188 256.777344 C 246.984375 253.644531 251.097656 250.074219 254.824219 246.058594 C 266.144531 234.03125 273.386719 219.167969 276.976562 200.613281 C 277.09375 199.519531 276.828125 198.527344 276.179688 197.636719 C 275.757812 196.964844 275.199219 196.433594 274.503906 196.054688 C 273.808594 195.671875 273.0625 195.480469 272.269531 195.488281 Z M 144.878906 316.847656 L 227.84375 316.847656 C 236.636719 316.847656 240.476562 319.378906 243.28125 327.503906 L 130.953125 327.503906 C 132.921875 320.0625 137.160156 316.851562 144.878906 316.847656 Z M 76.308594 101.058594 C 55.679688 127.34375 55.804688 165.238281 76.613281 191.167969 C 76.960938 191.617188 77.175781 192.125 77.253906 192.691406 C 77.386719 193.367188 77.363281 194.039062 77.1875 194.707031 C 77.011719 195.375 76.699219 195.972656 76.253906 196.496094 C 75.925781 196.886719 75.550781 197.21875 75.128906 197.496094 C 74.703125 197.773438 74.246094 197.980469 73.757812 198.117188 C 73.269531 198.257812 72.773438 198.320312 72.265625 198.308594 C 71.761719 198.300781 71.265625 198.214844 70.785156 198.054688 C 69.882812 197.808594 69.132812 197.324219 68.539062 196.601562 C 56.988281 181.410156 51.207031 164.378906 51.375 146.074219 C 51.195312 127.640625 56.855469 110.578125 68.1875 95.355469 C 69.472656 93.597656 71.140625 91.796875 73.410156 91.796875 C 74.550781 91.832031 75.566406 92.203125 76.457031 92.910156 C 76.980469 93.25 77.414062 93.679688 77.757812 94.195312 C 78.101562 94.714844 78.328125 95.28125 78.4375 95.894531 C 78.714844 97.8125 77.488281 99.5625 76.308594 101.058594 Z M 308.296875 194.242188 C 308.15625 194.441406 308.015625 194.675781 307.859375 194.929688 C 307.414062 195.875 306.734375 196.605469 305.824219 197.121094 C 305.332031 197.332031 304.824219 197.535156 304.253906 197.765625 C 303.753906 197.9375 303.242188 198.027344 302.714844 198.027344 C 301.875 198.023438 301.09375 197.808594 300.363281 197.386719 C 299.636719 196.964844 299.0625 196.394531 298.636719 195.667969 C 298.234375 195.003906 298.023438 194.285156 298.011719 193.507812 C 298 192.730469 298.183594 192.003906 298.566406 191.328125 C 298.664062 191.152344 298.773438 190.988281 298.894531 190.832031 C 308.703125 178.007812 313.648438 163.414062 314.015625 146.222656 C 313.539062 129.382812 308.464844 114.230469 298.933594 101.199219 C 297.929688 99.832031 296.6875 97.746094 296.453125 95.59375 C 296.449219 94.660156 296.789062 93.878906 297.472656 93.246094 C 297.835938 92.847656 299.109375 91.539062 300.425781 91.539062 L 300.535156 91.539062 C 301.546875 91.628906 302.5 91.90625 303.402344 92.367188 C 304.304688 92.828125 305.089844 93.441406 305.75 94.210938 C 309.59375 99.03125 312.835938 104.226562 315.480469 109.796875 C 318.125 115.367188 320.097656 121.164062 321.398438 127.191406 C 326.78125 151.796875 322.378906 174.375 308.296875 194.242188 Z M 283.722656 113.84375 C 290.972656 120.597656 295.300781 132.664062 295.363281 146.113281 C 295.40625 148.902344 295.207031 151.679688 294.769531 154.433594 C 294.328125 157.191406 293.65625 159.890625 292.75 162.53125 C 291.84375 165.171875 290.71875 167.714844 289.371094 170.160156 C 288.027344 172.605469 286.480469 174.914062 284.734375 177.09375 L 284.574219 177.304688 C 283.464844 178.722656 282.097656 180.476562 279.992188 180.476562 C 278.804688 180.417969 277.773438 179.992188 276.894531 179.191406 C 276.34375 178.792969 275.894531 178.304688 275.546875 177.71875 C 275.203125 177.136719 274.988281 176.507812 274.90625 175.832031 C 274.757812 173.960938 275.960938 172.339844 277.15625 171.003906 C 282.300781 165.214844 285.394531 156.378906 285.609375 146.753906 C 285.808594 137.804688 283.554688 129.460938 279.601562 124.445312 C 279.285156 124.050781 278.925781 123.667969 278.539062 123.253906 C 277.515625 122.3125 276.738281 121.195312 276.21875 119.902344 C 276.042969 119.351562 275.925781 118.789062 275.863281 118.210938 C 275.785156 117.511719 275.851562 116.824219 276.066406 116.152344 C 276.277344 115.476562 276.621094 114.878906 277.09375 114.351562 C 277.550781 113.828125 278.09375 113.421875 278.726562 113.128906 C 279.359375 112.835938 280.023438 112.6875 280.71875 112.679688 C 281.394531 112.683594 282.039062 112.828125 282.648438 113.113281 C 283.046875 113.292969 283.40625 113.53125 283.722656 113.832031 Z M 97.476562 114.4375 C 97.960938 114.964844 98.316406 115.570312 98.542969 116.25 C 98.765625 116.929688 98.839844 117.628906 98.761719 118.339844 C 98.714844 119.066406 98.457031 119.710938 97.992188 120.269531 C 86.046875 133.96875 85.875 157.199219 97.613281 171.003906 C 99.089844 172.738281 99.136719 177.023438 97.703125 178.765625 C 97.34375 179.277344 96.890625 179.683594 96.34375 179.988281 C 95.796875 180.289062 95.210938 180.457031 94.589844 180.488281 C 92.519531 180.488281 91.007812 178.519531 89.898438 177.085938 L 89.855469 177.023438 C 82.78125 167.851562 79.199219 157.636719 79.101562 146.679688 C 78.875 134.980469 82.691406 124.089844 90.445312 114.316406 C 90.679688 114.027344 90.945312 113.777344 91.25 113.570312 C 92.027344 113.035156 92.882812 112.765625 93.824219 112.757812 C 94.523438 112.761719 95.191406 112.910156 95.828125 113.199219 C 96.464844 113.492188 97.015625 113.898438 97.476562 114.425781 Z M 97.476562 114.4375 " fill-opacity="1" fill-rule="nonzero"/></g></svg>