<svg xmlns="http://www.w3.org/2000/svg" xmlns:xlink="http://www.w3.org/1999/xlink" width="500" zoomAndPan="magnify" viewBox="0 0 375 374.999991" height="500" preserveAspectRatio="xMidYMid meet" version="1.0"><path fill="#000000" d="M 188.238281 139.46875 C 161.714844 139.46875 140.210938 160.972656 140.210938 187.5 C 140.210938 214.027344 161.714844 235.53125 188.238281 235.53125 C 214.765625 235.53125 236.269531 214.027344 236.269531 187.5 C 236.269531 160.972656 214.765625 139.46875 188.238281 139.46875 Z M 188.238281 139.46875 " fill-opacity="1" fill-rule="nonzero"/><path fill="#000000" d="M 138.492188 120.441406 C 142.878906 124.707031 142.980469 131.722656 138.710938 136.113281 C 111.152344 164.460938 111.152344 210.539062 138.710938 238.886719 C 142.980469 243.277344 142.878906 250.292969 138.492188 254.558594 C 134.101562 258.828125 127.085938 258.730469 122.816406 254.339844 C 86.894531 217.390625 86.894531 157.609375 122.816406 120.660156 C 127.085938 116.269531 134.101562 116.171875 138.492188 120.441406 Z M 237.988281 120.441406 C 242.375 116.171875 249.394531 116.269531 253.660156 120.660156 C 289.585938 157.609375 289.585938 217.390625 253.660156 254.339844 C 249.394531 258.730469 242.375 258.828125 237.988281 254.558594 C 233.597656 250.292969 233.5 243.277344 237.765625 238.886719 C 265.324219 210.539062 265.324219 164.460938 237.765625 136.113281 C 233.5 131.722656 233.597656 124.707031 237.988281 120.441406 Z M 237.988281 120.441406 " fill-opacity="1" fill-rule="evenodd"/><path fill="#000000" d="M 107.257812 91 C 111.585938 95.332031 111.578125 102.347656 107.246094 106.675781 C 62.527344 151.316406 62.527344 223.683594 107.246094 268.324219 C 111.578125 272.652344 111.585938 279.667969 107.257812 284 C 102.933594 288.332031 95.917969 288.339844 91.585938 284.015625 C 38.191406 230.714844 38.191406 144.285156 91.585938 90.984375 C 95.917969 86.660156 102.933594 86.667969 107.257812 91 Z M 269.21875 91 C 273.542969 86.667969 280.5625 86.660156 284.894531 90.984375 C 338.285156 144.285156 338.285156 230.714844 284.894531 284.015625 C 280.5625 288.339844 273.542969 288.332031 269.21875 284 C 264.894531 279.667969 264.898438 272.652344 269.230469 268.324219 C 313.949219 223.683594 313.949219 151.316406 269.230469 106.675781 C 264.898438 102.347656 264.894531 95.332031 269.21875 91 Z M 269.21875 91 " fill-opacity="1" fill-rule="evenodd"/></svg>