<svg xmlns="http://www.w3.org/2000/svg" xmlns:xlink="http://www.w3.org/1999/xlink" width="500" zoomAndPan="magnify" viewBox="0 0 375 374.999991" height="500" preserveAspectRatio="xMidYMid meet" version="1.0"><defs><clipPath id="51ad89672c"><path d="M 46.875 37.5 L 328.125 37.5 L 328.125 337.5 L 46.875 337.5 Z M 46.875 37.5 " clip-rule="nonzero"/></clipPath></defs><g clip-path="url(#51ad89672c)"><path fill="#000000" d="M 66.199219 177.113281 L 75.066406 177.113281 L 75.066406 308.664062 C 75.066406 324.542969 87.980469 337.460938 103.859375 337.460938 L 271.140625 337.460938 C 287.019531 337.460938 299.9375 324.542969 299.9375 308.664062 L 299.9375 177.113281 L 308.800781 177.113281 C 319.457031 177.113281 328.125 168.445312 328.125 157.789062 L 328.125 124.980469 C 328.125 114.324219 319.457031 105.65625 308.800781 105.65625 L 263.183594 105.65625 C 270.078125 101.9375 276.242188 97.078125 281.03125 90.84375 C 285.835938 84.585938 288.386719 77.210938 288.210938 70.074219 C 287.957031 60.382812 282.425781 50.652344 273.769531 44.683594 C 254.6875 31.535156 231.113281 38.769531 216.722656 48.953125 C 203.039062 58.636719 193.109375 71.371094 187.5 86.007812 C 181.886719 71.371094 171.957031 58.636719 158.273438 48.953125 C 143.878906 38.769531 120.308594 31.535156 101.226562 44.683594 C 92.574219 50.652344 87.039062 60.382812 86.789062 70.078125 C 86.609375 77.210938 89.160156 84.585938 93.96875 90.84375 C 98.757812 97.078125 104.921875 101.9375 111.816406 105.65625 L 66.199219 105.65625 C 55.542969 105.65625 46.875 114.324219 46.875 124.980469 L 46.875 157.789062 C 46.875 168.445312 55.542969 177.113281 66.199219 177.113281 Z M 85.0625 308.664062 L 85.0625 177.109375 L 182.730469 177.109375 L 182.730469 327.460938 L 103.859375 327.460938 C 93.492188 327.460938 85.0625 319.027344 85.0625 308.664062 Z M 289.9375 308.664062 C 289.9375 319.027344 281.507812 327.460938 271.140625 327.460938 L 192.730469 327.460938 L 192.730469 177.113281 L 289.9375 177.113281 Z M 308.800781 115.652344 C 313.941406 115.652344 318.128906 119.835938 318.128906 124.980469 L 318.128906 157.789062 C 318.128906 162.929688 313.941406 167.113281 308.800781 167.113281 L 192.730469 167.113281 L 192.730469 115.652344 L 212.277344 115.652344 C 212.375 115.664062 212.46875 115.691406 212.566406 115.699219 C 216.558594 115.917969 220.773438 115.90625 225.085938 115.652344 Z M 222.496094 57.117188 C 234.269531 48.789062 253.269531 42.699219 268.09375 52.914062 C 274.171875 57.101562 278.046875 63.773438 278.210938 70.328125 C 278.335938 75.183594 276.519531 80.304688 273.101562 84.753906 C 262.375 98.714844 242.292969 104.539062 224.726562 105.65625 L 192.816406 105.65625 C 195.320312 86.085938 205.695312 69.003906 222.496094 57.117188 Z M 101.898438 84.753906 C 98.480469 80.308594 96.664062 75.183594 96.785156 70.332031 C 96.953125 63.777344 100.828125 57.101562 106.90625 52.914062 C 121.726562 42.695312 140.734375 48.789062 152.503906 57.117188 C 169.304688 69.003906 179.679688 86.089844 182.183594 105.65625 L 150.25 105.65625 C 132.683594 104.539062 112.625 98.714844 101.898438 84.753906 Z M 56.871094 124.980469 C 56.871094 119.835938 61.058594 115.652344 66.199219 115.652344 L 149.917969 115.652344 C 154.226562 115.902344 158.441406 115.917969 162.429688 115.699219 C 162.53125 115.691406 162.625 115.664062 162.722656 115.652344 L 182.730469 115.652344 L 182.730469 167.113281 L 66.199219 167.113281 C 61.058594 167.113281 56.871094 162.929688 56.871094 157.789062 C 56.871094 157.789062 56.871094 124.980469 56.871094 124.980469 Z M 56.871094 124.980469 " fill-opacity="1" fill-rule="nonzero"/></g></svg>