<svg xmlns="http://www.w3.org/2000/svg" xmlns:xlink="http://www.w3.org/1999/xlink" width="500" zoomAndPan="magnify" viewBox="0 0 375 374.999991" height="500" preserveAspectRatio="xMidYMid meet" version="1.0"><defs><clipPath id="f0d421781d"><path d="M 37.5 37.5 L 337.5 37.5 L 337.5 337.5 L 37.5 337.5 Z M 37.5 37.5 " clip-rule="nonzero"/></clipPath></defs><g clip-path="url(#f0d421781d)"><path fill="#000000" d="M 337.5 187.5 C 337.5 270.328125 270.328125 337.5 187.5 337.5 C 104.671875 337.5 37.5 270.328125 37.5 187.5 C 37.5 104.683594 104.671875 37.5 187.5 37.5 C 270.328125 37.5 337.5 104.683594 337.5 187.5 Z M 50.820312 180.925781 L 102.628906 180.925781 C 103.105469 161.460938 105.691406 142.125 110.378906 124.136719 C 99.050781 118.980469 88.261719 112.640625 78.25 105.113281 C 62.175781 126.398438 52.164062 152.523438 50.820312 180.925781 Z M 115.789062 180.925781 L 180.925781 180.925781 L 180.925781 140.5 C 161.003906 139.820312 141.25 136.019531 122.644531 129.164062 C 118.523438 145.574219 116.234375 163.1875 115.789062 180.925781 Z M 194.085938 180.925781 L 259.222656 180.925781 C 258.765625 163.1875 256.484375 145.574219 252.367188 129.164062 C 233.75 136.019531 213.996094 139.820312 194.085938 140.5 Z M 272.371094 180.925781 L 324.179688 180.925781 C 322.835938 152.523438 312.832031 126.398438 296.75 105.113281 C 286.738281 112.640625 275.949219 118.980469 264.621094 124.136719 C 269.316406 142.125 271.894531 161.460938 272.371094 180.925781 Z M 324.179688 194.085938 L 272.371094 194.085938 C 271.894531 213.550781 269.316406 232.875 264.628906 250.871094 C 275.949219 256.019531 286.738281 262.371094 296.75 269.898438 C 312.832031 248.613281 322.835938 222.488281 324.179688 194.085938 Z M 259.222656 194.085938 L 194.085938 194.085938 L 194.085938 234.507812 C 214.015625 235.191406 233.761719 238.980469 252.367188 245.835938 C 256.484375 229.425781 258.765625 211.820312 259.222656 194.085938 Z M 180.925781 194.085938 L 115.789062 194.085938 C 116.246094 211.972656 118.5625 229.726562 122.746094 246.25 C 141.285156 239.28125 160.871094 235.238281 180.925781 234.507812 Z M 102.628906 194.085938 L 50.820312 194.085938 C 52.171875 222.515625 62.195312 248.675781 78.316406 269.972656 C 88.488281 262.722656 99.265625 256.484375 110.5 251.347656 C 105.726562 233.21875 103.105469 213.71875 102.628906 194.085938 Z M 288.351562 279.976562 C 279.742188 273.566406 270.53125 268.09375 260.882812 263.582031 C 254.496094 282.9375 244.59375 302.886719 230.203125 317.539062 C 252.730469 310.144531 272.679688 297.058594 288.351562 279.976562 Z M 248.742188 258.484375 C 231.324219 251.972656 212.792969 248.359375 194.085938 247.675781 L 194.085938 323.75 C 222.449219 318.660156 240.550781 283.824219 248.742188 258.484375 Z M 180.925781 247.675781 C 162.085938 248.414062 143.742188 252.273438 126.398438 258.894531 C 134.617188 284.113281 152.679688 318.679688 180.925781 323.75 Z M 114.273438 264.050781 C 104.710938 268.550781 95.5 273.914062 86.75 280.078125 C 102.402344 297.105469 122.316406 310.160156 144.796875 317.539062 C 130.527344 303.007812 120.664062 283.242188 114.273438 264.050781 Z M 86.65625 95.023438 C 95.269531 101.449219 104.484375 106.914062 114.125 111.433594 C 120.515625 92.074219 130.40625 72.125 144.796875 57.46875 C 122.269531 64.867188 102.328125 77.953125 86.65625 95.023438 Z M 126.257812 116.535156 C 143.675781 123.042969 162.199219 126.648438 180.925781 127.332031 L 180.925781 51.257812 C 152.550781 56.347656 134.449219 91.195312 126.257812 116.535156 Z M 194.085938 127.332031 C 212.8125 126.648438 231.332031 123.042969 248.742188 116.535156 C 240.550781 91.195312 222.449219 56.347656 194.085938 51.257812 Z M 260.882812 111.433594 C 270.523438 106.914062 279.730469 101.449219 288.351562 95.023438 C 272.679688 77.953125 252.730469 64.867188 230.203125 57.46875 C 244.59375 72.125 254.496094 92.074219 260.882812 111.433594 Z M 260.882812 111.433594 " fill-opacity="1" fill-rule="nonzero"/></g></svg>