<svg xmlns="http://www.w3.org/2000/svg" xmlns:xlink="http://www.w3.org/1999/xlink" width="500" zoomAndPan="magnify" viewBox="0 0 375 374.999991" height="500" preserveAspectRatio="xMidYMid meet" version="1.0"><defs><clipPath id="bb3ae03919"><path d="M 42.40625 37.5 L 325.90625 37.5 L 325.90625 337.5 L 42.40625 337.5 Z M 42.40625 37.5 " clip-rule="nonzero"/></clipPath></defs><path fill="#000000" d="M 202.796875 66.167969 L 188.488281 58.046875 C 186.441406 56.875 183.882812 56.875 181.828125 58.046875 L 167.527344 66.167969 C 165.425781 67.363281 164.117188 69.613281 164.117188 72.035156 L 164.117188 96.632812 C 164.117188 100.351562 167.144531 103.375 170.863281 103.375 L 199.460938 103.375 C 203.179688 103.375 206.203125 100.351562 206.203125 96.632812 L 206.203125 72.035156 C 206.203125 69.613281 204.898438 67.363281 202.796875 66.167969 Z M 197.433594 94.601562 L 172.890625 94.601562 L 172.890625 73.210938 L 185.160156 66.242188 L 197.433594 73.210938 Z M 197.433594 94.601562 " fill-opacity="1" fill-rule="nonzero"/><g clip-path="url(#bb3ae03919)"><path fill="#000000" d="M 325.902344 222.988281 L 325.902344 170.203125 C 325.902344 161.339844 318.691406 154.121094 309.820312 154.121094 L 288.824219 154.121094 L 288.824219 149.363281 C 288.824219 140.800781 281.859375 133.835938 273.296875 133.835938 L 188.542969 133.835938 L 188.542969 122.746094 L 211.550781 122.746094 C 220.421875 122.746094 227.628906 115.527344 227.628906 106.664062 L 227.628906 53.878906 C 227.628906 45.015625 220.421875 37.796875 211.550781 37.796875 L 158.773438 37.796875 C 149.902344 37.796875 142.691406 45.015625 142.691406 53.878906 L 142.691406 106.664062 C 142.691406 115.527344 149.902344 122.746094 158.773438 122.746094 L 179.769531 122.746094 L 179.769531 133.835938 L 97.023438 133.835938 C 88.464844 133.835938 81.5 140.800781 81.5 149.363281 L 81.5 154.121094 L 58.492188 154.121094 C 49.621094 154.121094 42.410156 161.339844 42.410156 170.203125 L 42.410156 181.460938 C 42.410156 183.882812 44.375 185.847656 46.796875 185.847656 C 49.21875 185.847656 51.183594 183.882812 51.183594 181.460938 L 51.183594 170.203125 C 51.183594 166.175781 54.453125 162.894531 58.492188 162.894531 L 111.269531 162.894531 C 115.308594 162.894531 118.578125 166.175781 118.578125 170.203125 L 118.578125 222.988281 C 118.578125 227.019531 115.308594 230.296875 111.269531 230.296875 L 58.492188 230.296875 C 54.453125 230.296875 51.183594 227.019531 51.183594 222.988281 L 51.183594 202.503906 C 51.183594 200.082031 49.21875 198.117188 46.796875 198.117188 C 44.375 198.117188 42.410156 200.082031 42.410156 202.503906 L 42.410156 222.988281 C 42.410156 231.851562 49.621094 239.070312 58.492188 239.070312 L 111.269531 239.070312 C 120.140625 239.070312 127.351562 231.851562 127.351562 222.988281 L 127.351562 170.203125 C 127.351562 161.339844 120.140625 154.121094 111.269531 154.121094 L 90.273438 154.121094 L 90.273438 149.363281 C 90.273438 145.632812 93.296875 142.609375 97.023438 142.609375 L 179.769531 142.609375 L 179.769531 154.121094 L 157.769531 154.121094 C 148.894531 154.121094 141.6875 161.339844 141.6875 170.203125 L 141.6875 222.988281 C 141.6875 231.851562 148.894531 239.070312 157.769531 239.070312 L 179.90625 239.070312 C 179.816406 239.40625 179.769531 239.765625 179.769531 240.128906 L 179.769531 252.253906 L 157.769531 252.253906 C 148.894531 252.253906 141.6875 259.472656 141.6875 268.335938 L 141.6875 321.121094 C 141.6875 329.984375 148.894531 337.203125 157.769531 337.203125 L 210.542969 337.203125 C 219.417969 337.203125 226.625 329.984375 226.625 321.121094 L 226.625 268.335938 C 226.625 259.472656 219.417969 252.253906 210.542969 252.253906 L 188.542969 252.253906 L 188.542969 240.128906 C 188.542969 239.765625 188.496094 239.40625 188.40625 239.070312 L 210.542969 239.070312 C 219.417969 239.070312 226.625 231.851562 226.625 222.988281 L 226.625 170.203125 C 226.625 161.339844 219.417969 154.121094 210.542969 154.121094 L 188.542969 154.121094 L 188.542969 142.609375 L 273.296875 142.609375 C 277.027344 142.609375 280.050781 145.632812 280.050781 149.363281 L 280.050781 154.121094 L 257.042969 154.121094 C 248.171875 154.121094 240.960938 161.339844 240.960938 170.203125 L 240.960938 222.988281 C 240.960938 231.851562 248.171875 239.070312 257.042969 239.070312 L 280.1875 239.070312 C 280.097656 239.40625 280.050781 239.765625 280.050781 240.128906 L 280.050781 252.253906 L 257.042969 252.253906 C 248.171875 252.253906 240.960938 259.472656 240.960938 268.335938 L 240.960938 321.121094 C 240.960938 329.984375 248.171875 337.203125 257.042969 337.203125 L 309.820312 337.203125 C 318.691406 337.203125 325.902344 329.984375 325.902344 321.121094 L 325.902344 317.4375 C 325.902344 315.019531 323.945312 313.054688 321.515625 313.054688 C 319.09375 313.054688 317.128906 315.019531 317.128906 317.4375 L 317.128906 321.121094 C 317.128906 325.152344 313.859375 328.429688 309.820312 328.429688 L 257.042969 328.429688 C 253.003906 328.429688 249.734375 325.152344 249.734375 321.121094 L 249.734375 268.335938 C 249.734375 264.308594 253.003906 261.027344 257.042969 261.027344 L 309.820312 261.027344 C 313.859375 261.027344 317.128906 264.308594 317.128906 268.335938 L 317.128906 296.972656 C 317.128906 299.394531 319.09375 301.359375 321.515625 301.359375 C 323.945312 301.359375 325.902344 299.394531 325.902344 296.972656 L 325.902344 268.335938 C 325.902344 259.472656 318.691406 252.253906 309.820312 252.253906 L 288.824219 252.253906 L 288.824219 240.128906 C 288.824219 239.765625 288.777344 239.40625 288.683594 239.070312 L 309.820312 239.070312 C 318.691406 239.070312 325.902344 231.851562 325.902344 222.988281 Z M 151.464844 106.664062 L 151.464844 53.878906 C 151.464844 49.847656 154.734375 46.570312 158.773438 46.570312 L 211.550781 46.570312 C 215.578125 46.570312 218.859375 49.847656 218.859375 53.878906 L 218.859375 106.664062 C 218.859375 110.691406 215.578125 113.972656 211.550781 113.972656 L 158.773438 113.972656 C 154.734375 113.972656 151.464844 110.691406 151.464844 106.664062 Z M 217.855469 268.335938 L 217.855469 321.121094 C 217.855469 325.152344 214.582031 328.429688 210.542969 328.429688 L 157.769531 328.429688 C 153.730469 328.429688 150.457031 325.152344 150.457031 321.121094 L 150.457031 268.335938 C 150.457031 264.308594 153.730469 261.027344 157.769531 261.027344 L 210.542969 261.027344 C 214.582031 261.027344 217.855469 264.308594 217.855469 268.335938 Z M 217.855469 170.203125 L 217.855469 222.988281 C 217.855469 227.019531 214.582031 230.296875 210.542969 230.296875 L 157.769531 230.296875 C 153.730469 230.296875 150.457031 227.019531 150.457031 222.988281 L 150.457031 170.203125 C 150.457031 166.175781 153.730469 162.894531 157.769531 162.894531 L 210.542969 162.894531 C 214.582031 162.894531 217.855469 166.175781 217.855469 170.203125 Z M 249.734375 222.988281 L 249.734375 170.203125 C 249.734375 166.175781 253.015625 162.894531 257.042969 162.894531 L 309.820312 162.894531 C 313.859375 162.894531 317.128906 166.175781 317.128906 170.203125 L 317.128906 222.988281 C 317.128906 227.019531 313.859375 230.296875 309.820312 230.296875 L 257.042969 230.296875 C 253.015625 230.296875 249.734375 227.019531 249.734375 222.988281 Z M 249.734375 222.988281 " fill-opacity="1" fill-rule="nonzero"/></g><path fill="#000000" d="M 108.21875 186.019531 C 108.21875 183.597656 106.253906 181.632812 103.832031 181.632812 L 65.929688 181.632812 C 63.507812 181.632812 61.546875 183.597656 61.546875 186.019531 C 61.546875 188.449219 63.507812 190.40625 65.929688 190.40625 L 103.832031 190.40625 C 106.253906 190.40625 108.21875 188.449219 108.21875 186.019531 Z M 108.21875 186.019531 " fill-opacity="1" fill-rule="nonzero"/><path fill="#000000" d="M 74.355469 202.785156 C 71.933594 202.785156 69.96875 204.75 69.96875 207.171875 C 69.96875 209.59375 71.933594 211.558594 74.355469 211.558594 L 95.40625 211.558594 C 97.835938 211.558594 99.792969 209.59375 99.792969 207.171875 C 99.792969 204.75 97.835938 202.785156 95.40625 202.785156 Z M 74.355469 202.785156 " fill-opacity="1" fill-rule="nonzero"/><path fill="#000000" d="M 165.207031 190.40625 L 203.105469 190.40625 C 205.527344 190.40625 207.492188 188.449219 207.492188 186.019531 C 207.492188 183.597656 205.527344 181.632812 203.105469 181.632812 L 165.207031 181.632812 C 162.785156 181.632812 160.820312 183.597656 160.820312 186.019531 C 160.820312 188.449219 162.785156 190.40625 165.207031 190.40625 Z M 165.207031 190.40625 " fill-opacity="1" fill-rule="nonzero"/><path fill="#000000" d="M 194.683594 202.785156 L 173.628906 202.785156 C 171.207031 202.785156 169.246094 204.75 169.246094 207.171875 C 169.246094 209.59375 171.207031 211.558594 173.628906 211.558594 L 194.683594 211.558594 C 197.113281 211.558594 199.066406 209.59375 199.066406 207.171875 C 199.066406 204.75 197.105469 202.785156 194.683594 202.785156 Z M 194.683594 202.785156 " fill-opacity="1" fill-rule="nonzero"/><path fill="#000000" d="M 302.382812 181.632812 L 264.480469 181.632812 C 262.058594 181.632812 260.09375 183.597656 260.09375 186.019531 C 260.09375 188.449219 262.058594 190.40625 264.480469 190.40625 L 302.382812 190.40625 C 304.804688 190.40625 306.769531 188.449219 306.769531 186.019531 C 306.769531 183.597656 304.804688 181.632812 302.382812 181.632812 Z M 302.382812 181.632812 " fill-opacity="1" fill-rule="nonzero"/><path fill="#000000" d="M 293.957031 202.785156 L 272.90625 202.785156 C 270.484375 202.785156 268.519531 204.75 268.519531 207.171875 C 268.519531 209.59375 270.484375 211.558594 272.90625 211.558594 L 293.957031 211.558594 C 296.386719 211.558594 298.34375 209.59375 298.34375 207.171875 C 298.34375 204.75 296.386719 202.785156 293.957031 202.785156 Z M 293.957031 202.785156 " fill-opacity="1" fill-rule="nonzero"/><path fill="#000000" d="M 160.820312 284.152344 C 160.820312 286.582031 162.785156 288.539062 165.207031 288.539062 L 203.105469 288.539062 C 205.527344 288.539062 207.492188 286.582031 207.492188 284.152344 C 207.492188 281.730469 205.527344 279.765625 203.105469 279.765625 L 165.207031 279.765625 C 162.785156 279.765625 160.820312 281.730469 160.820312 284.152344 Z M 160.820312 284.152344 " fill-opacity="1" fill-rule="nonzero"/><path fill="#000000" d="M 194.683594 300.917969 L 173.628906 300.917969 C 171.207031 300.917969 169.246094 302.882812 169.246094 305.304688 C 169.246094 307.726562 171.207031 309.691406 173.628906 309.691406 L 194.683594 309.691406 C 197.113281 309.691406 199.066406 307.726562 199.066406 305.304688 C 199.066406 302.882812 197.105469 300.917969 194.683594 300.917969 Z M 194.683594 300.917969 " fill-opacity="1" fill-rule="nonzero"/><path fill="#000000" d="M 306.769531 284.152344 C 306.769531 281.730469 304.804688 279.765625 302.382812 279.765625 L 264.480469 279.765625 C 262.058594 279.765625 260.09375 281.730469 260.09375 284.152344 C 260.09375 286.582031 262.058594 288.539062 264.480469 288.539062 L 302.382812 288.539062 C 304.804688 288.539062 306.769531 286.582031 306.769531 284.152344 Z M 306.769531 284.152344 " fill-opacity="1" fill-rule="nonzero"/><path fill="#000000" d="M 272.90625 300.917969 C 270.484375 300.917969 268.519531 302.882812 268.519531 305.304688 C 268.519531 307.726562 270.484375 309.691406 272.90625 309.691406 L 293.957031 309.691406 C 296.386719 309.691406 298.34375 307.726562 298.34375 305.304688 C 298.34375 302.882812 296.386719 300.917969 293.957031 300.917969 Z M 272.90625 300.917969 " fill-opacity="1" fill-rule="nonzero"/></svg>