<svg xmlns="http://www.w3.org/2000/svg" xmlns:xlink="http://www.w3.org/1999/xlink" width="500" zoomAndPan="magnify" viewBox="0 0 375 374.999991" height="500" preserveAspectRatio="xMidYMid meet" version="1.0"><defs><clipPath id="4996feb443"><path d="M 39 53.625 L 336 53.625 L 336 321 L 39 321 Z M 39 53.625 " clip-rule="nonzero"/></clipPath></defs><g clip-path="url(#4996feb443)"><path fill="#000000" d="M 224.835938 66.425781 C 226.269531 59.128906 232.699219 53.625 240.414062 53.625 C 249.183594 53.625 256.289062 60.730469 256.289062 69.5 L 256.289062 138.726562 C 271.304688 141.246094 282.746094 154.304688 282.746094 170.039062 C 282.746094 185.769531 271.304688 198.828125 256.289062 201.347656 L 256.289062 270.578125 C 256.289062 279.34375 249.183594 286.449219 240.414062 286.449219 C 232.699219 286.449219 226.269531 280.945312 224.835938 273.652344 L 195.792969 254.914062 C 179.925781 244.675781 162.914062 236.496094 145.167969 230.511719 L 145.167969 233.535156 C 145.167969 242.304688 138.058594 249.410156 129.292969 249.410156 L 128.273438 249.410156 L 141.710938 295.105469 C 144.300781 303.90625 140.617188 313.34375 132.75 318.066406 C 121.386719 324.882812 106.652344 319.0625 103.011719 306.324219 L 77.90625 218.453125 L 75.355469 218.289062 C 67.003906 217.75 60.503906 210.820312 60.503906 202.449219 L 60.503906 201.785156 L 55.210938 201.785156 C 46.445312 201.785156 39.339844 194.679688 39.339844 185.914062 L 39.339844 154.164062 C 39.339844 145.398438 46.445312 138.289062 55.210938 138.289062 L 60.503906 138.289062 L 60.503906 137.628906 C 60.503906 129.257812 67.003906 122.324219 75.355469 121.785156 L 87.089844 121.03125 C 125.789062 118.53125 163.207031 106.1875 195.792969 85.164062 Z M 224.539062 79.210938 L 203.375 92.867188 L 203.375 247.210938 L 224.539062 260.867188 Z M 192.792969 240.644531 L 192.792969 99.429688 C 163.628906 116.515625 131.15625 127.195312 97.542969 130.757812 L 97.542969 209.316406 C 131.15625 212.882812 163.628906 223.5625 192.792969 240.644531 Z M 89.121094 219.1875 L 113.1875 303.414062 C 114.914062 309.464844 121.910156 312.226562 127.304688 308.988281 C 131.039062 306.75 132.789062 302.269531 131.558594 298.089844 L 109.042969 221.539062 C 102.453125 220.464844 95.808594 219.675781 89.121094 219.1875 Z M 120.726562 223.757812 L 125.160156 238.828125 L 129.292969 238.828125 C 132.214844 238.828125 134.585938 236.457031 134.585938 233.535156 L 134.585938 228.246094 C 134.585938 227.90625 134.617188 227.574219 134.679688 227.25 C 130.066406 225.941406 125.414062 224.777344 120.726562 223.757812 Z M 86.960938 208.433594 L 86.960938 131.644531 L 76.039062 132.347656 C 73.253906 132.527344 71.085938 134.839844 71.085938 137.628906 L 71.085938 202.449219 C 71.085938 205.238281 73.253906 207.546875 76.039062 207.726562 Z M 60.503906 191.203125 L 60.503906 148.871094 L 55.210938 148.871094 C 52.289062 148.871094 49.921875 151.242188 49.921875 154.164062 L 49.921875 185.914062 C 49.921875 188.835938 52.289062 191.203125 55.210938 191.203125 Z M 256.289062 190.539062 C 265.417969 188.1875 272.164062 179.898438 272.164062 170.039062 C 272.164062 160.175781 265.417969 151.886719 256.289062 149.539062 Z M 245.707031 270.578125 C 245.707031 273.5 243.335938 275.867188 240.414062 275.867188 C 237.492188 275.867188 235.125 273.5 235.125 270.578125 L 235.125 69.5 C 235.125 66.578125 237.492188 64.207031 240.414062 64.207031 C 243.335938 64.207031 245.707031 66.578125 245.707031 69.5 Z M 312.945312 102.796875 C 315.011719 104.863281 315.011719 108.214844 312.945312 110.28125 L 291.78125 131.449219 C 289.714844 133.515625 286.363281 133.515625 284.296875 131.449219 C 282.230469 129.382812 282.230469 126.03125 284.296875 123.964844 L 305.460938 102.796875 C 307.527344 100.730469 310.878906 100.730469 312.945312 102.796875 Z M 293.328125 170.039062 C 293.328125 167.117188 295.699219 164.746094 298.621094 164.746094 L 330.371094 164.746094 C 333.292969 164.746094 335.660156 167.117188 335.660156 170.039062 C 335.660156 172.960938 333.292969 175.328125 330.371094 175.328125 L 298.621094 175.328125 C 295.699219 175.328125 293.328125 172.960938 293.328125 170.039062 Z M 284.296875 208.628906 C 286.363281 206.5625 289.714844 206.5625 291.78125 208.628906 L 312.945312 229.792969 C 315.011719 231.859375 315.011719 235.210938 312.945312 237.277344 C 310.878906 239.34375 307.527344 239.34375 305.460938 237.277344 L 284.296875 216.113281 C 282.230469 214.046875 282.230469 210.695312 284.296875 208.628906 Z M 284.296875 208.628906 " fill-opacity="1" fill-rule="evenodd"/></g></svg>