<svg xmlns="http://www.w3.org/2000/svg" xmlns:xlink="http://www.w3.org/1999/xlink" width="500" zoomAndPan="magnify" viewBox="0 0 375 374.999991" height="500" preserveAspectRatio="xMidYMid meet" version="1.0"><defs><clipPath id="6f1f4dc61f"><path d="M 37.347656 37.5 L 337.875 37.5 L 337.875 337.5 L 37.347656 337.5 Z M 37.347656 37.5 " clip-rule="nonzero"/></clipPath></defs><path fill="#000000" d="M 309.46875 281.75 C 311.203125 279.964844 314.058594 279.925781 315.84375 281.664062 C 317.628906 283.398438 317.667969 286.253906 315.929688 288.039062 L 294.289062 310.285156 C 293.4375 311.15625 292.273438 311.648438 291.054688 311.648438 C 289.839844 311.648438 288.671875 311.15625 287.824219 310.285156 L 275.199219 297.308594 C 273.460938 295.523438 273.5 292.667969 275.285156 290.929688 C 277.070312 289.195312 279.925781 289.234375 281.664062 291.019531 L 291.054688 300.671875 Z M 309.46875 281.75 " fill-opacity="1" fill-rule="nonzero"/><path fill="#000000" d="M 154.882812 300.226562 C 157.375 300.226562 159.394531 302.246094 159.394531 304.734375 C 159.394531 307.226562 157.375 309.242188 154.882812 309.242188 L 120.015625 309.242188 C 117.523438 309.242188 115.503906 307.226562 115.503906 304.734375 C 115.503906 302.246094 117.523438 300.226562 120.015625 300.226562 Z M 154.882812 300.226562 " fill-opacity="1" fill-rule="nonzero"/><path fill="#000000" d="M 191.558594 282.1875 C 194.046875 282.1875 196.066406 284.207031 196.066406 286.699219 C 196.066406 289.1875 194.046875 291.207031 191.558594 291.207031 L 119.714844 291.207031 C 117.222656 291.207031 115.203125 289.1875 115.203125 286.699219 C 115.203125 284.207031 117.222656 282.1875 119.714844 282.1875 Z M 191.558594 282.1875 " fill-opacity="1" fill-rule="nonzero"/><path fill="#000000" d="M 184.945312 181.789062 C 187.433594 181.789062 189.453125 183.808594 189.453125 186.296875 C 189.453125 188.789062 187.433594 190.804688 184.945312 190.804688 L 150.074219 190.804688 C 147.585938 190.804688 145.566406 188.789062 145.566406 186.296875 C 145.566406 183.808594 147.585938 181.789062 150.074219 181.789062 Z M 184.945312 181.789062 " fill-opacity="1" fill-rule="nonzero"/><path fill="#000000" d="M 221.617188 163.753906 C 224.109375 163.753906 226.125 165.769531 226.125 168.261719 C 226.125 170.75 224.109375 172.769531 221.617188 172.769531 L 149.773438 172.769531 C 147.285156 172.769531 145.265625 170.75 145.265625 168.261719 C 145.265625 165.769531 147.285156 163.753906 149.773438 163.753906 Z M 221.617188 163.753906 " fill-opacity="1" fill-rule="nonzero"/><path fill="#000000" d="M 197.269531 72.972656 C 199.757812 72.972656 201.777344 74.988281 201.777344 77.480469 C 201.777344 79.96875 199.757812 81.988281 197.269531 81.988281 L 162.398438 81.988281 C 159.910156 81.988281 157.890625 79.96875 157.890625 77.480469 C 157.890625 74.988281 159.910156 72.972656 162.398438 72.972656 Z M 197.269531 72.972656 " fill-opacity="1" fill-rule="nonzero"/><path fill="#000000" d="M 233.941406 54.933594 C 236.433594 54.933594 238.449219 56.953125 238.449219 59.445312 C 238.449219 61.933594 236.433594 63.953125 233.941406 63.953125 L 162.097656 63.953125 C 159.609375 63.953125 157.589844 61.933594 157.589844 59.445312 C 157.589844 56.953125 159.609375 54.933594 162.097656 54.933594 Z M 233.941406 54.933594 " fill-opacity="1" fill-rule="nonzero"/><g clip-path="url(#6f1f4dc61f)"><path fill="#000000" d="M 245.363281 37.5 C 254.828125 37.5 262.5 45.171875 262.5 54.632812 L 262.5 62.148438 L 320.515625 62.148438 C 329.976562 62.148438 337.648438 69.820312 337.648438 79.285156 L 337.648438 162.957031 C 337.648438 172.417969 329.976562 180.089844 320.515625 180.089844 L 250.476562 180.089844 L 250.476562 190.507812 C 250.476562 199.96875 242.804688 207.640625 233.339844 207.640625 L 138.351562 207.640625 C 128.886719 207.640625 121.214844 199.96875 121.214844 190.507812 L 121.214844 180.089844 L 54.183594 180.089844 C 49.699219 180.089844 46.066406 183.722656 46.066406 188.207031 L 46.066406 284.292969 C 46.066406 288.777344 49.699219 292.410156 54.183594 292.410156 L 91.15625 292.410156 L 91.15625 281.890625 C 91.15625 272.425781 98.828125 264.753906 108.289062 264.753906 L 203.28125 264.753906 C 212.742188 264.753906 220.414062 272.425781 220.414062 281.890625 L 220.414062 292.410156 L 253.609375 292.410156 C 255.296875 270.878906 273.300781 253.933594 295.265625 253.933594 C 318.339844 253.933594 337.046875 272.640625 337.046875 295.714844 C 337.046875 318.792969 318.339844 337.5 295.265625 337.5 C 274.125 337.5 256.652344 321.800781 253.867188 301.429688 L 220.414062 301.429688 L 220.414062 308.941406 C 220.414062 318.40625 212.742188 326.078125 203.28125 326.078125 L 108.289062 326.078125 C 98.828125 326.078125 91.15625 318.40625 91.15625 308.941406 L 91.15625 301.429688 L 54.183594 301.429688 C 44.71875 301.429688 37.046875 293.757812 37.046875 284.292969 L 37.046875 188.207031 C 37.046875 178.742188 44.71875 171.070312 54.183594 171.070312 L 121.214844 171.070312 L 121.214844 163.453125 C 121.214844 153.988281 128.886719 146.316406 138.351562 146.316406 L 233.339844 146.316406 C 242.804688 146.316406 250.476562 153.988281 250.476562 163.453125 L 250.476562 171.070312 L 320.515625 171.070312 C 324.996094 171.070312 328.632812 167.4375 328.632812 162.957031 L 328.632812 79.285156 C 328.632812 74.800781 324.996094 71.167969 320.515625 71.167969 L 262.5 71.167969 L 262.5 81.6875 C 262.5 91.152344 254.828125 98.824219 245.363281 98.824219 L 150.375 98.824219 C 140.910156 98.824219 133.242188 91.152344 133.242188 81.6875 L 133.242188 71.167969 L 94.242188 71.167969 C 91.71875 84.183594 80.261719 94.011719 66.507812 94.011719 C 50.902344 94.011719 38.25 81.363281 38.25 65.757812 C 38.25 50.152344 50.902344 37.5 66.507812 37.5 C 80.890625 37.5 92.765625 48.246094 94.535156 62.148438 L 133.242188 62.148438 L 133.242188 54.632812 C 133.242188 45.171875 140.910156 37.5 150.375 37.5 Z M 295.265625 262.949219 C 277.167969 262.949219 262.5 277.621094 262.5 295.714844 C 262.5 313.8125 277.167969 328.480469 295.265625 328.480469 C 313.359375 328.480469 328.03125 313.8125 328.03125 295.714844 C 328.03125 277.621094 313.359375 262.949219 295.265625 262.949219 Z M 108.289062 273.773438 C 103.808594 273.773438 100.175781 277.40625 100.175781 281.890625 L 100.175781 308.941406 C 100.175781 313.425781 103.808594 317.058594 108.289062 317.058594 L 203.28125 317.058594 C 207.761719 317.058594 211.398438 313.425781 211.398438 308.941406 L 211.398438 281.890625 C 211.398438 277.40625 207.761719 273.773438 203.28125 273.773438 Z M 138.351562 155.335938 C 133.867188 155.335938 130.234375 158.96875 130.234375 163.453125 L 130.234375 190.507812 C 130.234375 194.988281 133.867188 198.621094 138.351562 198.621094 L 233.339844 198.621094 C 237.824219 198.621094 241.457031 194.988281 241.457031 190.507812 L 241.457031 163.453125 C 241.457031 158.96875 237.824219 155.335938 233.339844 155.335938 Z M 150.375 46.519531 C 145.890625 46.519531 142.257812 50.152344 142.257812 54.632812 L 142.257812 81.6875 C 142.257812 86.171875 145.890625 89.804688 150.375 89.804688 L 245.363281 89.804688 C 249.847656 89.804688 253.480469 86.171875 253.480469 81.6875 L 253.480469 54.632812 C 253.480469 50.152344 249.847656 46.519531 245.363281 46.519531 Z M 66.507812 46.519531 C 55.882812 46.519531 47.269531 55.132812 47.269531 65.757812 C 47.269531 76.382812 55.882812 84.996094 66.507812 84.996094 C 77.132812 84.996094 85.746094 76.382812 85.746094 65.757812 C 85.746094 55.132812 77.132812 46.519531 66.507812 46.519531 Z M 66.507812 46.519531 " fill-opacity="1" fill-rule="evenodd"/></g></svg>