<svg xmlns="http://www.w3.org/2000/svg" xmlns:xlink="http://www.w3.org/1999/xlink" width="500" zoomAndPan="magnify" viewBox="0 0 375 374.999991" height="500" preserveAspectRatio="xMidYMid meet" version="1.0"><defs><clipPath id="57a906905b"><path d="M 234 37.5 L 337.5 37.5 L 337.5 141 L 234 141 Z M 234 37.5 " clip-rule="nonzero"/></clipPath><clipPath id="7ca01bad64"><path d="M 166 161 L 337.5 161 L 337.5 240 L 166 240 Z M 166 161 " clip-rule="nonzero"/></clipPath><clipPath id="efb0d09b7c"><path d="M 37.5 84 L 121 84 L 121 172 L 37.5 172 Z M 37.5 84 " clip-rule="nonzero"/></clipPath><clipPath id="14f8b6bf9d"><path d="M 37.5 228 L 183 228 L 183 312 L 37.5 312 Z M 37.5 228 " clip-rule="nonzero"/></clipPath><clipPath id="805017dc8d"><path d="M 275 275 L 337.5 275 L 337.5 337.5 L 275 337.5 Z M 275 275 " clip-rule="nonzero"/></clipPath><clipPath id="f9c0f62ae8"><path d="M 94 275 L 157 275 L 157 337.5 L 94 337.5 Z M 94 275 " clip-rule="nonzero"/></clipPath></defs><g clip-path="url(#57a906905b)"><path fill="#000000" d="M 285.777344 140.949219 C 257.277344 140.949219 234.050781 117.722656 234.050781 89.222656 C 234.050781 60.722656 257.277344 37.5 285.777344 37.5 C 314.277344 37.5 337.5 60.722656 337.5 89.222656 C 337.5 117.722656 314.277344 140.949219 285.777344 140.949219 Z M 285.777344 47.84375 C 262.964844 47.84375 244.398438 66.414062 244.398438 89.222656 C 244.398438 112.035156 262.964844 130.601562 285.777344 130.601562 C 308.585938 130.601562 327.15625 112.035156 327.15625 89.222656 C 327.15625 66.414062 308.585938 47.84375 285.777344 47.84375 Z M 285.777344 47.84375 " fill-opacity="1" fill-rule="nonzero"/></g><path fill="#000000" d="M 280.601562 104.742188 C 279.257812 104.742188 277.964844 104.222656 276.929688 103.242188 L 266.585938 92.898438 C 264.570312 90.878906 264.570312 87.621094 266.585938 85.601562 C 268.601562 83.585938 271.863281 83.585938 273.878906 85.601562 L 280.550781 92.277344 L 297.570312 75.257812 C 299.585938 73.242188 302.84375 73.242188 304.863281 75.257812 C 306.878906 77.277344 306.878906 80.535156 304.863281 82.550781 L 284.171875 103.242188 C 283.136719 104.277344 281.84375 104.742188 280.5 104.742188 Z M 280.601562 104.742188 " fill-opacity="1" fill-rule="nonzero"/><path fill="#000000" d="M 280.601562 311.636719 L 171.984375 311.636719 C 169.136719 311.636719 166.808594 309.308594 166.808594 306.464844 C 166.808594 303.621094 169.136719 301.292969 171.984375 301.292969 L 280.601562 301.292969 C 283.449219 301.292969 285.777344 303.621094 285.777344 306.464844 C 285.777344 309.308594 283.449219 311.636719 280.601562 311.636719 Z M 280.601562 311.636719 " fill-opacity="1" fill-rule="nonzero"/><g clip-path="url(#7ca01bad64)"><path fill="#000000" d="M 298.707031 239.222656 L 249.570312 239.222656 C 246.722656 239.222656 244.398438 236.898438 244.398438 234.050781 C 244.398438 231.207031 246.722656 228.878906 249.570312 228.878906 L 298.707031 228.878906 C 306.257812 228.878906 313.449219 225.929688 318.878906 220.550781 C 324.207031 215.171875 327.15625 207.984375 327.15625 200.429688 C 327.15625 184.757812 314.378906 171.984375 298.707031 171.984375 L 171.984375 171.984375 C 169.136719 171.984375 166.808594 169.65625 166.808594 166.808594 C 166.808594 163.964844 169.136719 161.636719 171.984375 161.636719 L 298.707031 161.636719 C 320.121094 161.636719 337.5 179.015625 337.5 200.429688 C 337.5 210.777344 333.464844 220.5 326.171875 227.84375 C 318.777344 235.191406 309.050781 239.222656 298.707031 239.222656 Z M 298.707031 239.222656 " fill-opacity="1" fill-rule="nonzero"/></g><path fill="#000000" d="M 218.535156 94.398438 L 187.5 94.398438 C 184.65625 94.398438 182.328125 92.070312 182.328125 89.222656 C 182.328125 86.378906 184.65625 84.050781 187.5 84.050781 L 218.535156 84.050781 C 221.378906 84.050781 223.707031 86.378906 223.707031 89.222656 C 223.707031 92.070312 221.378906 94.398438 218.535156 94.398438 Z M 218.535156 94.398438 " fill-opacity="1" fill-rule="nonzero"/><g clip-path="url(#efb0d09b7c)"><path fill="#000000" d="M 99.570312 171.984375 L 81.464844 171.984375 C 69.722656 171.984375 58.707031 167.378906 50.378906 159.101562 C 42.050781 150.777344 37.5 139.757812 37.5 128.015625 C 37.5 103.757812 57.207031 84.050781 81.464844 84.050781 L 115.085938 84.050781 C 117.929688 84.050781 120.257812 86.378906 120.257812 89.222656 C 120.257812 92.070312 117.929688 94.398438 115.085938 94.398438 L 81.464844 94.398438 C 62.949219 94.398438 47.84375 109.5 47.84375 128.015625 C 47.84375 136.964844 51.363281 145.398438 57.722656 151.757812 C 64.085938 158.121094 72.515625 161.636719 81.464844 161.636719 L 99.570312 161.636719 C 102.414062 161.636719 104.742188 163.964844 104.742188 166.808594 C 104.742188 169.65625 102.414062 171.984375 99.570312 171.984375 Z M 99.570312 171.984375 " fill-opacity="1" fill-rule="nonzero"/></g><g clip-path="url(#14f8b6bf9d)"><path fill="#000000" d="M 99.570312 311.636719 L 78.878906 311.636719 C 67.808594 311.636719 57.414062 307.34375 49.601562 299.535156 C 41.792969 291.722656 37.5 281.328125 37.5 270.257812 C 37.5 247.449219 56.070312 228.878906 78.878906 228.878906 L 177.15625 228.878906 C 180 228.878906 182.328125 231.207031 182.328125 234.050781 C 182.328125 236.898438 180 239.222656 177.15625 239.222656 L 78.878906 239.222656 C 61.757812 239.222656 47.84375 253.136719 47.84375 270.257812 C 47.84375 278.535156 51.050781 286.34375 56.949219 292.191406 C 62.84375 298.035156 70.601562 301.292969 78.878906 301.292969 L 99.570312 301.292969 C 102.414062 301.292969 104.742188 303.621094 104.742188 306.464844 C 104.742188 309.308594 102.414062 311.636719 99.570312 311.636719 Z M 99.570312 311.636719 " fill-opacity="1" fill-rule="nonzero"/></g><g clip-path="url(#805017dc8d)"><path fill="#000000" d="M 306.464844 337.5 C 289.34375 337.5 275.429688 323.585938 275.429688 306.464844 C 275.429688 289.34375 289.34375 275.429688 306.464844 275.429688 C 323.585938 275.429688 337.5 289.34375 337.5 306.464844 C 337.5 323.585938 323.585938 337.5 306.464844 337.5 Z M 306.464844 285.777344 C 295.035156 285.777344 285.777344 295.035156 285.777344 306.464844 C 285.777344 317.898438 295.035156 327.15625 306.464844 327.15625 C 317.898438 327.15625 327.15625 317.898438 327.15625 306.464844 C 327.15625 295.035156 317.898438 285.777344 306.464844 285.777344 Z M 306.464844 285.777344 " fill-opacity="1" fill-rule="nonzero"/></g><g clip-path="url(#f9c0f62ae8)"><path fill="#000000" d="M 125.429688 337.5 C 108.308594 337.5 94.398438 323.585938 94.398438 306.464844 C 94.398438 289.34375 108.308594 275.429688 125.429688 275.429688 C 142.550781 275.429688 156.464844 289.34375 156.464844 306.464844 C 156.464844 323.585938 142.550781 337.5 125.429688 337.5 Z M 125.429688 285.777344 C 114 285.777344 104.742188 295.035156 104.742188 306.464844 C 104.742188 317.898438 114 327.15625 125.429688 327.15625 C 136.863281 327.15625 146.121094 317.898438 146.121094 306.464844 C 146.121094 295.035156 136.863281 285.777344 125.429688 285.777344 Z M 125.429688 285.777344 " fill-opacity="1" fill-rule="nonzero"/></g><path fill="#000000" d="M 223.707031 265.085938 C 206.585938 265.085938 192.671875 251.171875 192.671875 234.050781 C 192.671875 216.929688 206.585938 203.015625 223.707031 203.015625 C 240.828125 203.015625 254.742188 216.929688 254.742188 234.050781 C 254.742188 251.171875 240.828125 265.085938 223.707031 265.085938 Z M 223.707031 213.363281 C 212.277344 213.363281 203.015625 222.621094 203.015625 234.050781 C 203.015625 245.484375 212.277344 254.742188 223.707031 254.742188 C 235.136719 254.742188 244.398438 245.484375 244.398438 234.050781 C 244.398438 222.621094 235.136719 213.363281 223.707031 213.363281 Z M 223.707031 213.363281 " fill-opacity="1" fill-rule="nonzero"/><path fill="#000000" d="M 125.429688 197.84375 C 108.308594 197.84375 94.398438 183.929688 94.398438 166.808594 C 94.398438 149.691406 108.308594 135.777344 125.429688 135.777344 C 142.550781 135.777344 156.464844 149.691406 156.464844 166.808594 C 156.464844 183.929688 142.550781 197.84375 125.429688 197.84375 Z M 125.429688 146.121094 C 114 146.121094 104.742188 155.378906 104.742188 166.808594 C 104.742188 178.242188 114 187.5 125.429688 187.5 C 136.863281 187.5 146.121094 178.242188 146.121094 166.808594 C 146.121094 155.378906 136.863281 146.121094 125.429688 146.121094 Z M 125.429688 146.121094 " fill-opacity="1" fill-rule="nonzero"/><path fill="#000000" d="M 161.636719 120.257812 C 144.515625 120.257812 130.601562 106.34375 130.601562 89.222656 C 130.601562 72.101562 144.515625 58.191406 161.636719 58.191406 C 178.757812 58.191406 192.671875 72.101562 192.671875 89.222656 C 192.671875 106.34375 178.757812 120.257812 161.636719 120.257812 Z M 161.636719 68.535156 C 150.207031 68.535156 140.949219 77.792969 140.949219 89.222656 C 140.949219 100.65625 150.207031 109.914062 161.636719 109.914062 C 173.070312 109.914062 182.328125 100.65625 182.328125 89.222656 C 182.328125 77.792969 173.070312 68.535156 161.636719 68.535156 Z M 161.636719 68.535156 " fill-opacity="1" fill-rule="nonzero"/></svg>