<svg xmlns="http://www.w3.org/2000/svg" xmlns:xlink="http://www.w3.org/1999/xlink" width="500" zoomAndPan="magnify" viewBox="0 0 375 374.999991" height="500" preserveAspectRatio="xMidYMid meet" version="1.0"><defs><clipPath id="b58a940f4a"><path d="M 37.5 39.472656 L 333.75 39.472656 L 333.75 335.722656 L 37.5 335.722656 Z M 37.5 39.472656 " clip-rule="nonzero"/></clipPath></defs><g clip-path="url(#b58a940f4a)"><path fill="#000000" d="M 111.5625 39.472656 C 105.722656 39.472656 100.980469 44.210938 100.980469 50.054688 L 100.980469 60.632812 L 79.820312 60.632812 C 56.566406 60.632812 37.5 79.699219 37.5 102.957031 L 37.5 293.402344 C 37.5 316.65625 56.566406 335.722656 79.820312 335.722656 L 291.429688 335.722656 C 314.683594 335.722656 333.75 316.65625 333.75 293.402344 L 333.75 102.957031 C 333.75 79.699219 314.683594 60.632812 291.429688 60.632812 L 270.269531 60.632812 L 270.269531 50.054688 C 270.269531 44.210938 265.527344 39.472656 259.6875 39.472656 C 253.847656 39.472656 249.105469 44.210938 249.105469 50.054688 L 249.105469 60.632812 L 196.207031 60.632812 L 196.207031 50.054688 C 196.207031 44.210938 191.464844 39.472656 185.625 39.472656 C 179.785156 39.472656 175.042969 44.210938 175.042969 50.054688 L 175.042969 60.632812 L 122.144531 60.632812 L 122.144531 50.054688 C 122.144531 44.210938 117.402344 39.472656 111.5625 39.472656 Z M 79.820312 81.792969 L 100.980469 81.792969 L 100.980469 92.375 C 100.980469 98.214844 105.722656 102.957031 111.5625 102.957031 C 117.402344 102.957031 122.144531 98.214844 122.144531 92.375 L 122.144531 81.792969 L 175.042969 81.792969 L 175.042969 92.375 C 175.042969 98.214844 179.785156 102.957031 185.625 102.957031 C 191.464844 102.957031 196.207031 98.214844 196.207031 92.375 L 196.207031 81.792969 L 249.105469 81.792969 L 249.105469 92.375 C 249.105469 98.214844 253.847656 102.957031 259.6875 102.957031 C 265.527344 102.957031 270.269531 98.214844 270.269531 92.375 L 270.269531 81.792969 L 291.429688 81.792969 C 303.332031 81.792969 312.589844 91.050781 312.589844 102.957031 L 312.589844 124.117188 L 58.660156 124.117188 L 58.660156 102.957031 C 58.660156 91.050781 67.917969 81.792969 79.820312 81.792969 Z M 58.660156 145.277344 L 312.589844 145.277344 L 312.589844 293.402344 C 312.589844 305.304688 303.332031 314.5625 291.429688 314.5625 L 79.820312 314.5625 C 67.917969 314.5625 58.660156 305.304688 58.660156 293.402344 Z M 58.660156 145.277344 " fill-opacity="1" fill-rule="nonzero"/></g><path fill="#000000" d="M 230.480469 180.710938 L 174.4375 246.121094 L 140.21875 211.84375 C 136.085938 207.710938 129.363281 207.710938 125.230469 211.84375 C 121.097656 215.976562 121.097656 222.699219 125.230469 226.832031 L 167.550781 269.15625 C 171.902344 273.507812 179.066406 273.234375 183.089844 268.550781 L 246.570312 194.488281 C 250.375 190.023438 249.824219 183.355469 245.414062 179.550781 C 240.730469 175.804688 234.890625 176.082031 230.480469 180.710938 Z M 230.480469 180.710938 " fill-opacity="1" fill-rule="nonzero"/></svg>