<svg xmlns="http://www.w3.org/2000/svg" xmlns:xlink="http://www.w3.org/1999/xlink" width="500" zoomAndPan="magnify" viewBox="0 0 375 374.999991" height="500" preserveAspectRatio="xMidYMid meet" version="1.0"><defs><clipPath id="6f5445855f"><path d="M 43.929688 37.5 L 331.179688 37.5 L 331.179688 324.75 L 43.929688 324.75 Z M 43.929688 37.5 " clip-rule="nonzero"/></clipPath></defs><g clip-path="url(#6f5445855f)"><path fill="#000000" d="M 77.960938 217.03125 L 106.683594 217.03125 L 106.683594 315.175781 L 77.960938 315.175781 Z M 141.441406 258.921875 L 170.167969 258.921875 L 170.167969 315.175781 L 141.441406 315.175781 Z M 204.921875 145.21875 L 233.648438 145.21875 L 233.648438 315.175781 L 204.921875 315.175781 Z M 268.402344 71.011719 L 297.128906 71.011719 L 297.128906 315.175781 L 268.402344 315.175781 Z M 326.394531 315.175781 L 306.703125 315.175781 L 306.703125 66.226562 C 306.703125 63.582031 304.5625 61.4375 301.917969 61.4375 L 263.617188 61.4375 C 260.972656 61.4375 258.828125 63.582031 258.828125 66.226562 L 258.828125 315.175781 L 243.222656 315.175781 L 243.222656 140.429688 C 243.222656 137.789062 241.078125 135.644531 238.433594 135.644531 L 200.136719 135.644531 C 197.492188 135.644531 195.347656 137.789062 195.347656 140.429688 L 195.347656 315.175781 L 179.742188 315.175781 L 179.742188 254.132812 C 179.742188 251.492188 177.597656 249.347656 174.953125 249.347656 L 136.652344 249.347656 C 134.011719 249.347656 131.867188 251.492188 131.867188 254.132812 L 131.867188 315.175781 L 116.261719 315.175781 L 116.261719 212.242188 C 116.261719 209.601562 114.117188 207.457031 111.472656 207.457031 L 73.171875 207.457031 C 70.527344 207.457031 68.386719 209.601562 68.386719 212.242188 L 68.386719 315.175781 L 53.507812 315.175781 L 53.507812 42.289062 C 53.507812 39.644531 51.363281 37.5 48.71875 37.5 C 46.074219 37.5 43.929688 39.644531 43.929688 42.289062 L 43.929688 319.960938 C 43.929688 322.605469 46.074219 324.75 48.71875 324.75 L 326.394531 324.75 C 329.039062 324.75 331.179688 322.605469 331.179688 319.960938 C 331.179688 317.320312 329.039062 315.175781 326.394531 315.175781 " fill-opacity="1" fill-rule="nonzero"/></g></svg>