<svg xmlns="http://www.w3.org/2000/svg" xmlns:xlink="http://www.w3.org/1999/xlink" width="500" zoomAndPan="magnify" viewBox="0 0 375 374.999991" height="500" preserveAspectRatio="xMidYMid meet" version="1.0"><defs><clipPath id="0a7d1d8ac1"><path d="M 37.5 52.3125 L 337.5 52.3125 L 337.5 323.0625 L 37.5 323.0625 Z M 37.5 52.3125 " clip-rule="nonzero"/></clipPath></defs><g clip-path="url(#0a7d1d8ac1)"><path fill="#020202" d="M 42.632812 266.785156 L 154.984375 71.144531 C 169.402344 46.035156 205.597656 46.035156 220.015625 71.144531 L 332.367188 266.785156 C 346.746094 291.824219 328.703125 323.066406 299.851562 323.066406 L 75.148438 323.066406 C 46.296875 323.066406 28.253906 291.824219 42.632812 266.785156 M 300.164062 306.105469 C 315.785156 306.089844 325.535156 289.128906 317.695312 275.597656 L 204.664062 80.351562 C 196.839844 66.808594 177.296875 66.847656 169.515625 80.421875 L 57.445312 275.910156 C 49.664062 289.457031 59.457031 306.359375 75.0625 306.347656 Z M 300.164062 306.105469 " fill-opacity="1" fill-rule="nonzero"/></g><path fill="#020202" d="M 186.46875 238.117188 C 181.628906 238.105469 176.761719 234.535156 176.238281 229.40625 C 174.058594 208.09375 171.808594 183.367188 169.488281 155.226562 C 168.636719 144.839844 176.617188 136.519531 186.808594 136.550781 C 196.996094 136.59375 204.917969 144.96875 204 155.339844 C 201.496094 183.46875 199.089844 208.179688 196.753906 229.476562 C 196.203125 234.589844 191.320312 238.132812 186.46875 238.117188 Z M 186.46875 238.117188 " fill-opacity="1" fill-rule="nonzero"/><path fill="#020202" d="M 185.253906 250.070312 C 193.457031 249.425781 200.644531 255.71875 201.308594 264.140625 C 201.976562 272.550781 195.847656 279.90625 187.652344 280.554688 C 179.449219 281.195312 172.261719 274.902344 171.597656 266.480469 C 170.929688 258.070312 177.058594 250.714844 185.253906 250.070312 Z M 185.253906 250.070312 " fill-opacity="1" fill-rule="nonzero"/></svg>