<svg xmlns="http://www.w3.org/2000/svg" xmlns:xlink="http://www.w3.org/1999/xlink" width="500" zoomAndPan="magnify" viewBox="0 0 375 374.999991" height="500" preserveAspectRatio="xMidYMid meet" version="1.0"><defs><clipPath id="225f7d4b9e"><path d="M 37.5 37.5 L 337.5 37.5 L 337.5 337.5 L 37.5 337.5 Z M 37.5 37.5 " clip-rule="nonzero"/></clipPath></defs><g clip-path="url(#225f7d4b9e)"><path fill="#000000" d="M 62.421875 37.5 C 61.601562 37.5 60.785156 37.539062 59.96875 37.621094 C 59.15625 37.699219 58.347656 37.820312 57.542969 37.980469 C 56.738281 38.140625 55.945312 38.339844 55.164062 38.578125 C 54.378906 38.8125 53.609375 39.089844 52.851562 39.402344 C 52.097656 39.714844 51.355469 40.066406 50.636719 40.453125 C 49.914062 40.839844 49.210938 41.257812 48.53125 41.714844 C 47.851562 42.167969 47.191406 42.65625 46.558594 43.175781 C 45.925781 43.695312 45.320312 44.242188 44.742188 44.824219 C 44.164062 45.402344 43.613281 46.007812 43.09375 46.640625 C 42.574219 47.273438 42.089844 47.929688 41.632812 48.609375 C 41.179688 49.292969 40.757812 49.992188 40.371094 50.714844 C 39.984375 51.4375 39.636719 52.175781 39.324219 52.933594 C 39.007812 53.6875 38.734375 54.460938 38.496094 55.242188 C 38.257812 56.027344 38.058594 56.820312 37.898438 57.621094 C 37.742188 58.425781 37.621094 59.234375 37.539062 60.050781 C 37.460938 60.863281 37.421875 61.679688 37.421875 62.5 C 37.421875 63.320312 37.460938 64.136719 37.539062 64.949219 C 37.621094 65.765625 37.742188 66.574219 37.898438 67.378906 C 38.058594 68.179688 38.257812 68.972656 38.496094 69.757812 C 38.734375 70.539062 39.007812 71.3125 39.324219 72.066406 C 39.636719 72.824219 39.984375 73.5625 40.371094 74.285156 C 40.757812 75.007812 41.179688 75.707031 41.632812 76.390625 C 42.089844 77.070312 42.574219 77.726562 43.09375 78.359375 C 43.613281 78.992188 44.164062 79.597656 44.742188 80.175781 C 45.320312 80.757812 45.925781 81.304688 46.558594 81.824219 C 47.191406 82.34375 47.851562 82.832031 48.53125 83.285156 C 49.210938 83.742188 49.914062 84.160156 50.636719 84.546875 C 51.355469 84.933594 52.097656 85.285156 52.851562 85.597656 C 53.609375 85.910156 54.378906 86.1875 55.164062 86.421875 C 55.945312 86.660156 56.738281 86.859375 57.542969 87.019531 C 58.347656 87.179688 59.15625 87.300781 59.96875 87.378906 C 60.785156 87.460938 61.601562 87.5 62.421875 87.5 C 63.238281 87.5 64.054688 87.460938 64.871094 87.378906 C 65.683594 87.300781 66.496094 87.179688 67.296875 87.019531 C 68.101562 86.859375 68.894531 86.660156 69.675781 86.421875 C 70.460938 86.1875 71.230469 85.910156 71.988281 85.597656 C 72.742188 85.285156 73.484375 84.933594 74.203125 84.546875 C 74.925781 84.160156 75.628906 83.742188 76.308594 83.285156 C 76.988281 82.832031 77.648438 82.34375 78.28125 81.824219 C 78.914062 81.304688 79.519531 80.757812 80.097656 80.175781 C 80.675781 79.597656 81.226562 78.992188 81.746094 78.359375 C 82.265625 77.726562 82.75 77.070312 83.207031 76.390625 C 83.660156 75.707031 84.082031 75.007812 84.46875 74.285156 C 84.855469 73.5625 85.203125 72.824219 85.515625 72.066406 C 85.832031 71.3125 86.105469 70.539062 86.34375 69.757812 C 86.582031 68.972656 86.78125 68.179688 86.941406 67.378906 C 87.097656 66.574219 87.21875 65.765625 87.300781 64.949219 C 87.378906 64.136719 87.421875 63.320312 87.421875 62.5 C 87.421875 61.679688 87.378906 60.863281 87.300781 60.050781 C 87.21875 59.234375 87.097656 58.425781 86.941406 57.621094 C 86.78125 56.820312 86.582031 56.027344 86.34375 55.242188 C 86.105469 54.460938 85.832031 53.6875 85.515625 52.933594 C 85.203125 52.175781 84.855469 51.4375 84.46875 50.714844 C 84.082031 49.992188 83.660156 49.292969 83.207031 48.609375 C 82.75 47.929688 82.265625 47.273438 81.746094 46.640625 C 81.226562 46.007812 80.675781 45.402344 80.097656 44.824219 C 79.519531 44.242188 78.914062 43.695312 78.28125 43.175781 C 77.648438 42.65625 76.988281 42.167969 76.308594 41.714844 C 75.628906 41.257812 74.925781 40.839844 74.203125 40.453125 C 73.484375 40.066406 72.742188 39.714844 71.988281 39.402344 C 71.230469 39.089844 70.460938 38.8125 69.675781 38.578125 C 68.894531 38.339844 68.101562 38.140625 67.296875 37.980469 C 66.496094 37.820312 65.683594 37.699219 64.871094 37.621094 C 64.054688 37.539062 63.238281 37.5 62.421875 37.5 Z M 129.085938 54.167969 C 128.535156 54.160156 127.988281 54.207031 127.445312 54.304688 C 126.902344 54.40625 126.375 54.5625 125.859375 54.765625 C 125.347656 54.972656 124.863281 55.226562 124.398438 55.53125 C 123.9375 55.832031 123.511719 56.175781 123.117188 56.566406 C 122.722656 56.953125 122.371094 57.375 122.0625 57.832031 C 121.753906 58.289062 121.492188 58.773438 121.28125 59.285156 C 121.066406 59.792969 120.90625 60.316406 120.796875 60.859375 C 120.6875 61.402344 120.632812 61.949219 120.632812 62.5 C 120.632812 63.050781 120.6875 63.597656 120.796875 64.140625 C 120.90625 64.683594 121.066406 65.207031 121.28125 65.714844 C 121.492188 66.226562 121.753906 66.710938 122.0625 67.167969 C 122.371094 67.625 122.722656 68.046875 123.117188 68.433594 C 123.511719 68.824219 123.9375 69.167969 124.398438 69.46875 C 124.863281 69.773438 125.347656 70.027344 125.859375 70.234375 C 126.375 70.4375 126.902344 70.59375 127.445312 70.695312 C 127.988281 70.792969 128.535156 70.839844 129.085938 70.832031 L 329.085938 70.832031 C 329.640625 70.839844 330.1875 70.792969 330.730469 70.695312 C 331.273438 70.59375 331.800781 70.4375 332.3125 70.234375 C 332.824219 70.027344 333.3125 69.773438 333.773438 69.46875 C 334.234375 69.167969 334.664062 68.824219 335.054688 68.433594 C 335.449219 68.046875 335.800781 67.625 336.109375 67.167969 C 336.417969 66.710938 336.679688 66.226562 336.894531 65.714844 C 337.105469 65.207031 337.265625 64.683594 337.375 64.140625 C 337.484375 63.597656 337.539062 63.050781 337.539062 62.5 C 337.539062 61.949219 337.484375 61.402344 337.375 60.859375 C 337.265625 60.316406 337.105469 59.792969 336.894531 59.285156 C 336.679688 58.773438 336.417969 58.289062 336.109375 57.832031 C 335.800781 57.375 335.449219 56.953125 335.054688 56.566406 C 334.664062 56.175781 334.234375 55.832031 333.773438 55.53125 C 333.3125 55.226562 332.824219 54.972656 332.3125 54.765625 C 331.800781 54.5625 331.273438 54.40625 330.730469 54.304688 C 330.1875 54.207031 329.640625 54.160156 329.085938 54.167969 Z M 62.421875 120.832031 C 61.601562 120.832031 60.785156 120.875 59.96875 120.953125 C 59.15625 121.035156 58.347656 121.152344 57.542969 121.3125 C 56.738281 121.472656 55.945312 121.671875 55.164062 121.910156 C 54.378906 122.148438 53.609375 122.421875 52.851562 122.738281 C 52.097656 123.050781 51.355469 123.398438 50.636719 123.785156 C 49.914062 124.171875 49.210938 124.589844 48.53125 125.046875 C 47.851562 125.5 47.191406 125.988281 46.558594 126.507812 C 45.925781 127.027344 45.320312 127.578125 44.742188 128.15625 C 44.164062 128.734375 43.613281 129.339844 43.09375 129.972656 C 42.574219 130.605469 42.089844 131.261719 41.632812 131.945312 C 41.179688 132.625 40.757812 133.328125 40.371094 134.046875 C 39.984375 134.769531 39.636719 135.511719 39.324219 136.265625 C 39.007812 137.023438 38.734375 137.792969 38.496094 138.578125 C 38.257812 139.359375 38.058594 140.152344 37.898438 140.957031 C 37.742188 141.757812 37.621094 142.566406 37.539062 143.382812 C 37.460938 144.199219 37.421875 145.015625 37.421875 145.832031 C 37.421875 146.652344 37.460938 147.46875 37.539062 148.285156 C 37.621094 149.097656 37.742188 149.90625 37.898438 150.710938 C 38.058594 151.511719 38.257812 152.308594 38.496094 153.089844 C 38.734375 153.875 39.007812 154.644531 39.324219 155.402344 C 39.636719 156.15625 39.984375 156.894531 40.371094 157.617188 C 40.757812 158.339844 41.179688 159.042969 41.632812 159.722656 C 42.089844 160.402344 42.574219 161.058594 43.09375 161.691406 C 43.613281 162.324219 44.164062 162.933594 44.742188 163.511719 C 45.320312 164.089844 45.925781 164.640625 46.558594 165.160156 C 47.191406 165.679688 47.851562 166.164062 48.53125 166.621094 C 49.210938 167.074219 49.914062 167.496094 50.636719 167.882812 C 51.355469 168.265625 52.097656 168.617188 52.851562 168.929688 C 53.609375 169.242188 54.378906 169.519531 55.164062 169.757812 C 55.945312 169.996094 56.738281 170.191406 57.542969 170.351562 C 58.347656 170.511719 59.15625 170.632812 59.96875 170.714844 C 60.785156 170.792969 61.601562 170.832031 62.421875 170.832031 C 63.238281 170.832031 64.054688 170.792969 64.871094 170.714844 C 65.683594 170.632812 66.496094 170.511719 67.296875 170.351562 C 68.101562 170.191406 68.894531 169.996094 69.675781 169.757812 C 70.460938 169.519531 71.230469 169.242188 71.988281 168.929688 C 72.742188 168.617188 73.484375 168.265625 74.203125 167.882812 C 74.925781 167.496094 75.628906 167.074219 76.308594 166.621094 C 76.988281 166.164062 77.648438 165.679688 78.28125 165.160156 C 78.914062 164.640625 79.519531 164.089844 80.097656 163.511719 C 80.675781 162.933594 81.226562 162.324219 81.746094 161.691406 C 82.265625 161.058594 82.75 160.402344 83.207031 159.722656 C 83.660156 159.042969 84.082031 158.339844 84.46875 157.617188 C 84.855469 156.894531 85.203125 156.15625 85.515625 155.402344 C 85.832031 154.644531 86.105469 153.875 86.34375 153.089844 C 86.582031 152.308594 86.78125 151.511719 86.941406 150.710938 C 87.097656 149.90625 87.21875 149.097656 87.300781 148.285156 C 87.378906 147.46875 87.421875 146.652344 87.421875 145.832031 C 87.421875 145.015625 87.378906 144.199219 87.300781 143.382812 C 87.21875 142.566406 87.097656 141.757812 86.941406 140.957031 C 86.78125 140.152344 86.582031 139.359375 86.34375 138.578125 C 86.105469 137.792969 85.832031 137.023438 85.515625 136.265625 C 85.203125 135.511719 84.855469 134.769531 84.46875 134.046875 C 84.082031 133.328125 83.660156 132.625 83.207031 131.945312 C 82.75 131.261719 82.265625 130.605469 81.746094 129.972656 C 81.226562 129.339844 80.675781 128.734375 80.097656 128.15625 C 79.519531 127.578125 78.914062 127.027344 78.28125 126.507812 C 77.648438 125.988281 76.988281 125.5 76.308594 125.046875 C 75.628906 124.589844 74.925781 124.171875 74.203125 123.785156 C 73.484375 123.398438 72.742188 123.050781 71.988281 122.738281 C 71.230469 122.421875 70.460938 122.148438 69.675781 121.910156 C 68.894531 121.671875 68.101562 121.472656 67.296875 121.3125 C 66.496094 121.152344 65.683594 121.035156 64.871094 120.953125 C 64.054688 120.875 63.238281 120.832031 62.421875 120.832031 Z M 129.085938 137.5 C 128.535156 137.492188 127.988281 137.539062 127.445312 137.640625 C 126.902344 137.742188 126.375 137.894531 125.859375 138.101562 C 125.347656 138.304688 124.863281 138.558594 124.398438 138.863281 C 123.9375 139.164062 123.511719 139.511719 123.117188 139.898438 C 122.722656 140.285156 122.371094 140.707031 122.0625 141.167969 C 121.753906 141.625 121.492188 142.105469 121.28125 142.617188 C 121.066406 143.125 120.90625 143.652344 120.796875 144.191406 C 120.6875 144.734375 120.632812 145.28125 120.632812 145.832031 C 120.632812 146.386719 120.6875 146.933594 120.796875 147.472656 C 120.90625 148.015625 121.066406 148.539062 121.28125 149.050781 C 121.492188 149.558594 121.753906 150.042969 122.0625 150.5 C 122.371094 150.957031 122.722656 151.378906 123.117188 151.769531 C 123.511719 152.15625 123.9375 152.5 124.398438 152.804688 C 124.863281 153.105469 125.347656 153.359375 125.859375 153.566406 C 126.375 153.773438 126.902344 153.925781 127.445312 154.027344 C 127.988281 154.128906 128.535156 154.175781 129.085938 154.167969 L 329.085938 154.167969 C 329.640625 154.175781 330.1875 154.128906 330.730469 154.027344 C 331.273438 153.925781 331.800781 153.773438 332.3125 153.566406 C 332.824219 153.359375 333.3125 153.105469 333.773438 152.804688 C 334.234375 152.5 334.664062 152.15625 335.054688 151.769531 C 335.449219 151.378906 335.800781 150.957031 336.109375 150.5 C 336.417969 150.042969 336.679688 149.558594 336.894531 149.050781 C 337.105469 148.539062 337.265625 148.015625 337.375 147.472656 C 337.484375 146.933594 337.539062 146.386719 337.539062 145.832031 C 337.539062 145.28125 337.484375 144.734375 337.375 144.191406 C 337.265625 143.652344 337.105469 143.125 336.894531 142.617188 C 336.679688 142.105469 336.417969 141.625 336.109375 141.167969 C 335.800781 140.707031 335.449219 140.285156 335.054688 139.898438 C 334.664062 139.511719 334.234375 139.164062 333.773438 138.863281 C 333.3125 138.558594 332.824219 138.304688 332.3125 138.101562 C 331.800781 137.894531 331.273438 137.742188 330.730469 137.640625 C 330.1875 137.539062 329.640625 137.492188 329.085938 137.5 Z M 62.421875 204.167969 C 61.601562 204.167969 60.785156 204.207031 59.96875 204.285156 C 59.15625 204.367188 58.347656 204.488281 57.542969 204.648438 C 56.738281 204.808594 55.945312 205.003906 55.164062 205.242188 C 54.378906 205.480469 53.609375 205.757812 52.851562 206.070312 C 52.097656 206.382812 51.355469 206.734375 50.636719 207.117188 C 49.914062 207.503906 49.210938 207.925781 48.53125 208.378906 C 47.851562 208.835938 47.191406 209.320312 46.558594 209.839844 C 45.925781 210.359375 45.320312 210.910156 44.742188 211.488281 C 44.164062 212.066406 43.613281 212.675781 43.09375 213.308594 C 42.574219 213.941406 42.089844 214.597656 41.632812 215.277344 C 41.179688 215.957031 40.757812 216.660156 40.371094 217.382812 C 39.984375 218.105469 39.636719 218.84375 39.324219 219.597656 C 39.007812 220.355469 38.734375 221.125 38.496094 221.910156 C 38.257812 222.691406 38.058594 223.488281 37.898438 224.289062 C 37.742188 225.09375 37.621094 225.902344 37.539062 226.714844 C 37.460938 227.53125 37.421875 228.347656 37.421875 229.167969 C 37.421875 229.984375 37.460938 230.800781 37.539062 231.617188 C 37.621094 232.433594 37.742188 233.242188 37.898438 234.042969 C 38.058594 234.847656 38.257812 235.640625 38.496094 236.421875 C 38.734375 237.207031 39.007812 237.976562 39.324219 238.734375 C 39.636719 239.488281 39.984375 240.230469 40.371094 240.953125 C 40.757812 241.671875 41.179688 242.375 41.632812 243.054688 C 42.089844 243.738281 42.574219 244.394531 43.09375 245.027344 C 43.613281 245.660156 44.164062 246.265625 44.742188 246.84375 C 45.320312 247.421875 45.925781 247.972656 46.558594 248.492188 C 47.191406 249.011719 47.851562 249.5 48.53125 249.953125 C 49.210938 250.410156 49.914062 250.828125 50.636719 251.214844 C 51.355469 251.601562 52.097656 251.949219 52.851562 252.261719 C 53.609375 252.578125 54.378906 252.851562 55.164062 253.089844 C 55.945312 253.328125 56.738281 253.527344 57.542969 253.6875 C 58.347656 253.847656 59.15625 253.964844 59.96875 254.046875 C 60.785156 254.125 61.601562 254.167969 62.421875 254.167969 C 63.238281 254.167969 64.054688 254.125 64.871094 254.046875 C 65.683594 253.964844 66.496094 253.847656 67.296875 253.6875 C 68.101562 253.527344 68.894531 253.328125 69.675781 253.089844 C 70.460938 252.851562 71.230469 252.578125 71.988281 252.261719 C 72.742188 251.949219 73.484375 251.601562 74.203125 251.214844 C 74.925781 250.828125 75.628906 250.410156 76.308594 249.953125 C 76.988281 249.5 77.648438 249.011719 78.28125 248.492188 C 78.914062 247.972656 79.519531 247.421875 80.097656 246.84375 C 80.675781 246.265625 81.226562 245.660156 81.746094 245.027344 C 82.265625 244.394531 82.75 243.738281 83.207031 243.054688 C 83.660156 242.375 84.082031 241.671875 84.46875 240.953125 C 84.855469 240.230469 85.203125 239.488281 85.515625 238.734375 C 85.832031 237.976562 86.105469 237.207031 86.34375 236.421875 C 86.582031 235.640625 86.78125 234.847656 86.941406 234.042969 C 87.097656 233.242188 87.21875 232.433594 87.300781 231.617188 C 87.378906 230.800781 87.421875 229.984375 87.421875 229.167969 C 87.421875 228.347656 87.378906 227.53125 87.300781 226.714844 C 87.21875 225.902344 87.097656 225.09375 86.941406 224.289062 C 86.78125 223.488281 86.582031 222.691406 86.34375 221.910156 C 86.105469 221.125 85.832031 220.355469 85.515625 219.597656 C 85.203125 218.84375 84.855469 218.105469 84.46875 217.382812 C 84.082031 216.660156 83.660156 215.957031 83.207031 215.277344 C 82.75 214.597656 82.265625 213.941406 81.746094 213.308594 C 81.226562 212.675781 80.675781 212.066406 80.097656 211.488281 C 79.519531 210.910156 78.914062 210.359375 78.28125 209.839844 C 77.648438 209.320312 76.988281 208.835938 76.308594 208.378906 C 75.628906 207.925781 74.925781 207.503906 74.203125 207.117188 C 73.484375 206.734375 72.742188 206.382812 71.988281 206.070312 C 71.230469 205.757812 70.460938 205.480469 69.675781 205.242188 C 68.894531 205.003906 68.101562 204.808594 67.296875 204.648438 C 66.496094 204.488281 65.683594 204.367188 64.871094 204.285156 C 64.054688 204.207031 63.238281 204.167969 62.421875 204.167969 Z M 129.085938 220.832031 C 128.535156 220.824219 127.988281 220.871094 127.445312 220.972656 C 126.902344 221.074219 126.375 221.226562 125.859375 221.433594 C 125.347656 221.640625 124.863281 221.894531 124.398438 222.195312 C 123.9375 222.5 123.511719 222.84375 123.117188 223.230469 C 122.722656 223.621094 122.371094 224.042969 122.0625 224.5 C 121.753906 224.957031 121.492188 225.441406 121.28125 225.949219 C 121.066406 226.460938 120.90625 226.984375 120.796875 227.527344 C 120.6875 228.066406 120.632812 228.613281 120.632812 229.167969 C 120.632812 229.71875 120.6875 230.265625 120.796875 230.808594 C 120.90625 231.347656 121.066406 231.875 121.28125 232.382812 C 121.492188 232.894531 121.753906 233.375 122.0625 233.832031 C 122.371094 234.292969 122.722656 234.714844 123.117188 235.101562 C 123.511719 235.488281 123.9375 235.835938 124.398438 236.136719 C 124.863281 236.441406 125.347656 236.695312 125.859375 236.898438 C 126.375 237.105469 126.902344 237.257812 127.445312 237.359375 C 127.988281 237.460938 128.535156 237.507812 129.085938 237.5 L 329.085938 237.5 C 329.640625 237.507812 330.1875 237.460938 330.730469 237.359375 C 331.273438 237.257812 331.800781 237.105469 332.3125 236.898438 C 332.824219 236.695312 333.3125 236.441406 333.773438 236.136719 C 334.234375 235.835938 334.664062 235.488281 335.054688 235.101562 C 335.449219 234.714844 335.800781 234.292969 336.109375 233.832031 C 336.417969 233.375 336.679688 232.894531 336.894531 232.382812 C 337.105469 231.875 337.265625 231.347656 337.375 230.808594 C 337.484375 230.265625 337.539062 229.71875 337.539062 229.167969 C 337.539062 228.613281 337.484375 228.066406 337.375 227.527344 C 337.265625 226.984375 337.105469 226.460938 336.894531 225.949219 C 336.679688 225.441406 336.417969 224.957031 336.109375 224.5 C 335.800781 224.042969 335.449219 223.621094 335.054688 223.230469 C 334.664062 222.84375 334.234375 222.5 333.773438 222.195312 C 333.3125 221.894531 332.824219 221.640625 332.3125 221.433594 C 331.800781 221.226562 331.273438 221.074219 330.730469 220.972656 C 330.1875 220.871094 329.640625 220.824219 329.085938 220.832031 Z M 62.421875 287.5 C 61.601562 287.5 60.785156 287.539062 59.96875 287.621094 C 59.15625 287.699219 58.347656 287.820312 57.542969 287.980469 C 56.738281 288.140625 55.945312 288.339844 55.164062 288.578125 C 54.378906 288.8125 53.609375 289.089844 52.851562 289.402344 C 52.097656 289.714844 51.355469 290.066406 50.636719 290.453125 C 49.914062 290.839844 49.210938 291.257812 48.53125 291.714844 C 47.851562 292.167969 47.191406 292.65625 46.558594 293.175781 C 45.925781 293.695312 45.320312 294.242188 44.742188 294.824219 C 44.164062 295.402344 43.613281 296.007812 43.09375 296.640625 C 42.574219 297.273438 42.089844 297.929688 41.632812 298.609375 C 41.179688 299.292969 40.757812 299.992188 40.371094 300.714844 C 39.984375 301.4375 39.636719 302.175781 39.324219 302.933594 C 39.007812 303.6875 38.734375 304.460938 38.496094 305.242188 C 38.257812 306.027344 38.058594 306.820312 37.898438 307.621094 C 37.742188 308.425781 37.621094 309.234375 37.539062 310.050781 C 37.460938 310.863281 37.421875 311.679688 37.421875 312.5 C 37.421875 313.320312 37.460938 314.136719 37.539062 314.949219 C 37.621094 315.765625 37.742188 316.574219 37.898438 317.378906 C 38.058594 318.179688 38.257812 318.972656 38.496094 319.757812 C 38.734375 320.539062 39.007812 321.3125 39.324219 322.066406 C 39.636719 322.824219 39.984375 323.5625 40.371094 324.285156 C 40.757812 325.007812 41.179688 325.707031 41.632812 326.390625 C 42.089844 327.070312 42.574219 327.726562 43.09375 328.359375 C 43.613281 328.992188 44.164062 329.597656 44.742188 330.175781 C 45.320312 330.757812 45.925781 331.304688 46.558594 331.824219 C 47.191406 332.34375 47.851562 332.832031 48.53125 333.285156 C 49.210938 333.742188 49.914062 334.160156 50.636719 334.546875 C 51.355469 334.933594 52.097656 335.285156 52.851562 335.597656 C 53.609375 335.910156 54.378906 336.1875 55.164062 336.421875 C 55.945312 336.660156 56.738281 336.859375 57.542969 337.019531 C 58.347656 337.179688 59.15625 337.300781 59.96875 337.378906 C 60.785156 337.460938 61.601562 337.5 62.421875 337.5 C 63.238281 337.5 64.054688 337.460938 64.871094 337.378906 C 65.683594 337.300781 66.496094 337.179688 67.296875 337.019531 C 68.101562 336.859375 68.894531 336.660156 69.675781 336.421875 C 70.460938 336.1875 71.230469 335.910156 71.988281 335.597656 C 72.742188 335.285156 73.484375 334.933594 74.203125 334.546875 C 74.925781 334.160156 75.628906 333.742188 76.308594 333.285156 C 76.988281 332.832031 77.648438 332.34375 78.28125 331.824219 C 78.914062 331.304688 79.519531 330.757812 80.097656 330.175781 C 80.675781 329.597656 81.226562 328.992188 81.746094 328.359375 C 82.265625 327.726562 82.75 327.070312 83.207031 326.390625 C 83.660156 325.707031 84.082031 325.007812 84.46875 324.285156 C 84.855469 323.5625 85.203125 322.824219 85.515625 322.066406 C 85.832031 321.3125 86.105469 320.539062 86.34375 319.757812 C 86.582031 318.972656 86.78125 318.179688 86.941406 317.378906 C 87.097656 316.574219 87.21875 315.765625 87.300781 314.949219 C 87.378906 314.136719 87.421875 313.320312 87.421875 312.5 C 87.421875 311.679688 87.378906 310.863281 87.300781 310.050781 C 87.21875 309.234375 87.097656 308.425781 86.941406 307.621094 C 86.78125 306.820312 86.582031 306.027344 86.34375 305.242188 C 86.105469 304.460938 85.832031 303.6875 85.515625 302.933594 C 85.203125 302.175781 84.855469 301.4375 84.46875 300.714844 C 84.082031 299.992188 83.660156 299.292969 83.207031 298.609375 C 82.75 297.929688 82.265625 297.273438 81.746094 296.640625 C 81.226562 296.007812 80.675781 295.402344 80.097656 294.824219 C 79.519531 294.242188 78.914062 293.695312 78.28125 293.175781 C 77.648438 292.65625 76.988281 292.167969 76.308594 291.714844 C 75.628906 291.257812 74.925781 290.839844 74.203125 290.453125 C 73.484375 290.066406 72.742188 289.714844 71.988281 289.402344 C 71.230469 289.089844 70.460938 288.8125 69.675781 288.578125 C 68.894531 288.339844 68.101562 288.140625 67.296875 287.980469 C 66.496094 287.820312 65.683594 287.699219 64.871094 287.621094 C 64.054688 287.539062 63.238281 287.5 62.421875 287.5 Z M 129.085938 304.167969 C 128.535156 304.160156 127.988281 304.207031 127.445312 304.304688 C 126.902344 304.40625 126.375 304.5625 125.859375 304.765625 C 125.347656 304.972656 124.863281 305.226562 124.398438 305.53125 C 123.9375 305.832031 123.511719 306.175781 123.117188 306.566406 C 122.722656 306.953125 122.371094 307.375 122.0625 307.832031 C 121.753906 308.289062 121.492188 308.773438 121.28125 309.285156 C 121.066406 309.792969 120.90625 310.316406 120.796875 310.859375 C 120.6875 311.402344 120.632812 311.949219 120.632812 312.5 C 120.632812 313.050781 120.6875 313.597656 120.796875 314.140625 C 120.90625 314.683594 121.066406 315.207031 121.28125 315.714844 C 121.492188 316.226562 121.753906 316.710938 122.0625 317.167969 C 122.371094 317.625 122.722656 318.046875 123.117188 318.433594 C 123.511719 318.824219 123.9375 319.167969 124.398438 319.46875 C 124.863281 319.773438 125.347656 320.027344 125.859375 320.234375 C 126.375 320.4375 126.902344 320.59375 127.445312 320.695312 C 127.988281 320.792969 128.535156 320.839844 129.085938 320.832031 L 329.085938 320.832031 C 329.640625 320.839844 330.1875 320.792969 330.730469 320.695312 C 331.273438 320.59375 331.800781 320.4375 332.3125 320.234375 C 332.824219 320.027344 333.3125 319.773438 333.773438 319.46875 C 334.234375 319.167969 334.664062 318.824219 335.054688 318.433594 C 335.449219 318.046875 335.800781 317.625 336.109375 317.167969 C 336.417969 316.710938 336.679688 316.226562 336.894531 315.714844 C 337.105469 315.207031 337.269531 314.683594 337.375 314.140625 C 337.484375 313.597656 337.539062 313.050781 337.539062 312.5 C 337.539062 311.949219 337.484375 311.402344 337.375 310.859375 C 337.269531 310.316406 337.105469 309.792969 336.894531 309.285156 C 336.679688 308.773438 336.417969 308.289062 336.109375 307.832031 C 335.800781 307.375 335.449219 306.953125 335.054688 306.566406 C 334.664062 306.175781 334.234375 305.832031 333.773438 305.53125 C 333.3125 305.226562 332.824219 304.972656 332.3125 304.765625 C 331.800781 304.5625 331.273438 304.40625 330.730469 304.304688 C 330.1875 304.207031 329.640625 304.160156 329.085938 304.167969 Z M 129.085938 304.167969 " fill-opacity="1" fill-rule="nonzero"/></g></svg>