<svg xmlns="http://www.w3.org/2000/svg" xmlns:xlink="http://www.w3.org/1999/xlink" width="500" zoomAndPan="magnify" viewBox="0 0 375 112.499997" height="150" preserveAspectRatio="xMidYMid meet" version="1.0"><defs><g/><clipPath id="d41b9b7754"><path d="M 0.828125 8 L 371 8 L 371 104 L 0.828125 104 Z M 0.828125 8 " clip-rule="nonzero"/></clipPath><clipPath id="78ab0d2c8a"><path d="M 97.699219 14.964844 L 119.761719 14.964844 L 119.761719 21.84375 L 97.699219 21.84375 Z M 97.699219 14.964844 " clip-rule="nonzero"/></clipPath><clipPath id="dfded33bc4"><path d="M 0.699219 0.964844 L 22.761719 0.964844 L 22.761719 7.84375 L 0.699219 7.84375 Z M 0.699219 0.964844 " clip-rule="nonzero"/></clipPath><clipPath id="86d60b60eb"><rect x="0" width="23" y="0" height="8"/></clipPath><clipPath id="0342221e10"><rect x="0" width="371" y="0" height="96"/></clipPath></defs><g clip-path="url(#d41b9b7754)"><g transform="matrix(1, 0, 0, 1, 0.000000000000000111, 8)"><g clip-path="url(#0342221e10)"><g fill="#000000" fill-opacity="1"><g transform="translate(0.829651, 75.298878)"><g><path d="M 68.546875 -44.578125 C 72.046875 -41.078125 73.796875 -36.71875 73.796875 -31.5 L 73.796875 0 L 65.859375 0 L 65.859375 -31.5 C 65.859375 -34.46875 64.898438 -36.910156 62.984375 -38.828125 C 61.078125 -40.742188 58.671875 -41.703125 55.765625 -41.703125 C 53.191406 -41.703125 51.007812 -41.070312 49.21875 -39.8125 C 47.4375 -38.5625 46.082031 -37.046875 45.15625 -35.265625 C 44.238281 -33.484375 43.78125 -31.796875 43.78125 -30.203125 L 43.78125 0 L 35.75 0 L 35.75 -31.5 C 35.75 -34.46875 34.804688 -36.910156 32.921875 -38.828125 C 31.046875 -40.742188 28.65625 -41.703125 25.75 -41.703125 C 23.175781 -41.703125 21 -41.070312 19.21875 -39.8125 C 17.4375 -38.5625 16.082031 -37.046875 15.15625 -35.265625 C 14.226562 -33.484375 13.765625 -31.796875 13.765625 -30.203125 L 13.765625 0 L 5.75 0 L 5.75 -30.203125 C 5.75 -30.203125 5.75 -30.796875 5.75 -31.984375 C 5.75 -33.179688 5.75 -34.65625 5.75 -36.40625 C 5.75 -38.15625 5.75 -39.90625 5.75 -41.65625 C 5.75 -43.40625 5.75 -44.851562 5.75 -46 C 5.75 -47.15625 5.75 -47.734375 5.75 -47.734375 L 13.765625 -47.734375 L 13.765625 -44.578125 C 15.347656 -46.160156 17.210938 -47.410156 19.359375 -48.328125 C 21.503906 -49.253906 23.632812 -49.71875 25.75 -49.71875 C 30.832031 -49.71875 35.09375 -48.003906 38.53125 -44.578125 C 39.1875 -43.910156 39.8125 -43.179688 40.40625 -42.390625 C 40.601562 -42.648438 40.800781 -42.914062 41 -43.1875 C 44.894531 -47.539062 49.816406 -49.71875 55.765625 -49.71875 C 60.847656 -49.71875 65.109375 -48.003906 68.546875 -44.578125 Z M 68.546875 -44.578125 "/></g></g></g><g fill="#000000" fill-opacity="1"><g transform="translate(79.957711, 75.298878)"><g><path d="M 52 -32.59375 C 52.457031 -31.195312 52.785156 -29.753906 52.984375 -28.265625 C 53.179688 -26.785156 53.316406 -25.320312 53.390625 -23.875 L 53.390625 -19.90625 L 11.59375 -19.90625 C 11.59375 -19.769531 11.625 -19.671875 11.6875 -19.609375 C 11.882812 -18.554688 12.179688 -17.535156 12.578125 -16.546875 C 13.367188 -14.554688 14.492188 -12.804688 15.953125 -11.296875 C 17.398438 -9.773438 19.082031 -8.550781 21 -7.625 C 22.914062 -6.769531 24.992188 -6.242188 27.234375 -6.046875 C 27.765625 -5.972656 28.296875 -5.9375 28.828125 -5.9375 C 29.222656 -5.9375 29.484375 -5.9375 29.609375 -5.9375 C 29.679688 -5.9375 29.75 -5.9375 29.8125 -5.9375 C 29.875 -5.9375 29.941406 -5.9375 30.015625 -5.9375 L 30.5 -5.9375 C 31.09375 -6.007812 31.625 -6.046875 32.09375 -6.046875 C 32.226562 -6.109375 32.359375 -6.140625 32.484375 -6.140625 C 32.617188 -6.140625 32.753906 -6.171875 32.890625 -6.234375 C 33.015625 -6.234375 33.144531 -6.25 33.28125 -6.28125 C 33.414062 -6.320312 33.546875 -6.34375 33.671875 -6.34375 C 35.847656 -6.800781 37.796875 -7.59375 39.515625 -8.71875 C 41.296875 -9.84375 42.816406 -11.226562 44.078125 -12.875 L 50.3125 -8.21875 C 48.53125 -5.78125 46.320312 -3.734375 43.6875 -2.078125 C 41.101562 -0.492188 38.296875 0.59375 35.265625 1.1875 C 35.066406 1.25 34.882812 1.296875 34.71875 1.328125 C 34.550781 1.367188 34.367188 1.390625 34.171875 1.390625 C 33.972656 1.453125 33.773438 1.5 33.578125 1.53125 C 33.378906 1.5625 33.210938 1.578125 33.078125 1.578125 C 32.421875 1.648438 31.660156 1.71875 30.796875 1.78125 L 30.3125 1.78125 C 30.175781 1.78125 30.070312 1.78125 30 1.78125 C 29.9375 1.78125 29.84375 1.78125 29.71875 1.78125 C 29.519531 1.78125 29.335938 1.78125 29.171875 1.78125 C 29.003906 1.78125 28.820312 1.78125 28.625 1.78125 C 27.894531 1.78125 27.171875 1.75 26.453125 1.6875 C 23.347656 1.351562 20.472656 0.5625 17.828125 -0.6875 C 14.984375 -2.007812 12.507812 -3.796875 10.40625 -6.046875 C 8.289062 -8.222656 6.671875 -10.765625 5.546875 -13.671875 C 4.953125 -15.054688 4.488281 -16.472656 4.15625 -17.921875 C 3.832031 -19.378906 3.632812 -20.867188 3.5625 -22.390625 C 3.5625 -23.109375 3.5625 -23.832031 3.5625 -24.5625 C 3.5625 -25.289062 3.597656 -26.050781 3.671875 -26.84375 C 3.867188 -28.289062 4.128906 -29.742188 4.453125 -31.203125 C 5.242188 -34.171875 6.53125 -36.878906 8.3125 -39.328125 C 10.101562 -41.898438 12.285156 -44.007812 14.859375 -45.65625 C 17.429688 -47.238281 20.238281 -48.363281 23.28125 -49.03125 C 24.726562 -49.289062 26.210938 -49.457031 27.734375 -49.53125 C 29.179688 -49.59375 30.664062 -49.523438 32.1875 -49.328125 C 35.289062 -48.929688 38.164062 -48.003906 40.8125 -46.546875 C 42.195312 -45.753906 43.453125 -44.863281 44.578125 -43.875 C 45.765625 -42.882812 46.851562 -41.796875 47.84375 -40.609375 C 48.757812 -39.421875 49.550781 -38.132812 50.21875 -36.75 C 50.945312 -35.425781 51.539062 -34.039062 52 -32.59375 Z M 11.59375 -27.9375 L 45.265625 -27.9375 C 45.128906 -28.789062 44.960938 -29.613281 44.765625 -30.40625 C 44.441406 -31.457031 44.046875 -32.445312 43.578125 -33.375 C 43.117188 -34.300781 42.554688 -35.160156 41.890625 -35.953125 C 40.578125 -37.609375 39.023438 -38.929688 37.234375 -39.921875 C 35.390625 -40.910156 33.378906 -41.535156 31.203125 -41.796875 C 30.210938 -41.929688 29.15625 -41.960938 28.03125 -41.890625 C 26.90625 -41.890625 25.816406 -41.789062 24.765625 -41.59375 C 22.648438 -41.132812 20.734375 -40.34375 19.015625 -39.21875 C 17.234375 -38.09375 15.710938 -36.675781 14.453125 -34.96875 C 13.265625 -33.25 12.410156 -31.332031 11.890625 -29.21875 C 11.753906 -28.820312 11.65625 -28.394531 11.59375 -27.9375 Z M 11.59375 -27.9375 "/></g></g></g><g fill="#000000" fill-opacity="1"><g transform="translate(135.91175, 75.298878)"><g><path d="M 33.375 -8.3125 L 37.046875 -1.984375 C 35.191406 -0.921875 33.0625 -0.0625 30.65625 0.59375 C 28.25 1.25 25.554688 1.578125 22.578125 1.578125 C 18.617188 1.578125 15.316406 0.375 12.671875 -2.03125 C 10.035156 -4.4375 8.71875 -8.445312 8.71875 -14.0625 L 8.71875 -39.8125 L 2.171875 -39.8125 L 2.171875 -47.84375 L 8.71875 -47.84375 L 8.71875 -59.125 L 16.734375 -59.125 L 16.734375 -47.84375 L 31.203125 -47.84375 L 31.203125 -39.8125 L 16.734375 -39.8125 L 16.734375 -13.96875 C 16.734375 -11.257812 17.128906 -9.359375 17.921875 -8.265625 C 18.710938 -7.179688 19.65625 -6.539062 20.75 -6.34375 C 21.84375 -6.144531 22.75 -6.007812 23.46875 -5.9375 C 24.789062 -5.875 26.457031 -6.085938 28.46875 -6.578125 C 30.488281 -7.078125 32.125 -7.65625 33.375 -8.3125 Z M 33.375 -8.3125 "/></g></g></g><g fill="#000000" fill-opacity="1"><g transform="translate(171.959754, 75.298878)"><g><path d="M 53.390625 -33.78125 C 53.984375 -32.1875 54.425781 -30.546875 54.71875 -28.859375 C 55.019531 -27.179688 55.171875 -25.519531 55.171875 -23.875 C 55.171875 -22.21875 55.019531 -20.5625 54.71875 -18.90625 C 54.425781 -17.257812 53.945312 -15.644531 53.28125 -14.0625 C 52.03125 -10.757812 50.179688 -7.921875 47.734375 -5.546875 C 45.296875 -3.097656 42.457031 -1.28125 39.21875 -0.09375 C 37.632812 0.5625 36 1.019531 34.3125 1.28125 C 32.632812 1.550781 31.003906 1.6875 29.421875 1.6875 C 27.765625 1.6875 26.09375 1.550781 24.40625 1.28125 C 22.726562 1.019531 21.097656 0.59375 19.515625 0 C 17.929688 -0.65625 16.410156 -1.414062 14.953125 -2.28125 C 13.503906 -3.207031 12.148438 -4.265625 10.890625 -5.453125 C 8.453125 -7.890625 6.570312 -10.726562 5.25 -13.96875 C 4.65625 -15.550781 4.207031 -17.179688 3.90625 -18.859375 C 3.613281 -20.546875 3.46875 -22.21875 3.46875 -23.875 C 3.46875 -25.519531 3.613281 -27.179688 3.90625 -28.859375 C 4.207031 -30.546875 4.65625 -32.1875 5.25 -33.78125 C 6.570312 -37.082031 8.453125 -39.921875 10.890625 -42.296875 C 12.148438 -43.546875 13.503906 -44.632812 14.953125 -45.5625 C 16.335938 -46.414062 17.859375 -47.140625 19.515625 -47.734375 C 21.097656 -48.398438 22.726562 -48.863281 24.40625 -49.125 C 26.09375 -49.394531 27.765625 -49.53125 29.421875 -49.53125 C 31.066406 -49.53125 32.710938 -49.378906 34.359375 -49.078125 C 36.015625 -48.773438 37.632812 -48.328125 39.21875 -47.734375 C 42.457031 -46.484375 45.296875 -44.671875 47.734375 -42.296875 C 50.179688 -39.847656 52.066406 -37.007812 53.390625 -33.78125 Z M 46.359375 -16.734375 C 47.210938 -18.984375 47.640625 -21.363281 47.640625 -23.875 C 47.640625 -26.445312 47.210938 -28.820312 46.359375 -31 C 45.429688 -33.3125 44.140625 -35.289062 42.484375 -36.9375 C 40.773438 -38.59375 38.796875 -39.847656 36.546875 -40.703125 C 34.304688 -41.492188 31.929688 -41.890625 29.421875 -41.890625 C 26.835938 -41.890625 24.425781 -41.492188 22.1875 -40.703125 C 19.9375 -39.785156 17.988281 -38.5 16.34375 -36.84375 C 14.6875 -35.195312 13.398438 -33.25 12.484375 -31 C 11.691406 -28.820312 11.296875 -26.445312 11.296875 -23.875 C 11.296875 -21.363281 11.691406 -19.019531 12.484375 -16.84375 C 13.398438 -14.53125 14.6875 -12.546875 16.34375 -10.890625 C 17.988281 -9.242188 19.9375 -7.988281 22.1875 -7.125 C 24.425781 -6.269531 26.835938 -5.84375 29.421875 -5.84375 C 31.929688 -5.84375 34.304688 -6.269531 36.546875 -7.125 C 38.796875 -7.988281 40.773438 -9.242188 42.484375 -10.890625 C 44.140625 -12.546875 45.429688 -14.492188 46.359375 -16.734375 Z M 46.359375 -16.734375 "/></g></g></g><g fill="#000000" fill-opacity="1"><g transform="translate(230.587806, 75.298878)"><g><path d="M 47.34375 -42.59375 L 47.34375 -70.21875 L 55.375 -70.21875 L 55.375 0 L 47.34375 0 L 47.34375 -5.15625 C 46.21875 -4.09375 45 -3.132812 43.6875 -2.28125 C 42.226562 -1.351562 40.675781 -0.59375 39.03125 0 C 37.4375 0.59375 35.8125 1.019531 34.15625 1.28125 C 32.507812 1.550781 30.863281 1.6875 29.21875 1.6875 C 27.570312 1.6875 25.921875 1.550781 24.265625 1.28125 C 22.617188 1.019531 21 0.59375 19.40625 0 C 16.101562 -1.25 13.234375 -3.097656 10.796875 -5.546875 C 8.347656 -7.921875 6.5 -10.757812 5.25 -14.0625 C 4.65625 -15.644531 4.207031 -17.257812 3.90625 -18.90625 C 3.613281 -20.5625 3.46875 -22.21875 3.46875 -23.875 C 3.46875 -25.519531 3.613281 -27.179688 3.90625 -28.859375 C 4.207031 -30.546875 4.65625 -32.1875 5.25 -33.78125 C 6.5 -37.007812 8.347656 -39.847656 10.796875 -42.296875 C 13.234375 -44.671875 16.101562 -46.484375 19.40625 -47.734375 C 21 -48.328125 22.617188 -48.773438 24.265625 -49.078125 C 25.921875 -49.378906 27.570312 -49.53125 29.21875 -49.53125 C 30.863281 -49.53125 32.507812 -49.378906 34.15625 -49.078125 C 35.8125 -48.773438 37.4375 -48.328125 39.03125 -47.734375 C 40.675781 -47.140625 42.226562 -46.382812 43.6875 -45.46875 C 45 -44.675781 46.21875 -43.71875 47.34375 -42.59375 Z M 46.0625 -16.84375 C 46.914062 -19.019531 47.34375 -21.363281 47.34375 -23.875 C 47.34375 -26.445312 46.914062 -28.820312 46.0625 -31 C 45.195312 -33.25 43.941406 -35.195312 42.296875 -36.84375 C 40.640625 -38.5625 38.65625 -39.847656 36.34375 -40.703125 C 34.164062 -41.566406 31.789062 -42 29.21875 -42 C 26.644531 -42 24.269531 -41.566406 22.09375 -40.703125 C 19.78125 -39.847656 17.796875 -38.59375 16.140625 -36.9375 C 14.421875 -35.289062 13.132812 -33.3125 12.28125 -31 C 11.425781 -28.820312 11 -26.445312 11 -23.875 C 11 -21.363281 11.425781 -18.984375 12.28125 -16.734375 C 13.132812 -14.492188 14.421875 -12.546875 16.140625 -10.890625 C 17.796875 -9.242188 19.78125 -7.988281 22.09375 -7.125 C 24.269531 -6.269531 26.644531 -5.84375 29.21875 -5.84375 C 31.789062 -5.84375 34.164062 -6.269531 36.34375 -7.125 C 38.65625 -7.988281 40.640625 -9.242188 42.296875 -10.890625 C 43.941406 -12.546875 45.195312 -14.53125 46.0625 -16.84375 Z M 46.0625 -16.84375 "/></g></g></g><g fill="#000000" fill-opacity="1"><g transform="translate(291.691699, 75.298878)"><g><path d="M 53.390625 -33.78125 C 53.984375 -32.1875 54.425781 -30.546875 54.71875 -28.859375 C 55.019531 -27.179688 55.171875 -25.519531 55.171875 -23.875 C 55.171875 -22.21875 55.019531 -20.5625 54.71875 -18.90625 C 54.425781 -17.257812 53.945312 -15.644531 53.28125 -14.0625 C 52.03125 -10.757812 50.179688 -7.921875 47.734375 -5.546875 C 45.296875 -3.097656 42.457031 -1.28125 39.21875 -0.09375 C 37.632812 0.5625 36 1.019531 34.3125 1.28125 C 32.632812 1.550781 31.003906 1.6875 29.421875 1.6875 C 27.765625 1.6875 26.09375 1.550781 24.40625 1.28125 C 22.726562 1.019531 21.097656 0.59375 19.515625 0 C 17.929688 -0.65625 16.410156 -1.414062 14.953125 -2.28125 C 13.503906 -3.207031 12.148438 -4.265625 10.890625 -5.453125 C 8.453125 -7.890625 6.570312 -10.726562 5.25 -13.96875 C 4.65625 -15.550781 4.207031 -17.179688 3.90625 -18.859375 C 3.613281 -20.546875 3.46875 -22.21875 3.46875 -23.875 C 3.46875 -25.519531 3.613281 -27.179688 3.90625 -28.859375 C 4.207031 -30.546875 4.65625 -32.1875 5.25 -33.78125 C 6.570312 -37.082031 8.453125 -39.921875 10.890625 -42.296875 C 12.148438 -43.546875 13.503906 -44.632812 14.953125 -45.5625 C 16.335938 -46.414062 17.859375 -47.140625 19.515625 -47.734375 C 21.097656 -48.398438 22.726562 -48.863281 24.40625 -49.125 C 26.09375 -49.394531 27.765625 -49.53125 29.421875 -49.53125 C 31.066406 -49.53125 32.710938 -49.378906 34.359375 -49.078125 C 36.015625 -48.773438 37.632812 -48.328125 39.21875 -47.734375 C 42.457031 -46.484375 45.296875 -44.671875 47.734375 -42.296875 C 50.179688 -39.847656 52.066406 -37.007812 53.390625 -33.78125 Z M 46.359375 -16.734375 C 47.210938 -18.984375 47.640625 -21.363281 47.640625 -23.875 C 47.640625 -26.445312 47.210938 -28.820312 46.359375 -31 C 45.429688 -33.3125 44.140625 -35.289062 42.484375 -36.9375 C 40.773438 -38.59375 38.796875 -39.847656 36.546875 -40.703125 C 34.304688 -41.492188 31.929688 -41.890625 29.421875 -41.890625 C 26.835938 -41.890625 24.425781 -41.492188 22.1875 -40.703125 C 19.9375 -39.785156 17.988281 -38.5 16.34375 -36.84375 C 14.6875 -35.195312 13.398438 -33.25 12.484375 -31 C 11.691406 -28.820312 11.296875 -26.445312 11.296875 -23.875 C 11.296875 -21.363281 11.691406 -19.019531 12.484375 -16.84375 C 13.398438 -14.53125 14.6875 -12.546875 16.34375 -10.890625 C 17.988281 -9.242188 19.9375 -7.988281 22.1875 -7.125 C 24.425781 -6.269531 26.835938 -5.84375 29.421875 -5.84375 C 31.929688 -5.84375 34.304688 -6.269531 36.546875 -7.125 C 38.796875 -7.988281 40.773438 -9.242188 42.484375 -10.890625 C 44.140625 -12.546875 45.429688 -14.492188 46.359375 -16.734375 Z M 46.359375 -16.734375 "/></g></g></g><g fill="#c79e40" fill-opacity="1"><g transform="translate(349.332558, 75.298878)"><g><path d="M 12.484375 1.6875 C 10.898438 2.34375 9.3125 2.335938 7.71875 1.671875 C 6.132812 1.015625 5.015625 -0.101562 4.359375 -1.6875 C 3.703125 -3.269531 3.703125 -4.867188 4.359375 -6.484375 C 5.015625 -8.109375 6.132812 -9.25 7.71875 -9.90625 C 9.3125 -10.5625 10.898438 -10.5625 12.484375 -9.90625 C 14.066406 -9.25 15.1875 -8.09375 15.84375 -6.4375 C 16.507812 -4.851562 16.507812 -3.269531 15.84375 -1.6875 C 15.1875 -0.101562 14.066406 1.019531 12.484375 1.6875 Z M 12.484375 1.6875 "/></g></g></g><g clip-path="url(#78ab0d2c8a)"><g transform="matrix(1, 0, 0, 1, 97, 14)"><g clip-path="url(#86d60b60eb)"><g clip-path="url(#dfded33bc4)"><path fill="#000000" d="M 0.699219 0.964844 L 22.75 0.964844 L 22.75 7.84375 L 0.699219 7.84375 Z M 0.699219 0.964844 " fill-opacity="1" fill-rule="nonzero"/></g></g></g></g></g></g></g></svg>