<svg xmlns="http://www.w3.org/2000/svg" xmlns:xlink="http://www.w3.org/1999/xlink" width="500" zoomAndPan="magnify" viewBox="0 0 375 120" height="150" preserveAspectRatio="xMidYMid meet" version="1.0"><defs><g/><clipPath id="f18ce6f096"><path d="M 97.300781 23.070312 L 119.460938 23.070312 L 119.460938 29.976562 L 97.300781 29.976562 Z M 97.300781 23.070312 " clip-rule="nonzero"/></clipPath><clipPath id="96783f9d5c"><path d="M 0.300781 0.0703125 L 22.460938 0.0703125 L 22.460938 6.976562 L 0.300781 6.976562 Z M 0.300781 0.0703125 " clip-rule="nonzero"/></clipPath><clipPath id="3e61629877"><rect x="0" width="23" y="0" height="7"/></clipPath></defs><g fill="#ffffff" fill-opacity="1"><g transform="translate(0, 84.327858)"><g><path d="M 68.84375 -44.765625 C 72.351562 -41.253906 74.109375 -36.878906 74.109375 -31.640625 L 74.109375 0 L 66.15625 0 L 66.15625 -31.640625 C 66.15625 -34.617188 65.191406 -37.070312 63.265625 -39 C 61.347656 -40.925781 58.929688 -41.890625 56.015625 -41.890625 C 53.421875 -41.890625 51.226562 -41.257812 49.4375 -40 C 47.644531 -38.738281 46.285156 -37.210938 45.359375 -35.421875 C 44.429688 -33.628906 43.96875 -31.9375 43.96875 -30.34375 L 43.96875 0 L 35.90625 0 L 35.90625 -31.640625 C 35.90625 -34.617188 34.960938 -37.070312 33.078125 -39 C 31.191406 -40.925781 28.785156 -41.890625 25.859375 -41.890625 C 23.273438 -41.890625 21.085938 -41.257812 19.296875 -40 C 17.503906 -38.738281 16.144531 -37.210938 15.21875 -35.421875 C 14.289062 -33.628906 13.828125 -31.9375 13.828125 -30.34375 L 13.828125 0 L 5.765625 0 L 5.765625 -30.34375 C 5.765625 -30.34375 5.765625 -30.9375 5.765625 -32.125 C 5.765625 -33.320312 5.765625 -34.800781 5.765625 -36.5625 C 5.765625 -38.320312 5.765625 -40.078125 5.765625 -41.828125 C 5.765625 -43.585938 5.765625 -45.046875 5.765625 -46.203125 C 5.765625 -47.367188 5.765625 -47.953125 5.765625 -47.953125 L 13.828125 -47.953125 L 13.828125 -44.765625 C 15.421875 -46.359375 17.296875 -47.617188 19.453125 -48.546875 C 21.609375 -49.472656 23.742188 -49.9375 25.859375 -49.9375 C 30.972656 -49.9375 35.253906 -48.210938 38.703125 -44.765625 C 39.359375 -44.097656 39.988281 -43.367188 40.59375 -42.578125 C 40.789062 -42.847656 40.988281 -43.113281 41.1875 -43.375 C 45.101562 -47.75 50.046875 -49.9375 56.015625 -49.9375 C 61.117188 -49.9375 65.394531 -48.210938 68.84375 -44.765625 Z M 68.84375 -44.765625 "/></g></g></g><g fill="#ffffff" fill-opacity="1"><g transform="translate(79.484879, 84.327858)"><g><path d="M 52.234375 -32.734375 C 52.691406 -31.335938 53.019531 -29.894531 53.21875 -28.40625 C 53.414062 -26.914062 53.550781 -25.4375 53.625 -23.96875 L 53.625 -20 L 11.640625 -20 C 11.640625 -19.863281 11.671875 -19.765625 11.734375 -19.703125 C 11.929688 -18.640625 12.234375 -17.609375 12.640625 -16.609375 C 13.429688 -14.617188 14.554688 -12.863281 16.015625 -11.34375 C 17.472656 -9.8125 19.164062 -8.582031 21.09375 -7.65625 C 23.007812 -6.789062 25.097656 -6.257812 27.359375 -6.0625 C 27.890625 -6 28.421875 -5.96875 28.953125 -5.96875 C 29.347656 -5.96875 29.613281 -5.96875 29.75 -5.96875 C 29.8125 -5.96875 29.875 -5.96875 29.9375 -5.96875 C 30.007812 -5.96875 30.078125 -5.96875 30.140625 -5.96875 L 30.640625 -5.96875 C 31.234375 -6.03125 31.765625 -6.0625 32.234375 -6.0625 C 32.367188 -6.132812 32.5 -6.171875 32.625 -6.171875 C 32.757812 -6.171875 32.894531 -6.203125 33.03125 -6.265625 C 33.164062 -6.265625 33.296875 -6.28125 33.421875 -6.3125 C 33.554688 -6.34375 33.691406 -6.359375 33.828125 -6.359375 C 36.015625 -6.828125 37.96875 -7.625 39.6875 -8.75 C 41.476562 -9.882812 43.003906 -11.28125 44.265625 -12.9375 L 50.53125 -8.25 C 48.75 -5.800781 46.53125 -3.75 43.875 -2.09375 C 41.289062 -0.5 38.472656 0.59375 35.421875 1.1875 C 35.222656 1.257812 35.039062 1.3125 34.875 1.34375 C 34.707031 1.375 34.523438 1.390625 34.328125 1.390625 C 34.128906 1.460938 33.925781 1.515625 33.71875 1.546875 C 33.519531 1.578125 33.359375 1.59375 33.234375 1.59375 C 32.566406 1.65625 31.800781 1.722656 30.9375 1.796875 L 30.4375 1.796875 C 30.3125 1.796875 30.210938 1.796875 30.140625 1.796875 C 30.078125 1.796875 29.976562 1.796875 29.84375 1.796875 C 29.644531 1.796875 29.460938 1.796875 29.296875 1.796875 C 29.128906 1.796875 28.945312 1.796875 28.75 1.796875 C 28.019531 1.796875 27.289062 1.757812 26.5625 1.6875 C 23.445312 1.351562 20.5625 0.554688 17.90625 -0.703125 C 15.050781 -2.023438 12.566406 -3.8125 10.453125 -6.0625 C 8.328125 -8.25 6.703125 -10.804688 5.578125 -13.734375 C 4.972656 -15.117188 4.503906 -16.539062 4.171875 -18 C 3.847656 -19.46875 3.648438 -20.960938 3.578125 -22.484375 C 3.578125 -23.210938 3.578125 -23.941406 3.578125 -24.671875 C 3.578125 -25.398438 3.613281 -26.160156 3.6875 -26.953125 C 3.882812 -28.421875 4.148438 -29.882812 4.484375 -31.34375 C 5.273438 -34.320312 6.566406 -37.039062 8.359375 -39.5 C 10.148438 -42.082031 12.335938 -44.203125 14.921875 -45.859375 C 17.503906 -47.453125 20.320312 -48.582031 23.375 -49.25 C 24.832031 -49.507812 26.328125 -49.675781 27.859375 -49.75 C 29.316406 -49.8125 30.804688 -49.742188 32.328125 -49.546875 C 35.453125 -49.148438 38.335938 -48.21875 40.984375 -46.75 C 42.378906 -45.957031 43.640625 -45.066406 44.765625 -44.078125 C 45.960938 -43.078125 47.054688 -41.976562 48.046875 -40.78125 C 48.972656 -39.59375 49.769531 -38.300781 50.4375 -36.90625 C 51.164062 -35.582031 51.765625 -34.191406 52.234375 -32.734375 Z M 11.640625 -28.046875 L 45.46875 -28.046875 C 45.332031 -28.910156 45.164062 -29.742188 44.96875 -30.546875 C 44.632812 -31.609375 44.234375 -32.601562 43.765625 -33.53125 C 43.304688 -34.457031 42.742188 -35.316406 42.078125 -36.109375 C 40.753906 -37.765625 39.195312 -39.09375 37.40625 -40.09375 C 35.550781 -41.082031 33.53125 -41.710938 31.34375 -41.984375 C 30.34375 -42.117188 29.28125 -42.148438 28.15625 -42.078125 C 27.03125 -42.078125 25.9375 -41.976562 24.875 -41.78125 C 22.75 -41.320312 20.820312 -40.523438 19.09375 -39.390625 C 17.3125 -38.265625 15.789062 -36.84375 14.53125 -35.125 C 13.332031 -33.394531 12.46875 -31.46875 11.9375 -29.34375 C 11.800781 -28.945312 11.703125 -28.515625 11.640625 -28.046875 Z M 11.640625 -28.046875 "/></g></g></g><g fill="#ffffff" fill-opacity="1"><g transform="translate(135.691275, 84.327858)"><g><path d="M 33.53125 -8.359375 L 37.203125 -1.984375 C 35.347656 -0.921875 33.207031 -0.0585938 30.78125 0.59375 C 28.363281 1.257812 25.664062 1.59375 22.6875 1.59375 C 18.707031 1.59375 15.390625 0.382812 12.734375 -2.03125 C 10.078125 -4.457031 8.75 -8.488281 8.75 -14.125 L 8.75 -40 L 2.1875 -40 L 2.1875 -48.046875 L 8.75 -48.046875 L 8.75 -59.390625 L 16.8125 -59.390625 L 16.8125 -48.046875 L 31.34375 -48.046875 L 31.34375 -40 L 16.8125 -40 L 16.8125 -14.03125 C 16.8125 -11.3125 17.207031 -9.40625 18 -8.3125 C 18.800781 -7.21875 19.75 -6.566406 20.84375 -6.359375 C 21.9375 -6.160156 22.847656 -6.03125 23.578125 -5.96875 C 24.898438 -5.90625 26.570312 -6.117188 28.59375 -6.609375 C 30.625 -7.109375 32.269531 -7.691406 33.53125 -8.359375 Z M 33.53125 -8.359375 "/></g></g></g><g fill="#ffffff" fill-opacity="1"><g transform="translate(171.901971, 84.327858)"><g><path d="M 53.625 -33.921875 C 54.21875 -32.328125 54.660156 -30.6875 54.953125 -29 C 55.253906 -27.3125 55.40625 -25.632812 55.40625 -23.96875 C 55.40625 -22.3125 55.253906 -20.65625 54.953125 -19 C 54.660156 -17.34375 54.179688 -15.71875 53.515625 -14.125 C 52.253906 -10.8125 50.398438 -7.960938 47.953125 -5.578125 C 45.492188 -3.117188 42.640625 -1.289062 39.390625 -0.09375 C 37.804688 0.5625 36.164062 1.019531 34.46875 1.28125 C 32.78125 1.550781 31.140625 1.6875 29.546875 1.6875 C 27.890625 1.6875 26.210938 1.550781 24.515625 1.28125 C 22.828125 1.019531 21.1875 0.59375 19.59375 0 C 18 -0.664062 16.472656 -1.425781 15.015625 -2.28125 C 13.554688 -3.21875 12.195312 -4.28125 10.9375 -5.46875 C 8.488281 -7.925781 6.597656 -10.78125 5.265625 -14.03125 C 4.671875 -15.625 4.222656 -17.265625 3.921875 -18.953125 C 3.628906 -20.640625 3.484375 -22.3125 3.484375 -23.96875 C 3.484375 -25.632812 3.628906 -27.3125 3.921875 -29 C 4.222656 -30.6875 4.671875 -32.328125 5.265625 -33.921875 C 6.597656 -37.234375 8.488281 -40.085938 10.9375 -42.484375 C 12.195312 -43.742188 13.554688 -44.835938 15.015625 -45.765625 C 16.410156 -46.628906 17.9375 -47.359375 19.59375 -47.953125 C 21.1875 -48.617188 22.828125 -49.082031 24.515625 -49.34375 C 26.210938 -49.613281 27.890625 -49.75 29.546875 -49.75 C 31.203125 -49.75 32.859375 -49.597656 34.515625 -49.296875 C 36.179688 -48.992188 37.804688 -48.546875 39.390625 -47.953125 C 42.640625 -46.691406 45.492188 -44.867188 47.953125 -42.484375 C 50.398438 -40.023438 52.289062 -37.171875 53.625 -33.921875 Z M 46.5625 -16.8125 C 47.425781 -19.070312 47.859375 -21.457031 47.859375 -23.96875 C 47.859375 -26.5625 47.425781 -28.953125 46.5625 -31.140625 C 45.632812 -33.460938 44.335938 -35.453125 42.671875 -37.109375 C 40.953125 -38.765625 38.960938 -40.023438 36.703125 -40.890625 C 34.453125 -41.679688 32.066406 -42.078125 29.546875 -42.078125 C 26.960938 -42.078125 24.539062 -41.679688 22.28125 -40.890625 C 20.03125 -39.960938 18.078125 -38.671875 16.421875 -37.015625 C 14.753906 -35.347656 13.457031 -33.390625 12.53125 -31.140625 C 11.738281 -28.953125 11.34375 -26.5625 11.34375 -23.96875 C 11.34375 -21.457031 11.738281 -19.101562 12.53125 -16.90625 C 13.457031 -14.59375 14.753906 -12.601562 16.421875 -10.9375 C 18.078125 -9.28125 20.03125 -8.019531 22.28125 -7.15625 C 24.539062 -6.300781 26.960938 -5.875 29.546875 -5.875 C 32.066406 -5.875 34.453125 -6.300781 36.703125 -7.15625 C 38.960938 -8.019531 40.953125 -9.28125 42.671875 -10.9375 C 44.335938 -12.601562 45.632812 -14.5625 46.5625 -16.8125 Z M 46.5625 -16.8125 "/></g></g></g><g fill="#ffffff" fill-opacity="1"><g transform="translate(230.794409, 84.327858)"><g><path d="M 47.546875 -42.78125 L 47.546875 -70.53125 L 55.609375 -70.53125 L 55.609375 0 L 47.546875 0 L 47.546875 -5.171875 C 46.421875 -4.109375 45.195312 -3.144531 43.875 -2.28125 C 42.414062 -1.351562 40.859375 -0.59375 39.203125 0 C 37.609375 0.59375 35.976562 1.019531 34.3125 1.28125 C 32.65625 1.550781 31 1.6875 29.34375 1.6875 C 27.6875 1.6875 26.03125 1.550781 24.375 1.28125 C 22.71875 1.019531 21.09375 0.59375 19.5 0 C 16.1875 -1.257812 13.300781 -3.117188 10.84375 -5.578125 C 8.382812 -7.960938 6.523438 -10.8125 5.265625 -14.125 C 4.671875 -15.71875 4.222656 -17.34375 3.921875 -19 C 3.628906 -20.65625 3.484375 -22.3125 3.484375 -23.96875 C 3.484375 -25.632812 3.628906 -27.3125 3.921875 -29 C 4.222656 -30.6875 4.671875 -32.328125 5.265625 -33.921875 C 6.523438 -37.171875 8.382812 -40.023438 10.84375 -42.484375 C 13.300781 -44.867188 16.1875 -46.691406 19.5 -47.953125 C 21.09375 -48.546875 22.71875 -48.992188 24.375 -49.296875 C 26.03125 -49.597656 27.6875 -49.75 29.34375 -49.75 C 31 -49.75 32.65625 -49.597656 34.3125 -49.296875 C 35.976562 -48.992188 37.609375 -48.546875 39.203125 -47.953125 C 40.859375 -47.359375 42.414062 -46.59375 43.875 -45.65625 C 45.195312 -44.863281 46.421875 -43.90625 47.546875 -42.78125 Z M 46.265625 -16.90625 C 47.117188 -19.101562 47.546875 -21.457031 47.546875 -23.96875 C 47.546875 -26.5625 47.117188 -28.953125 46.265625 -31.140625 C 45.398438 -33.390625 44.140625 -35.347656 42.484375 -37.015625 C 40.828125 -38.734375 38.835938 -40.023438 36.515625 -40.890625 C 34.328125 -41.753906 31.9375 -42.1875 29.34375 -42.1875 C 26.757812 -42.1875 24.375 -41.753906 22.1875 -40.890625 C 19.863281 -40.023438 17.875 -38.765625 16.21875 -37.109375 C 14.488281 -35.453125 13.195312 -33.460938 12.34375 -31.140625 C 11.476562 -28.953125 11.046875 -26.5625 11.046875 -23.96875 C 11.046875 -21.457031 11.476562 -19.070312 12.34375 -16.8125 C 13.195312 -14.5625 14.488281 -12.601562 16.21875 -10.9375 C 17.875 -9.28125 19.863281 -8.019531 22.1875 -7.15625 C 24.375 -6.300781 26.757812 -5.875 29.34375 -5.875 C 31.9375 -5.875 34.328125 -6.300781 36.515625 -7.15625 C 38.835938 -8.019531 40.828125 -9.28125 42.484375 -10.9375 C 44.140625 -12.601562 45.398438 -14.59375 46.265625 -16.90625 Z M 46.265625 -16.90625 "/></g></g></g><g fill="#ffffff" fill-opacity="1"><g transform="translate(292.173831, 84.327858)"><g><path d="M 53.625 -33.921875 C 54.21875 -32.328125 54.660156 -30.6875 54.953125 -29 C 55.253906 -27.3125 55.40625 -25.632812 55.40625 -23.96875 C 55.40625 -22.3125 55.253906 -20.65625 54.953125 -19 C 54.660156 -17.34375 54.179688 -15.71875 53.515625 -14.125 C 52.253906 -10.8125 50.398438 -7.960938 47.953125 -5.578125 C 45.492188 -3.117188 42.640625 -1.289062 39.390625 -0.09375 C 37.804688 0.5625 36.164062 1.019531 34.46875 1.28125 C 32.78125 1.550781 31.140625 1.6875 29.546875 1.6875 C 27.890625 1.6875 26.210938 1.550781 24.515625 1.28125 C 22.828125 1.019531 21.1875 0.59375 19.59375 0 C 18 -0.664062 16.472656 -1.425781 15.015625 -2.28125 C 13.554688 -3.21875 12.195312 -4.28125 10.9375 -5.46875 C 8.488281 -7.925781 6.597656 -10.78125 5.265625 -14.03125 C 4.671875 -15.625 4.222656 -17.265625 3.921875 -18.953125 C 3.628906 -20.640625 3.484375 -22.3125 3.484375 -23.96875 C 3.484375 -25.632812 3.628906 -27.3125 3.921875 -29 C 4.222656 -30.6875 4.671875 -32.328125 5.265625 -33.921875 C 6.597656 -37.234375 8.488281 -40.085938 10.9375 -42.484375 C 12.195312 -43.742188 13.554688 -44.835938 15.015625 -45.765625 C 16.410156 -46.628906 17.9375 -47.359375 19.59375 -47.953125 C 21.1875 -48.617188 22.828125 -49.082031 24.515625 -49.34375 C 26.210938 -49.613281 27.890625 -49.75 29.546875 -49.75 C 31.203125 -49.75 32.859375 -49.597656 34.515625 -49.296875 C 36.179688 -48.992188 37.804688 -48.546875 39.390625 -47.953125 C 42.640625 -46.691406 45.492188 -44.867188 47.953125 -42.484375 C 50.398438 -40.023438 52.289062 -37.171875 53.625 -33.921875 Z M 46.5625 -16.8125 C 47.425781 -19.070312 47.859375 -21.457031 47.859375 -23.96875 C 47.859375 -26.5625 47.425781 -28.953125 46.5625 -31.140625 C 45.632812 -33.460938 44.335938 -35.453125 42.671875 -37.109375 C 40.953125 -38.765625 38.960938 -40.023438 36.703125 -40.890625 C 34.453125 -41.679688 32.066406 -42.078125 29.546875 -42.078125 C 26.960938 -42.078125 24.539062 -41.679688 22.28125 -40.890625 C 20.03125 -39.960938 18.078125 -38.671875 16.421875 -37.015625 C 14.753906 -35.347656 13.457031 -33.390625 12.53125 -31.140625 C 11.738281 -28.953125 11.34375 -26.5625 11.34375 -23.96875 C 11.34375 -21.457031 11.738281 -19.101562 12.53125 -16.90625 C 13.457031 -14.59375 14.753906 -12.601562 16.421875 -10.9375 C 18.078125 -9.28125 20.03125 -8.019531 22.28125 -7.15625 C 24.539062 -6.300781 26.960938 -5.875 29.546875 -5.875 C 32.066406 -5.875 34.453125 -6.300781 36.703125 -7.15625 C 38.960938 -8.019531 40.953125 -9.28125 42.671875 -10.9375 C 44.335938 -12.601562 45.632812 -14.5625 46.5625 -16.8125 Z M 46.5625 -16.8125 "/></g></g></g><g fill="#c79e40" fill-opacity="1"><g transform="translate(350.074208, 84.327858)"><g><path d="M 12.53125 1.6875 C 10.9375 2.351562 9.34375 2.351562 7.75 1.6875 C 6.164062 1.03125 5.039062 -0.09375 4.375 -1.6875 C 3.707031 -3.28125 3.707031 -4.890625 4.375 -6.515625 C 5.039062 -8.140625 6.171875 -9.285156 7.765625 -9.953125 C 9.347656 -10.609375 10.9375 -10.601562 12.53125 -9.9375 C 14.125 -9.28125 15.253906 -8.125 15.921875 -6.46875 C 16.578125 -4.875 16.570312 -3.28125 15.90625 -1.6875 C 15.25 -0.09375 14.125 1.03125 12.53125 1.6875 Z M 12.53125 1.6875 "/></g></g></g><g clip-path="url(#f18ce6f096)"><g transform="matrix(1, 0, 0, 1, 97, 23)"><g clip-path="url(#3e61629877)"><g clip-path="url(#96783f9d5c)"><path fill="#ffffff" d="M 0.300781 0.0703125 L 22.449219 0.0703125 L 22.449219 6.976562 L 0.300781 6.976562 Z M 0.300781 0.0703125 " fill-opacity="1" fill-rule="nonzero"/></g></g></g></g></svg>